%TF.GenerationSoftware,KiCad,Pcbnew,(6.0.8-1)-1*%
%TF.CreationDate,2024-02-06T23:44:39-06:00*%
%TF.ProjectId,openmv_can_shield,6f70656e-6d76-45f6-9361-6e5f73686965,rev?*%
%TF.SameCoordinates,Original*%
%TF.FileFunction,Legend,Bot*%
%TF.FilePolarity,Positive*%
%FSLAX46Y46*%
G04 Gerber Fmt 4.6, Leading zero omitted, Abs format (unit mm)*
G04 Created by KiCad (PCBNEW (6.0.8-1)-1) date 2024-02-06 23:44:39*
%MOMM*%
%LPD*%
G01*
G04 APERTURE LIST*
%ADD10C,0.150000*%
%ADD11C,0.180000*%
G04 APERTURE END LIST*
D10*
X143764000Y-116154200D02*
X132461000Y-116154200D01*
X132461000Y-116154200D02*
X132461000Y-113284000D01*
X132461000Y-113284000D02*
X143764000Y-113284000D01*
X143764000Y-113284000D02*
X143764000Y-116154200D01*
G36*
X143764000Y-116154200D02*
G01*
X132461000Y-116154200D01*
X132461000Y-113284000D01*
X143764000Y-113284000D01*
X143764000Y-116154200D01*
G37*
D11*
X147932563Y-92976966D02*
X148365897Y-92976966D01*
X148365897Y-93657919D02*
X148365897Y-92357919D01*
X147746849Y-92357919D01*
X146508754Y-93657919D02*
X146942087Y-93038871D01*
X147251611Y-93657919D02*
X147251611Y-92357919D01*
X146756373Y-92357919D01*
X146632563Y-92419824D01*
X146570659Y-92481728D01*
X146508754Y-92605538D01*
X146508754Y-92791252D01*
X146570659Y-92915062D01*
X146632563Y-92976966D01*
X146756373Y-93038871D01*
X147251611Y-93038871D01*
X145208754Y-93534109D02*
X145270659Y-93596014D01*
X145456373Y-93657919D01*
X145580182Y-93657919D01*
X145765897Y-93596014D01*
X145889706Y-93472204D01*
X145951611Y-93348395D01*
X146013516Y-93100776D01*
X146013516Y-92915062D01*
X145951611Y-92667443D01*
X145889706Y-92543633D01*
X145765897Y-92419824D01*
X145580182Y-92357919D01*
X145456373Y-92357919D01*
X145270659Y-92419824D01*
X145208754Y-92481728D01*
X144713516Y-92481728D02*
X144651611Y-92419824D01*
X144527801Y-92357919D01*
X144218278Y-92357919D01*
X144094468Y-92419824D01*
X144032563Y-92481728D01*
X143970659Y-92605538D01*
X143970659Y-92729347D01*
X144032563Y-92915062D01*
X144775421Y-93657919D01*
X143970659Y-93657919D01*
X142856373Y-92791252D02*
X142856373Y-93657919D01*
X143165897Y-92296014D02*
X143475421Y-93224585D01*
X142670659Y-93224585D01*
X141618278Y-92357919D02*
X141865897Y-92357919D01*
X141989706Y-92419824D01*
X142051611Y-92481728D01*
X142175421Y-92667443D01*
X142237325Y-92915062D01*
X142237325Y-93410300D01*
X142175421Y-93534109D01*
X142113516Y-93596014D01*
X141989706Y-93657919D01*
X141742087Y-93657919D01*
X141618278Y-93596014D01*
X141556373Y-93534109D01*
X141494468Y-93410300D01*
X141494468Y-93100776D01*
X141556373Y-92976966D01*
X141618278Y-92915062D01*
X141742087Y-92853157D01*
X141989706Y-92853157D01*
X142113516Y-92915062D01*
X142175421Y-92976966D01*
X142237325Y-93100776D01*
X140751611Y-92915062D02*
X140875421Y-92853157D01*
X140937325Y-92791252D01*
X140999230Y-92667443D01*
X140999230Y-92605538D01*
X140937325Y-92481728D01*
X140875421Y-92419824D01*
X140751611Y-92357919D01*
X140503992Y-92357919D01*
X140380182Y-92419824D01*
X140318278Y-92481728D01*
X140256373Y-92605538D01*
X140256373Y-92667443D01*
X140318278Y-92791252D01*
X140380182Y-92853157D01*
X140503992Y-92915062D01*
X140751611Y-92915062D01*
X140875421Y-92976966D01*
X140937325Y-93038871D01*
X140999230Y-93162681D01*
X140999230Y-93410300D01*
X140937325Y-93534109D01*
X140875421Y-93596014D01*
X140751611Y-93657919D01*
X140503992Y-93657919D01*
X140380182Y-93596014D01*
X140318278Y-93534109D01*
X140256373Y-93410300D01*
X140256373Y-93162681D01*
X140318278Y-93038871D01*
X140380182Y-92976966D01*
X140503992Y-92915062D01*
X150776742Y-83803200D02*
X150833885Y-83746057D01*
X150948171Y-83574628D01*
X151005314Y-83460342D01*
X151062457Y-83288914D01*
X151119600Y-83003200D01*
X151119600Y-82774628D01*
X151062457Y-82488914D01*
X151005314Y-82317485D01*
X150948171Y-82203200D01*
X150833885Y-82031771D01*
X150776742Y-81974628D01*
X149805314Y-83288914D02*
X149919600Y-83346057D01*
X150148171Y-83346057D01*
X150262457Y-83288914D01*
X150319600Y-83231771D01*
X150376742Y-83117485D01*
X150376742Y-82774628D01*
X150319600Y-82660342D01*
X150262457Y-82603200D01*
X150148171Y-82546057D01*
X149919600Y-82546057D01*
X149805314Y-82603200D01*
X149405314Y-83803200D02*
X149348171Y-83746057D01*
X149233885Y-83574628D01*
X149176742Y-83460342D01*
X149119600Y-83288914D01*
X149062457Y-83003200D01*
X149062457Y-82774628D01*
X149119600Y-82488914D01*
X149176742Y-82317485D01*
X149233885Y-82203200D01*
X149348171Y-82031771D01*
X149405314Y-81974628D01*
X147633885Y-82260342D02*
X147576742Y-82203200D01*
X147462457Y-82146057D01*
X147176742Y-82146057D01*
X147062457Y-82203200D01*
X147005314Y-82260342D01*
X146948171Y-82374628D01*
X146948171Y-82488914D01*
X147005314Y-82660342D01*
X147691028Y-83346057D01*
X146948171Y-83346057D01*
X146205314Y-82146057D02*
X146091028Y-82146057D01*
X145976742Y-82203200D01*
X145919600Y-82260342D01*
X145862457Y-82374628D01*
X145805314Y-82603200D01*
X145805314Y-82888914D01*
X145862457Y-83117485D01*
X145919600Y-83231771D01*
X145976742Y-83288914D01*
X146091028Y-83346057D01*
X146205314Y-83346057D01*
X146319600Y-83288914D01*
X146376742Y-83231771D01*
X146433885Y-83117485D01*
X146491028Y-82888914D01*
X146491028Y-82603200D01*
X146433885Y-82374628D01*
X146376742Y-82260342D01*
X146319600Y-82203200D01*
X146205314Y-82146057D01*
X145348171Y-82260342D02*
X145291028Y-82203200D01*
X145176742Y-82146057D01*
X144891028Y-82146057D01*
X144776742Y-82203200D01*
X144719600Y-82260342D01*
X144662457Y-82374628D01*
X144662457Y-82488914D01*
X144719600Y-82660342D01*
X145405314Y-83346057D01*
X144662457Y-83346057D01*
X143633885Y-82546057D02*
X143633885Y-83346057D01*
X143919600Y-82088914D02*
X144205314Y-82946057D01*
X143462457Y-82946057D01*
X142948171Y-83288914D02*
X142948171Y-83346057D01*
X143005314Y-83460342D01*
X143062457Y-83517485D01*
X141576742Y-83288914D02*
X141405314Y-83346057D01*
X141119600Y-83346057D01*
X141005314Y-83288914D01*
X140948171Y-83231771D01*
X140891028Y-83117485D01*
X140891028Y-83003200D01*
X140948171Y-82888914D01*
X141005314Y-82831771D01*
X141119600Y-82774628D01*
X141348171Y-82717485D01*
X141462457Y-82660342D01*
X141519600Y-82603200D01*
X141576742Y-82488914D01*
X141576742Y-82374628D01*
X141519600Y-82260342D01*
X141462457Y-82203200D01*
X141348171Y-82146057D01*
X141062457Y-82146057D01*
X140891028Y-82203200D01*
X140376742Y-83346057D02*
X140376742Y-82146057D01*
X140376742Y-82717485D02*
X139691028Y-82717485D01*
X139691028Y-83346057D02*
X139691028Y-82146057D01*
X138433885Y-83346057D02*
X138833885Y-82774628D01*
X139119600Y-83346057D02*
X139119600Y-82146057D01*
X138662457Y-82146057D01*
X138548171Y-82203200D01*
X138491028Y-82260342D01*
X138433885Y-82374628D01*
X138433885Y-82546057D01*
X138491028Y-82660342D01*
X138548171Y-82717485D01*
X138662457Y-82774628D01*
X139119600Y-82774628D01*
X137919600Y-83346057D02*
X137919600Y-82146057D01*
X137519600Y-83003200D01*
X137119600Y-82146057D01*
X137119600Y-83346057D01*
X152748171Y-84935200D02*
X152176742Y-84935200D01*
X152862457Y-85278057D02*
X152462457Y-84078057D01*
X152062457Y-85278057D01*
X151491028Y-85278057D02*
X151605314Y-85220914D01*
X151662457Y-85106628D01*
X151662457Y-84078057D01*
X150862457Y-85278057D02*
X150976742Y-85220914D01*
X151033885Y-85106628D01*
X151033885Y-84078057D01*
X148805314Y-85278057D02*
X149205314Y-84706628D01*
X149491028Y-85278057D02*
X149491028Y-84078057D01*
X149033885Y-84078057D01*
X148919600Y-84135200D01*
X148862457Y-84192342D01*
X148805314Y-84306628D01*
X148805314Y-84478057D01*
X148862457Y-84592342D01*
X148919600Y-84649485D01*
X149033885Y-84706628D01*
X149491028Y-84706628D01*
X148291028Y-85278057D02*
X148291028Y-84478057D01*
X148291028Y-84078057D02*
X148348171Y-84135200D01*
X148291028Y-84192342D01*
X148233885Y-84135200D01*
X148291028Y-84078057D01*
X148291028Y-84192342D01*
X147205314Y-84478057D02*
X147205314Y-85449485D01*
X147262457Y-85563771D01*
X147319600Y-85620914D01*
X147433885Y-85678057D01*
X147605314Y-85678057D01*
X147719600Y-85620914D01*
X147205314Y-85220914D02*
X147319600Y-85278057D01*
X147548171Y-85278057D01*
X147662457Y-85220914D01*
X147719600Y-85163771D01*
X147776742Y-85049485D01*
X147776742Y-84706628D01*
X147719600Y-84592342D01*
X147662457Y-84535200D01*
X147548171Y-84478057D01*
X147319600Y-84478057D01*
X147205314Y-84535200D01*
X146633885Y-85278057D02*
X146633885Y-84078057D01*
X146119600Y-85278057D02*
X146119600Y-84649485D01*
X146176742Y-84535200D01*
X146291028Y-84478057D01*
X146462457Y-84478057D01*
X146576742Y-84535200D01*
X146633885Y-84592342D01*
X145719600Y-84478057D02*
X145262457Y-84478057D01*
X145548171Y-84078057D02*
X145548171Y-85106628D01*
X145491028Y-85220914D01*
X145376742Y-85278057D01*
X145262457Y-85278057D01*
X144919600Y-85220914D02*
X144805314Y-85278057D01*
X144576742Y-85278057D01*
X144462457Y-85220914D01*
X144405314Y-85106628D01*
X144405314Y-85049485D01*
X144462457Y-84935200D01*
X144576742Y-84878057D01*
X144748171Y-84878057D01*
X144862457Y-84820914D01*
X144919600Y-84706628D01*
X144919600Y-84649485D01*
X144862457Y-84535200D01*
X144748171Y-84478057D01*
X144576742Y-84478057D01*
X144462457Y-84535200D01*
X142291028Y-85278057D02*
X142691028Y-84706628D01*
X142976742Y-85278057D02*
X142976742Y-84078057D01*
X142519600Y-84078057D01*
X142405314Y-84135200D01*
X142348171Y-84192342D01*
X142291028Y-84306628D01*
X142291028Y-84478057D01*
X142348171Y-84592342D01*
X142405314Y-84649485D01*
X142519600Y-84706628D01*
X142976742Y-84706628D01*
X141319600Y-85220914D02*
X141433885Y-85278057D01*
X141662457Y-85278057D01*
X141776742Y-85220914D01*
X141833885Y-85106628D01*
X141833885Y-84649485D01*
X141776742Y-84535200D01*
X141662457Y-84478057D01*
X141433885Y-84478057D01*
X141319600Y-84535200D01*
X141262457Y-84649485D01*
X141262457Y-84763771D01*
X141833885Y-84878057D01*
X140805314Y-85220914D02*
X140691028Y-85278057D01*
X140462457Y-85278057D01*
X140348171Y-85220914D01*
X140291028Y-85106628D01*
X140291028Y-85049485D01*
X140348171Y-84935200D01*
X140462457Y-84878057D01*
X140633885Y-84878057D01*
X140748171Y-84820914D01*
X140805314Y-84706628D01*
X140805314Y-84649485D01*
X140748171Y-84535200D01*
X140633885Y-84478057D01*
X140462457Y-84478057D01*
X140348171Y-84535200D01*
X139319600Y-85220914D02*
X139433885Y-85278057D01*
X139662457Y-85278057D01*
X139776742Y-85220914D01*
X139833885Y-85106628D01*
X139833885Y-84649485D01*
X139776742Y-84535200D01*
X139662457Y-84478057D01*
X139433885Y-84478057D01*
X139319600Y-84535200D01*
X139262457Y-84649485D01*
X139262457Y-84763771D01*
X139833885Y-84878057D01*
X138748171Y-85278057D02*
X138748171Y-84478057D01*
X138748171Y-84706628D02*
X138691028Y-84592342D01*
X138633885Y-84535200D01*
X138519600Y-84478057D01*
X138405314Y-84478057D01*
X138119600Y-84478057D02*
X137833885Y-85278057D01*
X137548171Y-84478057D01*
X136633885Y-85220914D02*
X136748171Y-85278057D01*
X136976742Y-85278057D01*
X137091028Y-85220914D01*
X137148171Y-85106628D01*
X137148171Y-84649485D01*
X137091028Y-84535200D01*
X136976742Y-84478057D01*
X136748171Y-84478057D01*
X136633885Y-84535200D01*
X136576742Y-84649485D01*
X136576742Y-84763771D01*
X137148171Y-84878057D01*
X135548171Y-85278057D02*
X135548171Y-84078057D01*
X135548171Y-85220914D02*
X135662457Y-85278057D01*
X135891028Y-85278057D01*
X136005314Y-85220914D01*
X136062457Y-85163771D01*
X136119600Y-85049485D01*
X136119600Y-84706628D01*
X136062457Y-84592342D01*
X136005314Y-84535200D01*
X135891028Y-84478057D01*
X135662457Y-84478057D01*
X135548171Y-84535200D01*
X147726200Y-115293714D02*
X147554771Y-115350857D01*
X147269057Y-115350857D01*
X147154771Y-115293714D01*
X147097628Y-115236571D01*
X147040485Y-115122285D01*
X147040485Y-115008000D01*
X147097628Y-114893714D01*
X147154771Y-114836571D01*
X147269057Y-114779428D01*
X147497628Y-114722285D01*
X147611914Y-114665142D01*
X147669057Y-114608000D01*
X147726200Y-114493714D01*
X147726200Y-114379428D01*
X147669057Y-114265142D01*
X147611914Y-114208000D01*
X147497628Y-114150857D01*
X147211914Y-114150857D01*
X147040485Y-114208000D01*
X145669057Y-114093714D02*
X146697628Y-115636571D01*
X145269057Y-115350857D02*
X145269057Y-114150857D01*
X144583342Y-115350857D01*
X144583342Y-114150857D01*
%TO.C,G\u002A\u002A\u002A*%
G36*
X141615196Y-87660659D02*
G01*
X141819886Y-87668818D01*
X142037504Y-87680777D01*
X142259476Y-87696257D01*
X142477229Y-87714975D01*
X142682187Y-87736652D01*
X142822016Y-87753130D01*
X142729753Y-87828564D01*
X142703188Y-87850323D01*
X142659002Y-87882475D01*
X142616247Y-87898241D01*
X142558962Y-87898898D01*
X142471189Y-87885725D01*
X142336965Y-87859997D01*
X142281443Y-87849380D01*
X142038527Y-87806305D01*
X141803025Y-87769580D01*
X141588562Y-87741057D01*
X141408762Y-87722585D01*
X141277248Y-87716016D01*
X141206575Y-87713396D01*
X141123906Y-87701881D01*
X141083681Y-87684306D01*
X141097184Y-87671648D01*
X141164427Y-87661796D01*
X141278892Y-87656868D01*
X141432007Y-87656582D01*
X141615196Y-87660659D01*
G37*
G36*
X145634792Y-89993911D02*
G01*
X145577977Y-90034672D01*
X145439399Y-90103921D01*
X145271212Y-90161972D01*
X145095042Y-90200546D01*
X145065971Y-90204574D01*
X144941971Y-90214929D01*
X144827385Y-90215226D01*
X144740031Y-90206030D01*
X144697726Y-90187909D01*
X144695419Y-90180423D01*
X144712645Y-90131834D01*
X144762800Y-90068995D01*
X144776789Y-90055302D01*
X144818354Y-90021684D01*
X144867728Y-89999075D01*
X144938802Y-89984154D01*
X145045470Y-89973600D01*
X145201626Y-89964090D01*
X145319253Y-89956764D01*
X145463376Y-89945252D01*
X145579512Y-89933119D01*
X145649974Y-89922025D01*
X145745105Y-89899176D01*
X145634792Y-89993911D01*
G37*
G36*
X142280167Y-88018502D02*
G01*
X142371730Y-88026183D01*
X142416066Y-88038938D01*
X142422881Y-88051226D01*
X142414243Y-88098601D01*
X142388104Y-88115854D01*
X142311789Y-88124218D01*
X142181168Y-88116791D01*
X142083237Y-88108972D01*
X141923275Y-88100251D01*
X141782895Y-88096766D01*
X141735565Y-88096371D01*
X141654222Y-88091519D01*
X141623398Y-88079183D01*
X141633900Y-88056903D01*
X141672474Y-88043358D01*
X141760800Y-88031173D01*
X141881691Y-88022228D01*
X142019188Y-88016891D01*
X142157333Y-88015526D01*
X142280167Y-88018502D01*
G37*
G36*
X144968201Y-89093755D02*
G01*
X144965059Y-89201211D01*
X144918892Y-89501345D01*
X144819093Y-89768721D01*
X144667572Y-90000844D01*
X144466237Y-90195223D01*
X144216997Y-90349364D01*
X143921759Y-90460774D01*
X143889648Y-90469340D01*
X143616614Y-90507747D01*
X143344162Y-90489461D01*
X143080663Y-90419320D01*
X142834485Y-90302161D01*
X142613997Y-90142820D01*
X142427570Y-89946136D01*
X142283573Y-89716946D01*
X142190374Y-89460086D01*
X142174619Y-89387992D01*
X142145550Y-89084288D01*
X142176455Y-88806398D01*
X143929427Y-88806398D01*
X143951263Y-88870787D01*
X143982998Y-88898136D01*
X144048600Y-88921010D01*
X144085675Y-88912855D01*
X144145937Y-88870787D01*
X144157580Y-88853617D01*
X144164477Y-88789180D01*
X144124207Y-88736622D01*
X144048600Y-88714893D01*
X144025118Y-88716685D01*
X143957989Y-88748716D01*
X143929427Y-88806398D01*
X142176455Y-88806398D01*
X142178006Y-88792449D01*
X142270761Y-88516449D01*
X142422589Y-88260262D01*
X142632263Y-88027862D01*
X142641587Y-88019386D01*
X142853633Y-87869481D01*
X143099556Y-87763847D01*
X143366750Y-87704199D01*
X143642609Y-87692255D01*
X143914527Y-87729734D01*
X144169896Y-87818353D01*
X144296608Y-87886463D01*
X144525826Y-88060587D01*
X144712302Y-88275901D01*
X144851329Y-88524882D01*
X144934779Y-88789180D01*
X144938198Y-88800007D01*
X144968201Y-89093755D01*
G37*
G36*
X142196126Y-87261966D02*
G01*
X142463418Y-87299090D01*
X142619583Y-87332178D01*
X142801080Y-87377787D01*
X142963476Y-87425991D01*
X143100731Y-87474140D01*
X143206805Y-87519586D01*
X143275657Y-87559680D01*
X143301246Y-87591775D01*
X143277533Y-87613221D01*
X143198477Y-87621371D01*
X143132939Y-87628849D01*
X143065579Y-87652748D01*
X143036742Y-87665873D01*
X142975430Y-87667983D01*
X142928186Y-87653865D01*
X142848588Y-87635148D01*
X142805426Y-87625792D01*
X142703877Y-87602211D01*
X142589924Y-87574473D01*
X142303060Y-87511107D01*
X141987045Y-87456051D01*
X141664337Y-87412653D01*
X141351708Y-87382839D01*
X141065930Y-87368535D01*
X140823773Y-87371666D01*
X140807089Y-87372603D01*
X140702003Y-87376748D01*
X140631029Y-87376472D01*
X140608744Y-87371770D01*
X140633392Y-87363920D01*
X140709683Y-87347321D01*
X140824261Y-87325476D01*
X140963783Y-87301042D01*
X141243067Y-87265070D01*
X141564787Y-87244984D01*
X141889528Y-87243940D01*
X142196126Y-87261966D01*
G37*
G36*
X142358217Y-90052202D02*
G01*
X142419098Y-90118475D01*
X142459662Y-90162954D01*
X142565821Y-90259607D01*
X142670404Y-90334504D01*
X142733823Y-90375067D01*
X142784496Y-90424712D01*
X142788670Y-90468874D01*
X142776370Y-90497753D01*
X142750789Y-90538239D01*
X142736492Y-90553602D01*
X142694633Y-90608500D01*
X142646356Y-90678356D01*
X142606506Y-90741289D01*
X142589924Y-90775413D01*
X142584280Y-90790367D01*
X142552736Y-90847151D01*
X142502720Y-90927321D01*
X142472616Y-90974181D01*
X142425243Y-91050489D01*
X142399662Y-91095381D01*
X142397956Y-91098685D01*
X142367683Y-91145783D01*
X142311860Y-91226120D01*
X142241110Y-91324357D01*
X142098413Y-91519411D01*
X141678251Y-91520336D01*
X141641003Y-91520308D01*
X141490968Y-91517812D01*
X141369364Y-91512002D01*
X141287851Y-91503627D01*
X141258088Y-91493432D01*
X141265791Y-91471904D01*
X141305654Y-91426129D01*
X141330960Y-91398794D01*
X141353220Y-91345613D01*
X141355131Y-91330399D01*
X141382588Y-91294002D01*
X141399276Y-91277317D01*
X141447440Y-91215077D01*
X141519209Y-91115387D01*
X141608171Y-90987206D01*
X141707915Y-90839487D01*
X141756804Y-90766387D01*
X141883661Y-90579998D01*
X141988133Y-90433073D01*
X142078400Y-90314742D01*
X142162642Y-90214136D01*
X142249037Y-90120383D01*
X142284346Y-90074720D01*
X142305151Y-90022945D01*
X142316833Y-90019272D01*
X142358217Y-90052202D01*
G37*
G36*
X145125808Y-89143951D02*
G01*
X145159168Y-89175454D01*
X145206029Y-89238114D01*
X145214069Y-89249744D01*
X145265517Y-89308979D01*
X145305695Y-89333154D01*
X145321479Y-89336677D01*
X145357993Y-89375078D01*
X145396434Y-89419430D01*
X145486395Y-89474777D01*
X145611578Y-89530944D01*
X145757373Y-89583274D01*
X145909173Y-89627107D01*
X146052369Y-89657783D01*
X146172354Y-89670644D01*
X146254520Y-89661029D01*
X146276825Y-89656035D01*
X146300036Y-89671162D01*
X146280317Y-89690208D01*
X146205685Y-89719521D01*
X146083360Y-89753043D01*
X145921746Y-89788526D01*
X145729250Y-89823725D01*
X145705852Y-89827447D01*
X145548732Y-89846481D01*
X145368915Y-89860929D01*
X145200855Y-89867910D01*
X144910289Y-89872321D01*
X144943387Y-89769262D01*
X144978347Y-89669060D01*
X145019908Y-89562069D01*
X145020452Y-89560758D01*
X145050884Y-89462438D01*
X145063765Y-89371807D01*
X145065191Y-89333533D01*
X145077670Y-89241638D01*
X145098578Y-89171158D01*
X145122523Y-89143074D01*
X145125808Y-89143951D01*
G37*
G36*
X140005529Y-91478082D02*
G01*
X140028299Y-91488350D01*
X140053095Y-91508797D01*
X140047837Y-91514475D01*
X140005529Y-91521260D01*
X139983663Y-91517800D01*
X139957964Y-91490545D01*
X139964697Y-91477423D01*
X140005529Y-91478082D01*
G37*
%TD*%
M02*
