%TF.GenerationSoftware,KiCad,Pcbnew,(6.0.8-1)-1*%
%TF.CreationDate,2024-02-06T23:44:39-06:00*%
%TF.ProjectId,openmv_can_shield,6f70656e-6d76-45f6-9361-6e5f73686965,rev?*%
%TF.SameCoordinates,Original*%
%TF.FileFunction,Copper,L2,Inr*%
%TF.FilePolarity,Positive*%
%FSLAX46Y46*%
G04 Gerber Fmt 4.6, Leading zero omitted, Abs format (unit mm)*
G04 Created by KiCad (PCBNEW (6.0.8-1)-1) date 2024-02-06 23:44:39*
%MOMM*%
%LPD*%
G01*
G04 APERTURE LIST*
%TA.AperFunction,ComponentPad*%
%ADD10C,1.700000*%
%TD*%
%TA.AperFunction,ComponentPad*%
%ADD11C,1.650000*%
%TD*%
%TA.AperFunction,ViaPad*%
%ADD12C,0.800000*%
%TD*%
%TA.AperFunction,Conductor*%
%ADD13C,0.250000*%
%TD*%
G04 APERTURE END LIST*
D10*
%TO.N,unconnected-(RT1-PadA1)*%
%TO.C,RT1*%
X125304800Y-82212800D03*
%TO.N,/CAN_TX*%
X125304800Y-84752800D03*
%TO.N,unconnected-(RT1-PadA3)*%
X125304800Y-87292800D03*
%TO.N,/CAN_RX*%
X125304800Y-89832800D03*
%TO.N,/SCL*%
X125304800Y-92372800D03*
%TO.N,/SDA*%
X125304800Y-94912800D03*
%TO.N,unconnected-(RT1-PadA7)*%
X125304800Y-97452800D03*
%TO.N,+3.3V*%
X125304800Y-99992800D03*
%TO.N,unconnected-(RT1-PadB1)*%
X127844800Y-82212800D03*
%TO.N,unconnected-(RT1-PadB2)*%
X127844800Y-84752800D03*
%TO.N,unconnected-(RT1-PadB3)*%
X127844800Y-87292800D03*
%TO.N,unconnected-(RT1-PadB4)*%
X127844800Y-89832800D03*
%TO.N,unconnected-(RT1-PadB5)*%
X127844800Y-92372800D03*
%TO.N,unconnected-(RT1-PadB6)*%
X127844800Y-94912800D03*
%TO.N,unconnected-(RT1-PadB7)*%
X127844800Y-97452800D03*
%TO.N,GND*%
X127844800Y-99992800D03*
%TO.N,unconnected-(RT1-PadC1)*%
X155164800Y-82212800D03*
%TO.N,unconnected-(RT1-PadC2)*%
X155164800Y-84752800D03*
%TO.N,unconnected-(RT1-PadC3)*%
X155164800Y-87292800D03*
%TO.N,unconnected-(RT1-PadC4)*%
X155164800Y-89832800D03*
%TO.N,unconnected-(RT1-PadC5)*%
X155164800Y-92372800D03*
%TO.N,unconnected-(RT1-PadC6)*%
X155164800Y-94912800D03*
%TO.N,unconnected-(RT1-PadC7)*%
X155164800Y-97452800D03*
%TO.N,+3.3V*%
X155164800Y-99992800D03*
%TO.N,unconnected-(RT1-PadD1)*%
X157704800Y-82212800D03*
%TO.N,unconnected-(RT1-PadD2)*%
X157704800Y-84752800D03*
%TO.N,unconnected-(RT1-PadD3)*%
X157704800Y-87292800D03*
%TO.N,unconnected-(RT1-PadD4)*%
X157704800Y-89832800D03*
%TO.N,unconnected-(RT1-PadD5)*%
X157704800Y-92372800D03*
%TO.N,unconnected-(RT1-PadD6)*%
X157704800Y-94912800D03*
%TO.N,+5V*%
X157704800Y-97452800D03*
%TO.N,GND*%
X157704800Y-99992800D03*
%TD*%
D11*
%TO.N,+BATT*%
%TO.C,J1*%
X131907400Y-105286800D03*
%TO.N,GND*%
X135407400Y-110286800D03*
%TD*%
%TO.N,/CAN_H*%
%TO.C,J3*%
X145852000Y-105337600D03*
%TO.N,/CAN_L*%
X149352000Y-110337600D03*
%TD*%
D10*
%TO.N,Net-(R1-Pad2)*%
%TO.C,U1*%
X132689600Y-83312000D03*
%TO.N,+12V*%
X132689600Y-85852000D03*
%TO.N,GND*%
X132689600Y-88392000D03*
%TO.N,+5V*%
X132689600Y-90932000D03*
%TD*%
D12*
%TO.N,GND*%
X137439400Y-100152200D03*
X150850600Y-92100400D03*
X138963400Y-100152200D03*
X126136400Y-102870000D03*
X156444800Y-111855400D03*
X140487400Y-100152200D03*
X156444800Y-110153600D03*
X149936200Y-98450400D03*
X148107400Y-98069400D03*
%TO.N,/CAN_TX*%
X150825200Y-96418400D03*
%TO.N,/CAN_RX*%
X145110200Y-98145600D03*
%TO.N,/SCL*%
X152323800Y-111420897D03*
%TO.N,/SDA*%
X152323800Y-112420400D03*
%TO.N,+12V*%
X123977400Y-110820200D03*
X124434600Y-107238800D03*
X133883400Y-99999800D03*
X132791200Y-99999800D03*
X123977400Y-109804200D03*
X124434600Y-108254800D03*
X131699000Y-99999800D03*
%TO.N,+BATT*%
X126365000Y-114274600D03*
%TD*%
D13*
%TO.N,/CAN_TX*%
X134315200Y-96418400D02*
X150825200Y-96418400D01*
X125304800Y-84752800D02*
X126556400Y-86004400D01*
X130327400Y-92430600D02*
X134315200Y-96418400D01*
X126556400Y-86004400D02*
X129184400Y-86004400D01*
X129184400Y-86004400D02*
X130327400Y-87147400D01*
X130327400Y-87147400D02*
X130327400Y-92430600D01*
%TO.N,/CAN_RX*%
X145059400Y-98145600D02*
X145110200Y-98145600D01*
X126556400Y-91084400D02*
X129311400Y-91084400D01*
X125304800Y-89832800D02*
X126556400Y-91084400D01*
X143782200Y-96868400D02*
X145059400Y-98145600D01*
X129877400Y-91650400D02*
X129877400Y-92616996D01*
X129877400Y-92616996D02*
X134128804Y-96868400D01*
X134128804Y-96868400D02*
X143782200Y-96868400D01*
X129311400Y-91084400D02*
X129877400Y-91650400D01*
%TO.N,/SCL*%
X150749000Y-112090200D02*
X147929600Y-112090200D01*
X126581800Y-93649800D02*
X125304800Y-92372800D01*
X151418303Y-111420897D02*
X150749000Y-112090200D01*
X152323800Y-111420897D02*
X151418303Y-111420897D01*
X129489200Y-93649800D02*
X126581800Y-93649800D01*
X147929600Y-112090200D02*
X129489200Y-93649800D01*
%TO.N,/SDA*%
X125304800Y-94912800D02*
X126581800Y-96189800D01*
X147751800Y-112725200D02*
X152019000Y-112725200D01*
X152019000Y-112725200D02*
X152323800Y-112420400D01*
X131216400Y-96189800D02*
X147751800Y-112725200D01*
X126581800Y-96189800D02*
X131216400Y-96189800D01*
%TD*%
%TA.AperFunction,Conductor*%
%TO.N,+5V*%
G36*
X159733021Y-80208302D02*
G01*
X159779514Y-80261958D01*
X159790900Y-80314300D01*
X159790900Y-116545300D01*
X159770898Y-116613421D01*
X159717242Y-116659914D01*
X159664900Y-116671300D01*
X123433900Y-116671300D01*
X123365779Y-116651298D01*
X123319286Y-116597642D01*
X123307900Y-116545300D01*
X123307900Y-114274600D01*
X125451496Y-114274600D01*
X125471458Y-114464528D01*
X125530473Y-114646156D01*
X125625960Y-114811544D01*
X125753747Y-114953466D01*
X125908248Y-115065718D01*
X125914276Y-115068402D01*
X125914278Y-115068403D01*
X126076681Y-115140709D01*
X126082712Y-115143394D01*
X126176112Y-115163247D01*
X126263056Y-115181728D01*
X126263061Y-115181728D01*
X126269513Y-115183100D01*
X126460487Y-115183100D01*
X126466939Y-115181728D01*
X126466944Y-115181728D01*
X126553888Y-115163247D01*
X126647288Y-115143394D01*
X126653319Y-115140709D01*
X126815722Y-115068403D01*
X126815724Y-115068402D01*
X126821752Y-115065718D01*
X126976253Y-114953466D01*
X127104040Y-114811544D01*
X127199527Y-114646156D01*
X127258542Y-114464528D01*
X127278504Y-114274600D01*
X127258542Y-114084672D01*
X127199527Y-113903044D01*
X127104040Y-113737656D01*
X126976253Y-113595734D01*
X126821752Y-113483482D01*
X126815724Y-113480798D01*
X126815722Y-113480797D01*
X126653319Y-113408491D01*
X126653318Y-113408491D01*
X126647288Y-113405806D01*
X126553887Y-113385953D01*
X126466944Y-113367472D01*
X126466939Y-113367472D01*
X126460487Y-113366100D01*
X126269513Y-113366100D01*
X126263061Y-113367472D01*
X126263056Y-113367472D01*
X126176112Y-113385953D01*
X126082712Y-113405806D01*
X126076682Y-113408491D01*
X126076681Y-113408491D01*
X125914278Y-113480797D01*
X125914276Y-113480798D01*
X125908248Y-113483482D01*
X125753747Y-113595734D01*
X125625960Y-113737656D01*
X125530473Y-113903044D01*
X125471458Y-114084672D01*
X125451496Y-114274600D01*
X123307900Y-114274600D01*
X123307900Y-111704036D01*
X123327902Y-111635915D01*
X123381558Y-111589422D01*
X123451832Y-111579318D01*
X123507961Y-111602100D01*
X123520648Y-111611318D01*
X123526676Y-111614002D01*
X123526678Y-111614003D01*
X123642280Y-111665472D01*
X123695112Y-111688994D01*
X123765879Y-111704036D01*
X123875456Y-111727328D01*
X123875461Y-111727328D01*
X123881913Y-111728700D01*
X124072887Y-111728700D01*
X124079339Y-111727328D01*
X124079344Y-111727328D01*
X124188921Y-111704036D01*
X124259688Y-111688994D01*
X124312520Y-111665472D01*
X124428122Y-111614003D01*
X124428124Y-111614002D01*
X124434152Y-111611318D01*
X124588653Y-111499066D01*
X124607512Y-111478121D01*
X124712021Y-111362052D01*
X124712022Y-111362051D01*
X124716440Y-111357144D01*
X124811927Y-111191756D01*
X124870942Y-111010128D01*
X124872189Y-110998270D01*
X124890214Y-110826765D01*
X124890904Y-110820200D01*
X124887588Y-110788649D01*
X124871632Y-110636835D01*
X124871632Y-110636833D01*
X124870942Y-110630272D01*
X124811927Y-110448644D01*
X124769524Y-110375200D01*
X124752786Y-110306205D01*
X124758484Y-110286800D01*
X134068806Y-110286800D01*
X134089142Y-110519244D01*
X134090566Y-110524557D01*
X134090566Y-110524559D01*
X134133510Y-110684826D01*
X134149533Y-110744626D01*
X134151855Y-110749606D01*
X134151856Y-110749608D01*
X134245818Y-110951110D01*
X134245821Y-110951115D01*
X134248144Y-110956097D01*
X134251300Y-110960604D01*
X134251301Y-110960606D01*
X134314045Y-111050213D01*
X134381978Y-111147232D01*
X134546968Y-111312222D01*
X134551476Y-111315379D01*
X134551479Y-111315381D01*
X134692796Y-111414332D01*
X134738103Y-111446056D01*
X134743085Y-111448379D01*
X134743090Y-111448382D01*
X134944592Y-111542344D01*
X134949574Y-111544667D01*
X134954882Y-111546089D01*
X134954884Y-111546090D01*
X135169641Y-111603634D01*
X135169643Y-111603634D01*
X135174956Y-111605058D01*
X135407400Y-111625394D01*
X135639844Y-111605058D01*
X135645157Y-111603634D01*
X135645159Y-111603634D01*
X135859916Y-111546090D01*
X135859918Y-111546089D01*
X135865226Y-111544667D01*
X135870208Y-111542344D01*
X136071710Y-111448382D01*
X136071715Y-111448379D01*
X136076697Y-111446056D01*
X136122004Y-111414332D01*
X136263321Y-111315381D01*
X136263324Y-111315379D01*
X136267832Y-111312222D01*
X136432822Y-111147232D01*
X136500756Y-111050213D01*
X136563499Y-110960606D01*
X136563500Y-110960604D01*
X136566656Y-110956097D01*
X136568979Y-110951115D01*
X136568982Y-110951110D01*
X136662944Y-110749608D01*
X136662945Y-110749606D01*
X136665267Y-110744626D01*
X136681291Y-110684826D01*
X136724234Y-110524559D01*
X136724234Y-110524557D01*
X136725658Y-110519244D01*
X136745994Y-110286800D01*
X136725658Y-110054356D01*
X136709520Y-109994128D01*
X136666690Y-109834284D01*
X136666689Y-109834282D01*
X136665267Y-109828974D01*
X136653715Y-109804200D01*
X136568982Y-109622490D01*
X136568979Y-109622485D01*
X136566656Y-109617503D01*
X136563499Y-109612994D01*
X136435981Y-109430879D01*
X136435979Y-109430876D01*
X136432822Y-109426368D01*
X136267832Y-109261378D01*
X136263324Y-109258221D01*
X136263321Y-109258219D01*
X136081206Y-109130701D01*
X136081204Y-109130700D01*
X136076697Y-109127544D01*
X136071715Y-109125221D01*
X136071710Y-109125218D01*
X135870208Y-109031256D01*
X135870206Y-109031255D01*
X135865226Y-109028933D01*
X135859918Y-109027511D01*
X135859916Y-109027510D01*
X135645159Y-108969966D01*
X135645157Y-108969966D01*
X135639844Y-108968542D01*
X135407400Y-108948206D01*
X135174956Y-108968542D01*
X135169643Y-108969966D01*
X135169641Y-108969966D01*
X134954884Y-109027510D01*
X134954882Y-109027511D01*
X134949574Y-109028933D01*
X134944594Y-109031255D01*
X134944592Y-109031256D01*
X134743090Y-109125218D01*
X134743085Y-109125221D01*
X134738103Y-109127544D01*
X134733596Y-109130700D01*
X134733594Y-109130701D01*
X134551479Y-109258219D01*
X134551476Y-109258221D01*
X134546968Y-109261378D01*
X134381978Y-109426368D01*
X134378821Y-109430876D01*
X134378819Y-109430879D01*
X134251301Y-109612994D01*
X134248144Y-109617503D01*
X134245821Y-109622485D01*
X134245818Y-109622490D01*
X134161085Y-109804200D01*
X134149533Y-109828974D01*
X134148111Y-109834282D01*
X134148110Y-109834284D01*
X134105280Y-109994128D01*
X134089142Y-110054356D01*
X134068806Y-110286800D01*
X124758484Y-110286800D01*
X124769524Y-110249200D01*
X124808623Y-110181479D01*
X124808624Y-110181478D01*
X124811927Y-110175756D01*
X124870942Y-109994128D01*
X124890904Y-109804200D01*
X124870942Y-109614272D01*
X124811927Y-109432644D01*
X124720518Y-109274319D01*
X124703780Y-109205325D01*
X124727000Y-109138233D01*
X124778388Y-109096213D01*
X124885322Y-109048603D01*
X124885324Y-109048602D01*
X124891352Y-109045918D01*
X124911533Y-109031256D01*
X124983228Y-108979166D01*
X125045853Y-108933666D01*
X125173640Y-108791744D01*
X125269127Y-108626356D01*
X125328142Y-108444728D01*
X125348104Y-108254800D01*
X125347414Y-108248235D01*
X125328832Y-108071435D01*
X125328832Y-108071433D01*
X125328142Y-108064872D01*
X125269127Y-107883244D01*
X125226724Y-107809800D01*
X125209986Y-107740805D01*
X125226724Y-107683800D01*
X125265823Y-107616079D01*
X125265824Y-107616078D01*
X125269127Y-107610356D01*
X125328142Y-107428728D01*
X125348104Y-107238800D01*
X125347414Y-107232235D01*
X125328832Y-107055435D01*
X125328832Y-107055433D01*
X125328142Y-107048872D01*
X125269127Y-106867244D01*
X125173640Y-106701856D01*
X125104794Y-106625394D01*
X125050275Y-106564845D01*
X125050274Y-106564844D01*
X125045853Y-106559934D01*
X124891352Y-106447682D01*
X124885324Y-106444998D01*
X124885322Y-106444997D01*
X124722919Y-106372691D01*
X124722918Y-106372691D01*
X124716888Y-106370006D01*
X124623488Y-106350153D01*
X124536544Y-106331672D01*
X124536539Y-106331672D01*
X124530087Y-106330300D01*
X124339113Y-106330300D01*
X124332661Y-106331672D01*
X124332656Y-106331672D01*
X124245712Y-106350153D01*
X124152312Y-106370006D01*
X124146282Y-106372691D01*
X124146281Y-106372691D01*
X123983878Y-106444997D01*
X123983876Y-106444998D01*
X123977848Y-106447682D01*
X123823347Y-106559934D01*
X123818926Y-106564844D01*
X123818925Y-106564845D01*
X123764407Y-106625394D01*
X123695560Y-106701856D01*
X123600073Y-106867244D01*
X123598031Y-106873529D01*
X123553733Y-107009863D01*
X123513659Y-107068469D01*
X123448263Y-107096106D01*
X123378306Y-107083999D01*
X123326000Y-107035993D01*
X123307900Y-106970927D01*
X123307900Y-105286800D01*
X130568806Y-105286800D01*
X130589142Y-105519244D01*
X130649533Y-105744626D01*
X130651855Y-105749606D01*
X130651856Y-105749608D01*
X130745818Y-105951110D01*
X130745821Y-105951115D01*
X130748144Y-105956097D01*
X130751300Y-105960604D01*
X130751301Y-105960606D01*
X130786872Y-106011406D01*
X130881978Y-106147232D01*
X131046968Y-106312222D01*
X131051476Y-106315379D01*
X131051479Y-106315381D01*
X131233594Y-106442899D01*
X131238103Y-106446056D01*
X131243085Y-106448379D01*
X131243090Y-106448382D01*
X131444592Y-106542344D01*
X131449574Y-106544667D01*
X131454882Y-106546089D01*
X131454884Y-106546090D01*
X131669641Y-106603634D01*
X131669643Y-106603634D01*
X131674956Y-106605058D01*
X131907400Y-106625394D01*
X132139844Y-106605058D01*
X132145157Y-106603634D01*
X132145159Y-106603634D01*
X132359916Y-106546090D01*
X132359918Y-106546089D01*
X132365226Y-106544667D01*
X132370208Y-106542344D01*
X132571710Y-106448382D01*
X132571715Y-106448379D01*
X132576697Y-106446056D01*
X132581206Y-106442899D01*
X132763321Y-106315381D01*
X132763324Y-106315379D01*
X132767832Y-106312222D01*
X132932822Y-106147232D01*
X133027929Y-106011406D01*
X133063499Y-105960606D01*
X133063500Y-105960604D01*
X133066656Y-105956097D01*
X133068979Y-105951115D01*
X133068982Y-105951110D01*
X133162944Y-105749608D01*
X133162945Y-105749606D01*
X133165267Y-105744626D01*
X133225658Y-105519244D01*
X133245994Y-105286800D01*
X133225658Y-105054356D01*
X133165267Y-104828974D01*
X133088242Y-104663794D01*
X133068982Y-104622490D01*
X133068979Y-104622485D01*
X133066656Y-104617503D01*
X132971551Y-104481679D01*
X132935981Y-104430879D01*
X132935979Y-104430876D01*
X132932822Y-104426368D01*
X132767832Y-104261378D01*
X132763324Y-104258221D01*
X132763321Y-104258219D01*
X132581206Y-104130701D01*
X132581204Y-104130700D01*
X132576697Y-104127544D01*
X132571715Y-104125221D01*
X132571710Y-104125218D01*
X132370208Y-104031256D01*
X132370206Y-104031255D01*
X132365226Y-104028933D01*
X132359918Y-104027511D01*
X132359916Y-104027510D01*
X132145159Y-103969966D01*
X132145157Y-103969966D01*
X132139844Y-103968542D01*
X131907400Y-103948206D01*
X131674956Y-103968542D01*
X131669643Y-103969966D01*
X131669641Y-103969966D01*
X131454884Y-104027510D01*
X131454882Y-104027511D01*
X131449574Y-104028933D01*
X131444594Y-104031255D01*
X131444592Y-104031256D01*
X131243090Y-104125218D01*
X131243085Y-104125221D01*
X131238103Y-104127544D01*
X131233596Y-104130700D01*
X131233594Y-104130701D01*
X131051479Y-104258219D01*
X131051476Y-104258221D01*
X131046968Y-104261378D01*
X130881978Y-104426368D01*
X130878821Y-104430876D01*
X130878819Y-104430879D01*
X130843249Y-104481679D01*
X130748144Y-104617503D01*
X130745821Y-104622485D01*
X130745818Y-104622490D01*
X130726558Y-104663794D01*
X130649533Y-104828974D01*
X130589142Y-105054356D01*
X130568806Y-105286800D01*
X123307900Y-105286800D01*
X123307900Y-102870000D01*
X125222896Y-102870000D01*
X125242858Y-103059928D01*
X125301873Y-103241556D01*
X125397360Y-103406944D01*
X125525147Y-103548866D01*
X125679648Y-103661118D01*
X125685676Y-103663802D01*
X125685678Y-103663803D01*
X125848081Y-103736109D01*
X125854112Y-103738794D01*
X125947512Y-103758647D01*
X126034456Y-103777128D01*
X126034461Y-103777128D01*
X126040913Y-103778500D01*
X126231887Y-103778500D01*
X126238339Y-103777128D01*
X126238344Y-103777128D01*
X126325287Y-103758647D01*
X126418688Y-103738794D01*
X126424719Y-103736109D01*
X126587122Y-103663803D01*
X126587124Y-103663802D01*
X126593152Y-103661118D01*
X126747653Y-103548866D01*
X126875440Y-103406944D01*
X126970927Y-103241556D01*
X127029942Y-103059928D01*
X127049904Y-102870000D01*
X127029942Y-102680072D01*
X126970927Y-102498444D01*
X126875440Y-102333056D01*
X126747653Y-102191134D01*
X126593152Y-102078882D01*
X126587124Y-102076198D01*
X126587122Y-102076197D01*
X126424719Y-102003891D01*
X126424718Y-102003891D01*
X126418688Y-102001206D01*
X126325287Y-101981353D01*
X126238344Y-101962872D01*
X126238339Y-101962872D01*
X126231887Y-101961500D01*
X126040913Y-101961500D01*
X126034461Y-101962872D01*
X126034456Y-101962872D01*
X125947512Y-101981353D01*
X125854112Y-102001206D01*
X125848082Y-102003891D01*
X125848081Y-102003891D01*
X125685678Y-102076197D01*
X125685676Y-102076198D01*
X125679648Y-102078882D01*
X125525147Y-102191134D01*
X125397360Y-102333056D01*
X125301873Y-102498444D01*
X125242858Y-102680072D01*
X125222896Y-102870000D01*
X123307900Y-102870000D01*
X123307900Y-99959495D01*
X123942051Y-99959495D01*
X123942348Y-99964648D01*
X123942348Y-99964651D01*
X123953162Y-100152200D01*
X123954910Y-100182515D01*
X123956047Y-100187561D01*
X123956048Y-100187567D01*
X123957950Y-100196006D01*
X124004022Y-100400439D01*
X124088066Y-100607416D01*
X124128721Y-100673759D01*
X124202091Y-100793488D01*
X124204787Y-100797888D01*
X124351050Y-100966738D01*
X124522926Y-101109432D01*
X124715800Y-101222138D01*
X124924492Y-101301830D01*
X124929560Y-101302861D01*
X124929563Y-101302862D01*
X125036817Y-101324683D01*
X125143397Y-101346367D01*
X125148572Y-101346557D01*
X125148574Y-101346557D01*
X125361473Y-101354364D01*
X125361477Y-101354364D01*
X125366637Y-101354553D01*
X125371757Y-101353897D01*
X125371759Y-101353897D01*
X125583088Y-101326825D01*
X125583089Y-101326825D01*
X125588216Y-101326168D01*
X125593166Y-101324683D01*
X125797229Y-101263461D01*
X125797234Y-101263459D01*
X125802184Y-101261974D01*
X126002794Y-101163696D01*
X126184660Y-101033973D01*
X126197685Y-101020994D01*
X126339235Y-100879937D01*
X126342896Y-100876289D01*
X126348426Y-100868594D01*
X126473253Y-100694877D01*
X126474576Y-100695828D01*
X126521445Y-100652657D01*
X126591380Y-100640425D01*
X126656826Y-100667944D01*
X126684675Y-100699794D01*
X126744787Y-100797888D01*
X126891050Y-100966738D01*
X127062926Y-101109432D01*
X127255800Y-101222138D01*
X127464492Y-101301830D01*
X127469560Y-101302861D01*
X127469563Y-101302862D01*
X127576817Y-101324683D01*
X127683397Y-101346367D01*
X127688572Y-101346557D01*
X127688574Y-101346557D01*
X127901473Y-101354364D01*
X127901477Y-101354364D01*
X127906637Y-101354553D01*
X127911757Y-101353897D01*
X127911759Y-101353897D01*
X128123088Y-101326825D01*
X128123089Y-101326825D01*
X128128216Y-101326168D01*
X128133166Y-101324683D01*
X128337229Y-101263461D01*
X128337234Y-101263459D01*
X128342184Y-101261974D01*
X128542794Y-101163696D01*
X128724660Y-101033973D01*
X128737685Y-101020994D01*
X128879235Y-100879937D01*
X128882896Y-100876289D01*
X128888426Y-100868594D01*
X129010235Y-100699077D01*
X129013253Y-100694877D01*
X129016087Y-100689144D01*
X129109936Y-100499253D01*
X129109937Y-100499251D01*
X129112230Y-100494611D01*
X129177170Y-100280869D01*
X129206329Y-100059390D01*
X129207956Y-99992800D01*
X129189652Y-99770161D01*
X129135231Y-99553502D01*
X129046154Y-99348640D01*
X129003065Y-99282034D01*
X128927622Y-99165417D01*
X128927620Y-99165414D01*
X128924814Y-99161077D01*
X128774470Y-98995851D01*
X128770419Y-98992652D01*
X128770415Y-98992648D01*
X128603214Y-98860600D01*
X128603210Y-98860598D01*
X128599159Y-98857398D01*
X128557853Y-98834596D01*
X128507884Y-98784164D01*
X128493112Y-98714721D01*
X128518228Y-98648316D01*
X128545580Y-98621709D01*
X128609910Y-98575823D01*
X128724660Y-98493973D01*
X128882896Y-98336289D01*
X128942394Y-98253489D01*
X129010235Y-98159077D01*
X129013253Y-98154877D01*
X129015674Y-98149980D01*
X129109936Y-97959253D01*
X129109937Y-97959251D01*
X129112230Y-97954611D01*
X129167853Y-97771534D01*
X129175665Y-97745823D01*
X129175665Y-97745821D01*
X129177170Y-97740869D01*
X129206329Y-97519390D01*
X129206412Y-97516012D01*
X129207874Y-97456165D01*
X129207874Y-97456161D01*
X129207956Y-97452800D01*
X129189652Y-97230161D01*
X129135231Y-97013502D01*
X129129162Y-96999544D01*
X129120340Y-96929099D01*
X129151005Y-96865066D01*
X129211420Y-96827777D01*
X129244710Y-96823300D01*
X130901806Y-96823300D01*
X130969927Y-96843302D01*
X130990901Y-96860205D01*
X133011726Y-98881030D01*
X133045752Y-98943342D01*
X133040687Y-99014157D01*
X132998140Y-99070993D01*
X132931620Y-99095804D01*
X132896432Y-99093371D01*
X132893148Y-99092673D01*
X132893145Y-99092673D01*
X132886687Y-99091300D01*
X132695713Y-99091300D01*
X132689261Y-99092672D01*
X132689256Y-99092672D01*
X132602312Y-99111153D01*
X132508912Y-99131006D01*
X132502882Y-99133691D01*
X132502881Y-99133691D01*
X132340478Y-99205997D01*
X132340476Y-99205998D01*
X132334448Y-99208682D01*
X132329104Y-99212564D01*
X132329105Y-99212564D01*
X132319162Y-99219788D01*
X132252295Y-99243647D01*
X132183143Y-99227568D01*
X132171038Y-99219788D01*
X132161095Y-99212564D01*
X132161096Y-99212564D01*
X132155752Y-99208682D01*
X132149724Y-99205998D01*
X132149722Y-99205997D01*
X131987319Y-99133691D01*
X131987318Y-99133691D01*
X131981288Y-99131006D01*
X131887887Y-99111153D01*
X131800944Y-99092672D01*
X131800939Y-99092672D01*
X131794487Y-99091300D01*
X131603513Y-99091300D01*
X131597061Y-99092672D01*
X131597056Y-99092672D01*
X131510112Y-99111153D01*
X131416712Y-99131006D01*
X131410682Y-99133691D01*
X131410681Y-99133691D01*
X131248278Y-99205997D01*
X131248276Y-99205998D01*
X131242248Y-99208682D01*
X131087747Y-99320934D01*
X131083326Y-99325844D01*
X131083325Y-99325845D01*
X131051598Y-99361082D01*
X130959960Y-99462856D01*
X130951075Y-99478245D01*
X130871972Y-99615256D01*
X130864473Y-99628244D01*
X130805458Y-99809872D01*
X130804768Y-99816433D01*
X130804768Y-99816435D01*
X130786584Y-99989446D01*
X130785496Y-99999800D01*
X130805458Y-100189728D01*
X130864473Y-100371356D01*
X130867776Y-100377078D01*
X130867777Y-100377079D01*
X130881264Y-100400439D01*
X130959960Y-100536744D01*
X131087747Y-100678666D01*
X131116827Y-100699794D01*
X131210205Y-100767637D01*
X131242248Y-100790918D01*
X131248276Y-100793602D01*
X131248278Y-100793603D01*
X131410681Y-100865909D01*
X131416712Y-100868594D01*
X131510113Y-100888447D01*
X131597056Y-100906928D01*
X131597061Y-100906928D01*
X131603513Y-100908300D01*
X131794487Y-100908300D01*
X131800939Y-100906928D01*
X131800944Y-100906928D01*
X131887887Y-100888447D01*
X131981288Y-100868594D01*
X131987319Y-100865909D01*
X132149722Y-100793603D01*
X132149724Y-100793602D01*
X132155752Y-100790918D01*
X132171038Y-100779812D01*
X132237905Y-100755953D01*
X132307057Y-100772032D01*
X132319161Y-100779811D01*
X132334448Y-100790918D01*
X132340476Y-100793602D01*
X132340478Y-100793603D01*
X132502881Y-100865909D01*
X132508912Y-100868594D01*
X132602313Y-100888447D01*
X132689256Y-100906928D01*
X132689261Y-100906928D01*
X132695713Y-100908300D01*
X132886687Y-100908300D01*
X132893139Y-100906928D01*
X132893144Y-100906928D01*
X132980087Y-100888447D01*
X133073488Y-100868594D01*
X133079519Y-100865909D01*
X133241922Y-100793603D01*
X133241924Y-100793602D01*
X133247952Y-100790918D01*
X133263238Y-100779812D01*
X133330105Y-100755953D01*
X133399257Y-100772032D01*
X133411361Y-100779811D01*
X133426648Y-100790918D01*
X133432676Y-100793602D01*
X133432678Y-100793603D01*
X133595081Y-100865909D01*
X133601112Y-100868594D01*
X133694513Y-100888447D01*
X133781456Y-100906928D01*
X133781461Y-100906928D01*
X133787913Y-100908300D01*
X133978887Y-100908300D01*
X133985339Y-100906928D01*
X133985344Y-100906928D01*
X134072287Y-100888447D01*
X134165688Y-100868594D01*
X134171719Y-100865909D01*
X134334122Y-100793603D01*
X134334124Y-100793602D01*
X134340152Y-100790918D01*
X134372196Y-100767637D01*
X134465573Y-100699794D01*
X134494653Y-100678666D01*
X134554917Y-100611736D01*
X134615364Y-100574497D01*
X134686347Y-100575849D01*
X134737648Y-100606952D01*
X140997939Y-106867244D01*
X147248148Y-113117453D01*
X147255688Y-113125739D01*
X147259800Y-113132218D01*
X147265577Y-113137643D01*
X147309451Y-113178843D01*
X147312293Y-113181598D01*
X147332030Y-113201335D01*
X147335227Y-113203815D01*
X147344247Y-113211518D01*
X147376479Y-113241786D01*
X147383425Y-113245605D01*
X147383428Y-113245607D01*
X147394234Y-113251548D01*
X147410753Y-113262399D01*
X147426759Y-113274814D01*
X147434028Y-113277959D01*
X147434032Y-113277962D01*
X147467337Y-113292374D01*
X147477987Y-113297591D01*
X147516740Y-113318895D01*
X147524415Y-113320866D01*
X147524416Y-113320866D01*
X147536362Y-113323933D01*
X147555067Y-113330337D01*
X147573655Y-113338381D01*
X147581478Y-113339620D01*
X147581488Y-113339623D01*
X147617324Y-113345299D01*
X147628944Y-113347705D01*
X147660759Y-113355873D01*
X147671770Y-113358700D01*
X147692024Y-113358700D01*
X147711734Y-113360251D01*
X147731743Y-113363420D01*
X147739635Y-113362674D01*
X147758380Y-113360902D01*
X147775762Y-113359259D01*
X147787619Y-113358700D01*
X151940233Y-113358700D01*
X151951416Y-113359227D01*
X151958909Y-113360902D01*
X151966835Y-113360653D01*
X151966836Y-113360653D01*
X152026986Y-113358762D01*
X152030945Y-113358700D01*
X152058856Y-113358700D01*
X152062791Y-113358203D01*
X152062856Y-113358195D01*
X152074693Y-113357262D01*
X152106951Y-113356248D01*
X152110970Y-113356122D01*
X152118889Y-113355873D01*
X152138343Y-113350221D01*
X152157700Y-113346213D01*
X152169930Y-113344668D01*
X152169931Y-113344668D01*
X152177797Y-113343674D01*
X152185166Y-113340756D01*
X152185171Y-113340755D01*
X152192763Y-113337749D01*
X152239148Y-113328900D01*
X152419287Y-113328900D01*
X152425739Y-113327528D01*
X152425744Y-113327528D01*
X152512687Y-113309047D01*
X152606088Y-113289194D01*
X152631316Y-113277962D01*
X152774522Y-113214203D01*
X152774524Y-113214202D01*
X152780552Y-113211518D01*
X152791232Y-113203759D01*
X152882232Y-113137643D01*
X152935053Y-113099266D01*
X153062840Y-112957344D01*
X153158327Y-112791956D01*
X153217342Y-112610328D01*
X153237304Y-112420400D01*
X153217342Y-112230472D01*
X153158327Y-112048844D01*
X153120686Y-111983648D01*
X153103948Y-111914653D01*
X153120685Y-111857650D01*
X153121984Y-111855400D01*
X155531296Y-111855400D01*
X155551258Y-112045328D01*
X155610273Y-112226956D01*
X155705760Y-112392344D01*
X155710178Y-112397251D01*
X155710179Y-112397252D01*
X155731022Y-112420400D01*
X155833547Y-112534266D01*
X155988048Y-112646518D01*
X155994076Y-112649202D01*
X155994078Y-112649203D01*
X156156481Y-112721509D01*
X156162512Y-112724194D01*
X156255913Y-112744047D01*
X156342856Y-112762528D01*
X156342861Y-112762528D01*
X156349313Y-112763900D01*
X156540287Y-112763900D01*
X156546739Y-112762528D01*
X156546744Y-112762528D01*
X156633687Y-112744047D01*
X156727088Y-112724194D01*
X156733119Y-112721509D01*
X156895522Y-112649203D01*
X156895524Y-112649202D01*
X156901552Y-112646518D01*
X157056053Y-112534266D01*
X157158578Y-112420400D01*
X157179421Y-112397252D01*
X157179422Y-112397251D01*
X157183840Y-112392344D01*
X157279327Y-112226956D01*
X157338342Y-112045328D01*
X157358304Y-111855400D01*
X157351028Y-111786168D01*
X157339032Y-111672035D01*
X157339032Y-111672033D01*
X157338342Y-111665472D01*
X157279327Y-111483844D01*
X157183840Y-111318456D01*
X157120571Y-111248188D01*
X157060475Y-111181445D01*
X157060474Y-111181444D01*
X157056053Y-111176534D01*
X156959572Y-111106436D01*
X156916218Y-111050213D01*
X156910143Y-110979477D01*
X156943275Y-110916686D01*
X156959572Y-110902564D01*
X157009888Y-110866007D01*
X157056053Y-110832466D01*
X157068450Y-110818698D01*
X157179421Y-110695452D01*
X157179422Y-110695451D01*
X157183840Y-110690544D01*
X157279327Y-110525156D01*
X157338342Y-110343528D01*
X157339541Y-110332125D01*
X157357614Y-110160165D01*
X157358304Y-110153600D01*
X157338342Y-109963672D01*
X157279327Y-109782044D01*
X157183840Y-109616656D01*
X157056053Y-109474734D01*
X156901552Y-109362482D01*
X156895524Y-109359798D01*
X156895522Y-109359797D01*
X156733119Y-109287491D01*
X156733118Y-109287491D01*
X156727088Y-109284806D01*
X156616869Y-109261378D01*
X156546744Y-109246472D01*
X156546739Y-109246472D01*
X156540287Y-109245100D01*
X156349313Y-109245100D01*
X156342861Y-109246472D01*
X156342856Y-109246472D01*
X156272731Y-109261378D01*
X156162512Y-109284806D01*
X156156482Y-109287491D01*
X156156481Y-109287491D01*
X155994078Y-109359797D01*
X155994076Y-109359798D01*
X155988048Y-109362482D01*
X155833547Y-109474734D01*
X155705760Y-109616656D01*
X155610273Y-109782044D01*
X155551258Y-109963672D01*
X155531296Y-110153600D01*
X155531986Y-110160165D01*
X155550060Y-110332125D01*
X155551258Y-110343528D01*
X155610273Y-110525156D01*
X155705760Y-110690544D01*
X155710178Y-110695451D01*
X155710179Y-110695452D01*
X155821150Y-110818698D01*
X155833547Y-110832466D01*
X155879712Y-110866007D01*
X155930028Y-110902564D01*
X155973382Y-110958787D01*
X155979457Y-111029523D01*
X155946325Y-111092314D01*
X155930028Y-111106436D01*
X155833547Y-111176534D01*
X155829126Y-111181444D01*
X155829125Y-111181445D01*
X155769030Y-111248188D01*
X155705760Y-111318456D01*
X155610273Y-111483844D01*
X155551258Y-111665472D01*
X155550568Y-111672033D01*
X155550568Y-111672035D01*
X155538572Y-111786168D01*
X155531296Y-111855400D01*
X153121984Y-111855400D01*
X153158327Y-111792453D01*
X153217342Y-111610825D01*
X153220654Y-111579318D01*
X153236614Y-111427462D01*
X153237304Y-111420897D01*
X153217342Y-111230969D01*
X153158327Y-111049341D01*
X153062840Y-110883953D01*
X153046682Y-110866007D01*
X152939475Y-110746942D01*
X152939474Y-110746941D01*
X152935053Y-110742031D01*
X152780552Y-110629779D01*
X152774524Y-110627095D01*
X152774522Y-110627094D01*
X152612119Y-110554788D01*
X152612118Y-110554788D01*
X152606088Y-110552103D01*
X152512688Y-110532250D01*
X152425744Y-110513769D01*
X152425739Y-110513769D01*
X152419287Y-110512397D01*
X152228313Y-110512397D01*
X152221861Y-110513769D01*
X152221856Y-110513769D01*
X152134912Y-110532250D01*
X152041512Y-110552103D01*
X152035482Y-110554788D01*
X152035481Y-110554788D01*
X151873078Y-110627094D01*
X151873076Y-110627095D01*
X151867048Y-110629779D01*
X151861707Y-110633659D01*
X151861706Y-110633660D01*
X151783412Y-110690544D01*
X151712547Y-110742031D01*
X151708132Y-110746934D01*
X151703220Y-110751357D01*
X151702095Y-110750108D01*
X151648786Y-110782948D01*
X151615600Y-110787397D01*
X151497066Y-110787397D01*
X151485882Y-110786870D01*
X151478394Y-110785196D01*
X151470471Y-110785445D01*
X151410336Y-110787335D01*
X151406378Y-110787397D01*
X151378447Y-110787397D01*
X151374532Y-110787892D01*
X151374528Y-110787892D01*
X151374470Y-110787900D01*
X151374441Y-110787903D01*
X151362599Y-110788836D01*
X151318413Y-110790224D01*
X151301047Y-110795269D01*
X151298961Y-110795875D01*
X151279609Y-110799883D01*
X151267371Y-110801429D01*
X151267369Y-110801430D01*
X151259506Y-110802423D01*
X151218389Y-110818703D01*
X151207188Y-110822538D01*
X151164709Y-110834879D01*
X151157890Y-110838912D01*
X151157885Y-110838914D01*
X151147274Y-110845190D01*
X151129524Y-110853887D01*
X151110686Y-110861345D01*
X151104270Y-110866006D01*
X151104269Y-110866007D01*
X151074928Y-110887325D01*
X151065004Y-110893844D01*
X151033763Y-110912319D01*
X151033758Y-110912323D01*
X151026940Y-110916355D01*
X151012616Y-110930679D01*
X150997584Y-110943518D01*
X150981196Y-110955425D01*
X150953015Y-110989490D01*
X150945025Y-110998270D01*
X150523500Y-111419795D01*
X150461188Y-111453821D01*
X150434405Y-111456700D01*
X150422944Y-111456700D01*
X150354823Y-111436698D01*
X150308330Y-111383042D01*
X150298226Y-111312768D01*
X150327720Y-111248188D01*
X150333849Y-111241605D01*
X150377422Y-111198032D01*
X150381817Y-111191756D01*
X150508099Y-111011406D01*
X150508100Y-111011404D01*
X150511256Y-111006897D01*
X150513579Y-111001915D01*
X150513582Y-111001910D01*
X150607544Y-110800408D01*
X150607545Y-110800406D01*
X150609867Y-110795426D01*
X150612019Y-110787397D01*
X150668834Y-110575359D01*
X150668834Y-110575357D01*
X150670258Y-110570044D01*
X150690594Y-110337600D01*
X150670258Y-110105156D01*
X150634106Y-109970235D01*
X150611290Y-109885084D01*
X150611289Y-109885082D01*
X150609867Y-109879774D01*
X150588655Y-109834284D01*
X150513582Y-109673290D01*
X150513579Y-109673285D01*
X150511256Y-109668303D01*
X150508099Y-109663794D01*
X150380581Y-109481679D01*
X150380579Y-109481676D01*
X150377422Y-109477168D01*
X150212432Y-109312178D01*
X150207924Y-109309021D01*
X150207921Y-109309019D01*
X150025806Y-109181501D01*
X150025804Y-109181500D01*
X150021297Y-109178344D01*
X150016315Y-109176021D01*
X150016310Y-109176018D01*
X149814808Y-109082056D01*
X149814806Y-109082055D01*
X149809826Y-109079733D01*
X149804518Y-109078311D01*
X149804516Y-109078310D01*
X149589759Y-109020766D01*
X149589757Y-109020766D01*
X149584444Y-109019342D01*
X149352000Y-108999006D01*
X149119556Y-109019342D01*
X149114243Y-109020766D01*
X149114241Y-109020766D01*
X148899484Y-109078310D01*
X148899482Y-109078311D01*
X148894174Y-109079733D01*
X148889194Y-109082055D01*
X148889192Y-109082056D01*
X148687690Y-109176018D01*
X148687685Y-109176021D01*
X148682703Y-109178344D01*
X148678196Y-109181500D01*
X148678194Y-109181501D01*
X148496079Y-109309019D01*
X148496076Y-109309021D01*
X148491568Y-109312178D01*
X148326578Y-109477168D01*
X148323421Y-109481676D01*
X148323419Y-109481679D01*
X148195901Y-109663794D01*
X148192744Y-109668303D01*
X148190421Y-109673285D01*
X148190418Y-109673290D01*
X148115345Y-109834284D01*
X148094133Y-109879774D01*
X148092711Y-109885082D01*
X148092710Y-109885084D01*
X148069894Y-109970235D01*
X148033742Y-110105156D01*
X148013406Y-110337600D01*
X148033742Y-110570044D01*
X148035166Y-110575357D01*
X148035166Y-110575359D01*
X148091982Y-110787397D01*
X148094133Y-110795426D01*
X148096455Y-110800406D01*
X148096456Y-110800408D01*
X148190418Y-111001910D01*
X148190421Y-111001915D01*
X148192744Y-111006897D01*
X148195900Y-111011404D01*
X148195901Y-111011406D01*
X148322184Y-111191756D01*
X148326578Y-111198032D01*
X148370151Y-111241605D01*
X148404177Y-111303917D01*
X148399112Y-111374732D01*
X148356565Y-111431568D01*
X148290045Y-111456379D01*
X148281056Y-111456700D01*
X148244194Y-111456700D01*
X148176073Y-111436698D01*
X148155099Y-111419795D01*
X142072904Y-105337600D01*
X144513406Y-105337600D01*
X144533742Y-105570044D01*
X144594133Y-105795426D01*
X144596455Y-105800406D01*
X144596456Y-105800408D01*
X144690418Y-106001910D01*
X144690421Y-106001915D01*
X144692744Y-106006897D01*
X144695900Y-106011404D01*
X144695901Y-106011406D01*
X144791008Y-106147232D01*
X144826578Y-106198032D01*
X144991568Y-106363022D01*
X144996076Y-106366179D01*
X144996079Y-106366181D01*
X145178194Y-106493699D01*
X145182703Y-106496856D01*
X145187685Y-106499179D01*
X145187690Y-106499182D01*
X145328505Y-106564845D01*
X145394174Y-106595467D01*
X145399482Y-106596889D01*
X145399484Y-106596890D01*
X145614241Y-106654434D01*
X145614243Y-106654434D01*
X145619556Y-106655858D01*
X145852000Y-106676194D01*
X146084444Y-106655858D01*
X146089757Y-106654434D01*
X146089759Y-106654434D01*
X146304516Y-106596890D01*
X146304518Y-106596889D01*
X146309826Y-106595467D01*
X146375495Y-106564845D01*
X146516310Y-106499182D01*
X146516315Y-106499179D01*
X146521297Y-106496856D01*
X146525806Y-106493699D01*
X146707921Y-106366181D01*
X146707924Y-106366179D01*
X146712432Y-106363022D01*
X146877422Y-106198032D01*
X146912993Y-106147232D01*
X147008099Y-106011406D01*
X147008100Y-106011404D01*
X147011256Y-106006897D01*
X147013579Y-106001915D01*
X147013582Y-106001910D01*
X147107544Y-105800408D01*
X147107545Y-105800406D01*
X147109867Y-105795426D01*
X147170258Y-105570044D01*
X147190594Y-105337600D01*
X147170258Y-105105156D01*
X147109867Y-104879774D01*
X147088655Y-104834284D01*
X147013582Y-104673290D01*
X147013579Y-104673285D01*
X147011256Y-104668303D01*
X147008099Y-104663794D01*
X146880581Y-104481679D01*
X146880579Y-104481676D01*
X146877422Y-104477168D01*
X146712432Y-104312178D01*
X146707924Y-104309021D01*
X146707921Y-104309019D01*
X146525806Y-104181501D01*
X146525804Y-104181500D01*
X146521297Y-104178344D01*
X146516315Y-104176021D01*
X146516310Y-104176018D01*
X146314808Y-104082056D01*
X146314806Y-104082055D01*
X146309826Y-104079733D01*
X146304518Y-104078311D01*
X146304516Y-104078310D01*
X146089759Y-104020766D01*
X146089757Y-104020766D01*
X146084444Y-104019342D01*
X145852000Y-103999006D01*
X145619556Y-104019342D01*
X145614243Y-104020766D01*
X145614241Y-104020766D01*
X145399484Y-104078310D01*
X145399482Y-104078311D01*
X145394174Y-104079733D01*
X145389194Y-104082055D01*
X145389192Y-104082056D01*
X145187690Y-104176018D01*
X145187685Y-104176021D01*
X145182703Y-104178344D01*
X145178196Y-104181500D01*
X145178194Y-104181501D01*
X144996079Y-104309019D01*
X144996076Y-104309021D01*
X144991568Y-104312178D01*
X144826578Y-104477168D01*
X144823421Y-104481676D01*
X144823419Y-104481679D01*
X144695901Y-104663794D01*
X144692744Y-104668303D01*
X144690421Y-104673285D01*
X144690418Y-104673290D01*
X144615345Y-104834284D01*
X144594133Y-104879774D01*
X144533742Y-105105156D01*
X144513406Y-105337600D01*
X142072904Y-105337600D01*
X137873850Y-101138546D01*
X137839824Y-101076234D01*
X137844889Y-101005419D01*
X137887436Y-100948583D01*
X137893891Y-100944324D01*
X137896152Y-100943318D01*
X138050653Y-100831066D01*
X138107765Y-100767636D01*
X138168210Y-100730398D01*
X138239194Y-100731750D01*
X138295034Y-100767636D01*
X138352147Y-100831066D01*
X138506648Y-100943318D01*
X138512676Y-100946002D01*
X138512678Y-100946003D01*
X138675081Y-101018309D01*
X138681112Y-101020994D01*
X138774513Y-101040847D01*
X138861456Y-101059328D01*
X138861461Y-101059328D01*
X138867913Y-101060700D01*
X139058887Y-101060700D01*
X139065339Y-101059328D01*
X139065344Y-101059328D01*
X139152287Y-101040847D01*
X139245688Y-101020994D01*
X139251719Y-101018309D01*
X139414122Y-100946003D01*
X139414124Y-100946002D01*
X139420152Y-100943318D01*
X139574653Y-100831066D01*
X139631765Y-100767636D01*
X139692210Y-100730398D01*
X139763194Y-100731750D01*
X139819034Y-100767636D01*
X139876147Y-100831066D01*
X140030648Y-100943318D01*
X140036676Y-100946002D01*
X140036678Y-100946003D01*
X140199081Y-101018309D01*
X140205112Y-101020994D01*
X140298513Y-101040847D01*
X140385456Y-101059328D01*
X140385461Y-101059328D01*
X140391913Y-101060700D01*
X140582887Y-101060700D01*
X140589339Y-101059328D01*
X140589344Y-101059328D01*
X140676287Y-101040847D01*
X140769688Y-101020994D01*
X140775719Y-101018309D01*
X140938122Y-100946003D01*
X140938124Y-100946002D01*
X140944152Y-100943318D01*
X141098653Y-100831066D01*
X141132385Y-100793603D01*
X141222021Y-100694052D01*
X141222022Y-100694051D01*
X141226440Y-100689144D01*
X141311595Y-100541652D01*
X141318623Y-100529479D01*
X141318624Y-100529478D01*
X141321927Y-100523756D01*
X141380942Y-100342128D01*
X141397650Y-100183165D01*
X141400214Y-100158765D01*
X141400904Y-100152200D01*
X141380942Y-99962272D01*
X141380040Y-99959495D01*
X153802051Y-99959495D01*
X153802348Y-99964648D01*
X153802348Y-99964651D01*
X153813162Y-100152200D01*
X153814910Y-100182515D01*
X153816047Y-100187561D01*
X153816048Y-100187567D01*
X153817950Y-100196006D01*
X153864022Y-100400439D01*
X153948066Y-100607416D01*
X153988721Y-100673759D01*
X154062091Y-100793488D01*
X154064787Y-100797888D01*
X154211050Y-100966738D01*
X154382926Y-101109432D01*
X154575800Y-101222138D01*
X154784492Y-101301830D01*
X154789560Y-101302861D01*
X154789563Y-101302862D01*
X154896817Y-101324683D01*
X155003397Y-101346367D01*
X155008572Y-101346557D01*
X155008574Y-101346557D01*
X155221473Y-101354364D01*
X155221477Y-101354364D01*
X155226637Y-101354553D01*
X155231757Y-101353897D01*
X155231759Y-101353897D01*
X155443088Y-101326825D01*
X155443089Y-101326825D01*
X155448216Y-101326168D01*
X155453166Y-101324683D01*
X155657229Y-101263461D01*
X155657234Y-101263459D01*
X155662184Y-101261974D01*
X155862794Y-101163696D01*
X156044660Y-101033973D01*
X156057685Y-101020994D01*
X156199235Y-100879937D01*
X156202896Y-100876289D01*
X156208426Y-100868594D01*
X156333253Y-100694877D01*
X156334576Y-100695828D01*
X156381445Y-100652657D01*
X156451380Y-100640425D01*
X156516826Y-100667944D01*
X156544675Y-100699794D01*
X156604787Y-100797888D01*
X156751050Y-100966738D01*
X156922926Y-101109432D01*
X157115800Y-101222138D01*
X157324492Y-101301830D01*
X157329560Y-101302861D01*
X157329563Y-101302862D01*
X157436817Y-101324683D01*
X157543397Y-101346367D01*
X157548572Y-101346557D01*
X157548574Y-101346557D01*
X157761473Y-101354364D01*
X157761477Y-101354364D01*
X157766637Y-101354553D01*
X157771757Y-101353897D01*
X157771759Y-101353897D01*
X157983088Y-101326825D01*
X157983089Y-101326825D01*
X157988216Y-101326168D01*
X157993166Y-101324683D01*
X158197229Y-101263461D01*
X158197234Y-101263459D01*
X158202184Y-101261974D01*
X158402794Y-101163696D01*
X158584660Y-101033973D01*
X158597685Y-101020994D01*
X158739235Y-100879937D01*
X158742896Y-100876289D01*
X158748426Y-100868594D01*
X158870235Y-100699077D01*
X158873253Y-100694877D01*
X158876087Y-100689144D01*
X158969936Y-100499253D01*
X158969937Y-100499251D01*
X158972230Y-100494611D01*
X159037170Y-100280869D01*
X159066329Y-100059390D01*
X159067956Y-99992800D01*
X159049652Y-99770161D01*
X158995231Y-99553502D01*
X158906154Y-99348640D01*
X158863065Y-99282034D01*
X158787622Y-99165417D01*
X158787620Y-99165414D01*
X158784814Y-99161077D01*
X158634470Y-98995851D01*
X158630419Y-98992652D01*
X158630415Y-98992648D01*
X158463214Y-98860600D01*
X158463210Y-98860598D01*
X158459159Y-98857398D01*
X158417369Y-98834329D01*
X158367398Y-98783897D01*
X158352626Y-98714454D01*
X158377742Y-98648048D01*
X158405093Y-98621442D01*
X158454047Y-98586523D01*
X158462448Y-98575823D01*
X158455460Y-98562670D01*
X157717612Y-97824822D01*
X157703668Y-97817208D01*
X157701835Y-97817339D01*
X157695220Y-97821590D01*
X156951537Y-98565273D01*
X156944777Y-98577653D01*
X156950058Y-98584707D01*
X156996769Y-98612003D01*
X157045493Y-98663641D01*
X157058564Y-98733424D01*
X157031833Y-98799196D01*
X156991384Y-98832552D01*
X156978407Y-98839307D01*
X156974274Y-98842410D01*
X156974271Y-98842412D01*
X156845091Y-98939403D01*
X156799765Y-98973435D01*
X156760850Y-99014157D01*
X156649187Y-99131006D01*
X156645429Y-99134938D01*
X156538001Y-99292421D01*
X156483093Y-99337421D01*
X156412568Y-99345592D01*
X156348821Y-99314338D01*
X156328124Y-99289854D01*
X156247622Y-99165417D01*
X156247620Y-99165414D01*
X156244814Y-99161077D01*
X156094470Y-98995851D01*
X156090419Y-98992652D01*
X156090415Y-98992648D01*
X155923214Y-98860600D01*
X155923210Y-98860598D01*
X155919159Y-98857398D01*
X155877853Y-98834596D01*
X155827884Y-98784164D01*
X155813112Y-98714721D01*
X155838228Y-98648316D01*
X155865580Y-98621709D01*
X155929910Y-98575823D01*
X156044660Y-98493973D01*
X156202896Y-98336289D01*
X156262394Y-98253489D01*
X156333253Y-98154877D01*
X156334440Y-98155730D01*
X156381760Y-98112162D01*
X156451697Y-98099945D01*
X156517138Y-98127478D01*
X156544966Y-98159312D01*
X156571259Y-98202219D01*
X156581716Y-98211680D01*
X156590494Y-98207896D01*
X157332778Y-97465612D01*
X157339156Y-97453932D01*
X158069208Y-97453932D01*
X158069339Y-97455765D01*
X158073590Y-97462380D01*
X158815274Y-98204064D01*
X158827284Y-98210623D01*
X158839023Y-98201655D01*
X158869804Y-98158819D01*
X158875115Y-98149980D01*
X158969470Y-97959067D01*
X158973269Y-97949472D01*
X159035176Y-97745715D01*
X159037355Y-97735634D01*
X159065390Y-97522687D01*
X159065909Y-97516012D01*
X159067372Y-97456164D01*
X159067178Y-97449446D01*
X159049581Y-97235404D01*
X159047896Y-97225224D01*
X158996014Y-97018675D01*
X158992694Y-97008924D01*
X158907772Y-96813614D01*
X158902905Y-96804539D01*
X158837863Y-96703997D01*
X158827177Y-96694795D01*
X158817612Y-96699198D01*
X158076822Y-97439988D01*
X158069208Y-97453932D01*
X157339156Y-97453932D01*
X157340392Y-97451668D01*
X157340261Y-97449835D01*
X157336010Y-97443220D01*
X156594649Y-96701859D01*
X156583113Y-96695559D01*
X156570831Y-96705182D01*
X156538299Y-96752872D01*
X156483387Y-96797875D01*
X156412863Y-96806046D01*
X156349116Y-96774792D01*
X156328418Y-96750308D01*
X156247622Y-96625417D01*
X156247620Y-96625414D01*
X156244814Y-96621077D01*
X156094470Y-96455851D01*
X156090419Y-96452652D01*
X156090415Y-96452648D01*
X155923214Y-96320600D01*
X155923210Y-96320598D01*
X155919159Y-96317398D01*
X155877853Y-96294596D01*
X155827884Y-96244164D01*
X155813112Y-96174721D01*
X155838228Y-96108316D01*
X155865580Y-96081709D01*
X155922482Y-96041121D01*
X156044660Y-95953973D01*
X156202896Y-95796289D01*
X156237875Y-95747611D01*
X156333253Y-95614877D01*
X156334576Y-95615828D01*
X156381445Y-95572657D01*
X156451380Y-95560425D01*
X156516826Y-95587944D01*
X156544675Y-95619794D01*
X156604787Y-95717888D01*
X156751050Y-95886738D01*
X156922926Y-96029432D01*
X156963479Y-96053129D01*
X156996755Y-96072574D01*
X157045479Y-96124212D01*
X157058550Y-96193995D01*
X157031819Y-96259767D01*
X156991362Y-96293127D01*
X156983260Y-96297344D01*
X156974534Y-96302839D01*
X156954477Y-96317899D01*
X156946023Y-96329227D01*
X156952768Y-96341558D01*
X157691988Y-97080778D01*
X157705932Y-97088392D01*
X157707765Y-97088261D01*
X157714380Y-97084010D01*
X158458189Y-96340201D01*
X158465210Y-96327344D01*
X158458411Y-96318013D01*
X158454359Y-96315321D01*
X158417402Y-96294920D01*
X158367431Y-96244487D01*
X158352659Y-96175045D01*
X158377775Y-96108639D01*
X158405127Y-96082032D01*
X158428597Y-96065291D01*
X158584660Y-95953973D01*
X158742896Y-95796289D01*
X158777875Y-95747611D01*
X158870235Y-95619077D01*
X158873253Y-95614877D01*
X158894120Y-95572657D01*
X158969936Y-95419253D01*
X158969937Y-95419251D01*
X158972230Y-95414611D01*
X159037170Y-95200869D01*
X159066329Y-94979390D01*
X159067956Y-94912800D01*
X159049652Y-94690161D01*
X158995231Y-94473502D01*
X158906154Y-94268640D01*
X158784814Y-94081077D01*
X158634470Y-93915851D01*
X158630419Y-93912652D01*
X158630415Y-93912648D01*
X158463214Y-93780600D01*
X158463210Y-93780598D01*
X158459159Y-93777398D01*
X158417853Y-93754596D01*
X158367884Y-93704164D01*
X158353112Y-93634721D01*
X158378228Y-93568316D01*
X158405580Y-93541709D01*
X158449403Y-93510450D01*
X158584660Y-93413973D01*
X158742896Y-93256289D01*
X158802394Y-93173489D01*
X158870235Y-93079077D01*
X158873253Y-93074877D01*
X158894120Y-93032657D01*
X158969936Y-92879253D01*
X158969937Y-92879251D01*
X158972230Y-92874611D01*
X159020151Y-92716885D01*
X159035665Y-92665823D01*
X159035665Y-92665821D01*
X159037170Y-92660869D01*
X159066329Y-92439390D01*
X159067956Y-92372800D01*
X159049652Y-92150161D01*
X158995231Y-91933502D01*
X158906154Y-91728640D01*
X158847529Y-91638019D01*
X158787622Y-91545417D01*
X158787620Y-91545414D01*
X158784814Y-91541077D01*
X158634470Y-91375851D01*
X158630419Y-91372652D01*
X158630415Y-91372648D01*
X158463214Y-91240600D01*
X158463210Y-91240598D01*
X158459159Y-91237398D01*
X158417853Y-91214596D01*
X158367884Y-91164164D01*
X158353112Y-91094721D01*
X158378228Y-91028316D01*
X158405580Y-91001709D01*
X158449403Y-90970450D01*
X158584660Y-90873973D01*
X158742896Y-90716289D01*
X158802394Y-90633489D01*
X158870235Y-90539077D01*
X158873253Y-90534877D01*
X158883143Y-90514867D01*
X158969936Y-90339253D01*
X158969937Y-90339251D01*
X158972230Y-90334611D01*
X159037170Y-90120869D01*
X159066329Y-89899390D01*
X159067956Y-89832800D01*
X159049652Y-89610161D01*
X158995231Y-89393502D01*
X158906154Y-89188640D01*
X158847696Y-89098277D01*
X158787622Y-89005417D01*
X158787620Y-89005414D01*
X158784814Y-89001077D01*
X158634470Y-88835851D01*
X158630419Y-88832652D01*
X158630415Y-88832648D01*
X158463214Y-88700600D01*
X158463210Y-88700598D01*
X158459159Y-88697398D01*
X158417853Y-88674596D01*
X158367884Y-88624164D01*
X158353112Y-88554721D01*
X158378228Y-88488316D01*
X158405580Y-88461709D01*
X158449403Y-88430450D01*
X158584660Y-88333973D01*
X158742896Y-88176289D01*
X158802394Y-88093489D01*
X158870235Y-87999077D01*
X158873253Y-87994877D01*
X158894120Y-87952657D01*
X158969936Y-87799253D01*
X158969937Y-87799251D01*
X158972230Y-87794611D01*
X159037170Y-87580869D01*
X159066329Y-87359390D01*
X159067956Y-87292800D01*
X159049652Y-87070161D01*
X158995231Y-86853502D01*
X158906154Y-86648640D01*
X158847696Y-86558277D01*
X158787622Y-86465417D01*
X158787620Y-86465414D01*
X158784814Y-86461077D01*
X158634470Y-86295851D01*
X158630419Y-86292652D01*
X158630415Y-86292648D01*
X158463214Y-86160600D01*
X158463210Y-86160598D01*
X158459159Y-86157398D01*
X158417853Y-86134596D01*
X158367884Y-86084164D01*
X158353112Y-86014721D01*
X158378228Y-85948316D01*
X158405580Y-85921709D01*
X158449403Y-85890450D01*
X158584660Y-85793973D01*
X158742896Y-85636289D01*
X158802394Y-85553489D01*
X158870235Y-85459077D01*
X158873253Y-85454877D01*
X158883143Y-85434867D01*
X158969936Y-85259253D01*
X158969937Y-85259251D01*
X158972230Y-85254611D01*
X159037170Y-85040869D01*
X159066329Y-84819390D01*
X159067956Y-84752800D01*
X159049652Y-84530161D01*
X158995231Y-84313502D01*
X158906154Y-84108640D01*
X158847696Y-84018277D01*
X158787622Y-83925417D01*
X158787620Y-83925414D01*
X158784814Y-83921077D01*
X158634470Y-83755851D01*
X158630419Y-83752652D01*
X158630415Y-83752648D01*
X158463214Y-83620600D01*
X158463210Y-83620598D01*
X158459159Y-83617398D01*
X158417853Y-83594596D01*
X158367884Y-83544164D01*
X158353112Y-83474721D01*
X158378228Y-83408316D01*
X158405580Y-83381709D01*
X158449403Y-83350450D01*
X158584660Y-83253973D01*
X158742896Y-83096289D01*
X158802394Y-83013489D01*
X158870235Y-82919077D01*
X158873253Y-82914877D01*
X158894120Y-82872657D01*
X158969936Y-82719253D01*
X158969937Y-82719251D01*
X158972230Y-82714611D01*
X159037170Y-82500869D01*
X159066329Y-82279390D01*
X159067956Y-82212800D01*
X159049652Y-81990161D01*
X158995231Y-81773502D01*
X158906154Y-81568640D01*
X158784814Y-81381077D01*
X158634470Y-81215851D01*
X158630419Y-81212652D01*
X158630415Y-81212648D01*
X158463214Y-81080600D01*
X158463210Y-81080598D01*
X158459159Y-81077398D01*
X158263589Y-80969438D01*
X158258720Y-80967714D01*
X158258716Y-80967712D01*
X158057887Y-80896595D01*
X158057883Y-80896594D01*
X158053012Y-80894869D01*
X158047919Y-80893962D01*
X158047916Y-80893961D01*
X157838173Y-80856600D01*
X157838167Y-80856599D01*
X157833084Y-80855694D01*
X157759252Y-80854792D01*
X157614881Y-80853028D01*
X157614879Y-80853028D01*
X157609711Y-80852965D01*
X157388891Y-80886755D01*
X157176556Y-80956157D01*
X156978407Y-81059307D01*
X156974274Y-81062410D01*
X156974271Y-81062412D01*
X156950047Y-81080600D01*
X156799765Y-81193435D01*
X156645429Y-81354938D01*
X156538001Y-81512421D01*
X156483093Y-81557421D01*
X156412568Y-81565592D01*
X156348821Y-81534338D01*
X156328124Y-81509854D01*
X156247622Y-81385417D01*
X156247620Y-81385414D01*
X156244814Y-81381077D01*
X156094470Y-81215851D01*
X156090419Y-81212652D01*
X156090415Y-81212648D01*
X155923214Y-81080600D01*
X155923210Y-81080598D01*
X155919159Y-81077398D01*
X155723589Y-80969438D01*
X155718720Y-80967714D01*
X155718716Y-80967712D01*
X155517887Y-80896595D01*
X155517883Y-80896594D01*
X155513012Y-80894869D01*
X155507919Y-80893962D01*
X155507916Y-80893961D01*
X155298173Y-80856600D01*
X155298167Y-80856599D01*
X155293084Y-80855694D01*
X155219252Y-80854792D01*
X155074881Y-80853028D01*
X155074879Y-80853028D01*
X155069711Y-80852965D01*
X154848891Y-80886755D01*
X154636556Y-80956157D01*
X154438407Y-81059307D01*
X154434274Y-81062410D01*
X154434271Y-81062412D01*
X154410047Y-81080600D01*
X154259765Y-81193435D01*
X154105429Y-81354938D01*
X153979543Y-81539480D01*
X153885488Y-81742105D01*
X153825789Y-81957370D01*
X153802051Y-82179495D01*
X153802348Y-82184648D01*
X153802348Y-82184651D01*
X153807811Y-82279390D01*
X153814910Y-82402515D01*
X153816047Y-82407561D01*
X153816048Y-82407567D01*
X153826544Y-82454138D01*
X153864022Y-82620439D01*
X153948066Y-82827416D01*
X153998819Y-82910238D01*
X154062091Y-83013488D01*
X154064787Y-83017888D01*
X154211050Y-83186738D01*
X154382926Y-83329432D01*
X154453395Y-83370611D01*
X154456245Y-83372276D01*
X154504969Y-83423914D01*
X154518040Y-83493697D01*
X154491309Y-83559469D01*
X154450855Y-83592827D01*
X154438407Y-83599307D01*
X154434274Y-83602410D01*
X154434271Y-83602412D01*
X154271765Y-83724425D01*
X154259765Y-83733435D01*
X154105429Y-83894938D01*
X154102520Y-83899203D01*
X154102514Y-83899211D01*
X154027322Y-84009438D01*
X153979543Y-84079480D01*
X153885488Y-84282105D01*
X153825789Y-84497370D01*
X153802051Y-84719495D01*
X153802348Y-84724648D01*
X153802348Y-84724651D01*
X153807811Y-84819390D01*
X153814910Y-84942515D01*
X153816047Y-84947561D01*
X153816048Y-84947567D01*
X153826544Y-84994138D01*
X153864022Y-85160439D01*
X153948066Y-85367416D01*
X153998819Y-85450238D01*
X154062091Y-85553488D01*
X154064787Y-85557888D01*
X154211050Y-85726738D01*
X154382926Y-85869432D01*
X154453395Y-85910611D01*
X154456245Y-85912276D01*
X154504969Y-85963914D01*
X154518040Y-86033697D01*
X154491309Y-86099469D01*
X154450855Y-86132827D01*
X154438407Y-86139307D01*
X154434274Y-86142410D01*
X154434271Y-86142412D01*
X154271765Y-86264425D01*
X154259765Y-86273435D01*
X154105429Y-86434938D01*
X154102520Y-86439203D01*
X154102514Y-86439211D01*
X154027322Y-86549438D01*
X153979543Y-86619480D01*
X153964128Y-86652689D01*
X153898491Y-86794093D01*
X153885488Y-86822105D01*
X153825789Y-87037370D01*
X153802051Y-87259495D01*
X153802348Y-87264648D01*
X153802348Y-87264651D01*
X153807811Y-87359390D01*
X153814910Y-87482515D01*
X153816047Y-87487561D01*
X153816048Y-87487567D01*
X153826544Y-87534138D01*
X153864022Y-87700439D01*
X153948066Y-87907416D01*
X153998819Y-87990238D01*
X154062091Y-88093488D01*
X154064787Y-88097888D01*
X154211050Y-88266738D01*
X154382926Y-88409432D01*
X154453395Y-88450611D01*
X154456245Y-88452276D01*
X154504969Y-88503914D01*
X154518040Y-88573697D01*
X154491309Y-88639469D01*
X154450855Y-88672827D01*
X154438407Y-88679307D01*
X154434274Y-88682410D01*
X154434271Y-88682412D01*
X154271765Y-88804425D01*
X154259765Y-88813435D01*
X154105429Y-88974938D01*
X154102520Y-88979203D01*
X154102514Y-88979211D01*
X154027322Y-89089438D01*
X153979543Y-89159480D01*
X153885488Y-89362105D01*
X153825789Y-89577370D01*
X153802051Y-89799495D01*
X153802348Y-89804648D01*
X153802348Y-89804651D01*
X153807811Y-89899390D01*
X153814910Y-90022515D01*
X153816047Y-90027561D01*
X153816048Y-90027567D01*
X153835919Y-90115739D01*
X153864022Y-90240439D01*
X153948066Y-90447416D01*
X153989400Y-90514867D01*
X154062091Y-90633488D01*
X154064787Y-90637888D01*
X154211050Y-90806738D01*
X154382926Y-90949432D01*
X154453395Y-90990611D01*
X154456245Y-90992276D01*
X154504969Y-91043914D01*
X154518040Y-91113697D01*
X154491309Y-91179469D01*
X154450855Y-91212827D01*
X154447000Y-91214834D01*
X154438407Y-91219307D01*
X154434274Y-91222410D01*
X154434271Y-91222412D01*
X154325577Y-91304022D01*
X154259765Y-91353435D01*
X154105429Y-91514938D01*
X153979543Y-91699480D01*
X153885488Y-91902105D01*
X153825789Y-92117370D01*
X153802051Y-92339495D01*
X153802348Y-92344648D01*
X153802348Y-92344651D01*
X153810018Y-92477679D01*
X153814910Y-92562515D01*
X153816047Y-92567561D01*
X153816048Y-92567567D01*
X153829432Y-92626954D01*
X153864022Y-92780439D01*
X153911173Y-92896559D01*
X153939577Y-92966509D01*
X153948066Y-92987416D01*
X153998819Y-93070238D01*
X154062091Y-93173488D01*
X154064787Y-93177888D01*
X154211050Y-93346738D01*
X154382926Y-93489432D01*
X154453395Y-93530611D01*
X154456245Y-93532276D01*
X154504969Y-93583914D01*
X154518040Y-93653697D01*
X154491309Y-93719469D01*
X154450855Y-93752827D01*
X154438407Y-93759307D01*
X154434274Y-93762410D01*
X154434271Y-93762412D01*
X154410047Y-93780600D01*
X154259765Y-93893435D01*
X154105429Y-94054938D01*
X153979543Y-94239480D01*
X153963803Y-94273390D01*
X153900268Y-94410265D01*
X153885488Y-94442105D01*
X153825789Y-94657370D01*
X153802051Y-94879495D01*
X153802348Y-94884648D01*
X153802348Y-94884651D01*
X153807811Y-94979390D01*
X153814910Y-95102515D01*
X153816047Y-95107561D01*
X153816048Y-95107567D01*
X153835919Y-95195739D01*
X153864022Y-95320439D01*
X153901350Y-95412368D01*
X153941511Y-95511272D01*
X153948066Y-95527416D01*
X153998819Y-95610238D01*
X154062091Y-95713488D01*
X154064787Y-95717888D01*
X154211050Y-95886738D01*
X154382926Y-96029432D01*
X154412723Y-96046844D01*
X154456245Y-96072276D01*
X154504969Y-96123914D01*
X154518040Y-96193697D01*
X154491309Y-96259469D01*
X154450855Y-96292827D01*
X154438407Y-96299307D01*
X154434274Y-96302410D01*
X154434271Y-96302412D01*
X154271046Y-96424965D01*
X154259765Y-96433435D01*
X154105429Y-96594938D01*
X153979543Y-96779480D01*
X153885488Y-96982105D01*
X153825789Y-97197370D01*
X153802051Y-97419495D01*
X153802348Y-97424648D01*
X153802348Y-97424651D01*
X153808001Y-97522687D01*
X153814910Y-97642515D01*
X153816047Y-97647561D01*
X153816048Y-97647567D01*
X153835919Y-97735739D01*
X153864022Y-97860439D01*
X153948066Y-98067416D01*
X153991954Y-98139035D01*
X154062091Y-98253488D01*
X154064787Y-98257888D01*
X154211050Y-98426738D01*
X154382926Y-98569432D01*
X154403602Y-98581514D01*
X154456245Y-98612276D01*
X154504969Y-98663914D01*
X154518040Y-98733697D01*
X154491309Y-98799469D01*
X154450855Y-98832827D01*
X154438407Y-98839307D01*
X154434274Y-98842410D01*
X154434271Y-98842412D01*
X154305091Y-98939403D01*
X154259765Y-98973435D01*
X154220850Y-99014157D01*
X154109187Y-99131006D01*
X154105429Y-99134938D01*
X154102520Y-99139203D01*
X154102514Y-99139211D01*
X154032725Y-99241518D01*
X153979543Y-99319480D01*
X153961245Y-99358900D01*
X153908127Y-99473334D01*
X153885488Y-99522105D01*
X153825789Y-99737370D01*
X153802051Y-99959495D01*
X141380040Y-99959495D01*
X141321927Y-99780644D01*
X141308417Y-99757243D01*
X141237567Y-99634529D01*
X141226440Y-99615256D01*
X141188078Y-99572650D01*
X141103075Y-99478245D01*
X141103071Y-99478241D01*
X141098653Y-99473334D01*
X140944152Y-99361082D01*
X140938124Y-99358398D01*
X140938122Y-99358397D01*
X140775719Y-99286091D01*
X140775718Y-99286091D01*
X140769688Y-99283406D01*
X140676288Y-99263553D01*
X140589344Y-99245072D01*
X140589339Y-99245072D01*
X140582887Y-99243700D01*
X140391913Y-99243700D01*
X140385461Y-99245072D01*
X140385456Y-99245072D01*
X140298512Y-99263553D01*
X140205112Y-99283406D01*
X140199082Y-99286091D01*
X140199081Y-99286091D01*
X140036678Y-99358397D01*
X140036676Y-99358398D01*
X140030648Y-99361082D01*
X139876147Y-99473334D01*
X139819035Y-99536764D01*
X139758590Y-99574002D01*
X139687606Y-99572650D01*
X139631766Y-99536764D01*
X139574653Y-99473334D01*
X139420152Y-99361082D01*
X139414124Y-99358398D01*
X139414122Y-99358397D01*
X139251719Y-99286091D01*
X139251718Y-99286091D01*
X139245688Y-99283406D01*
X139152288Y-99263553D01*
X139065344Y-99245072D01*
X139065339Y-99245072D01*
X139058887Y-99243700D01*
X138867913Y-99243700D01*
X138861461Y-99245072D01*
X138861456Y-99245072D01*
X138774512Y-99263553D01*
X138681112Y-99283406D01*
X138675082Y-99286091D01*
X138675081Y-99286091D01*
X138512678Y-99358397D01*
X138512676Y-99358398D01*
X138506648Y-99361082D01*
X138352147Y-99473334D01*
X138295035Y-99536764D01*
X138234590Y-99574002D01*
X138163606Y-99572650D01*
X138107766Y-99536764D01*
X138050653Y-99473334D01*
X137896152Y-99361082D01*
X137890124Y-99358398D01*
X137890122Y-99358397D01*
X137727719Y-99286091D01*
X137727718Y-99286091D01*
X137721688Y-99283406D01*
X137628288Y-99263553D01*
X137541344Y-99245072D01*
X137541339Y-99245072D01*
X137534887Y-99243700D01*
X137343913Y-99243700D01*
X137337461Y-99245072D01*
X137337456Y-99245072D01*
X137250512Y-99263553D01*
X137157112Y-99283406D01*
X137151082Y-99286091D01*
X137151081Y-99286091D01*
X136988678Y-99358397D01*
X136988676Y-99358398D01*
X136982648Y-99361082D01*
X136828147Y-99473334D01*
X136823729Y-99478241D01*
X136823725Y-99478245D01*
X136738723Y-99572650D01*
X136700360Y-99615256D01*
X136689233Y-99634529D01*
X136654427Y-99694814D01*
X136603044Y-99743807D01*
X136533331Y-99757243D01*
X136467420Y-99730857D01*
X136456213Y-99720909D01*
X134452300Y-97716995D01*
X134418274Y-97654683D01*
X134423339Y-97583867D01*
X134465886Y-97527032D01*
X134532406Y-97502221D01*
X134541395Y-97501900D01*
X143467606Y-97501900D01*
X143535727Y-97521902D01*
X143556701Y-97538805D01*
X144169044Y-98151148D01*
X144203070Y-98213460D01*
X144205259Y-98227071D01*
X144216658Y-98335528D01*
X144275673Y-98517156D01*
X144278976Y-98522878D01*
X144278977Y-98522879D01*
X144309544Y-98575823D01*
X144371160Y-98682544D01*
X144375578Y-98687451D01*
X144375579Y-98687452D01*
X144491028Y-98815671D01*
X144498947Y-98824466D01*
X144653448Y-98936718D01*
X144659476Y-98939402D01*
X144659478Y-98939403D01*
X144794841Y-98999670D01*
X144827912Y-99014394D01*
X144921312Y-99034247D01*
X145008256Y-99052728D01*
X145008261Y-99052728D01*
X145014713Y-99054100D01*
X145205687Y-99054100D01*
X145212139Y-99052728D01*
X145212144Y-99052728D01*
X145299087Y-99034247D01*
X145392488Y-99014394D01*
X145425559Y-98999670D01*
X145560922Y-98939403D01*
X145560924Y-98939402D01*
X145566952Y-98936718D01*
X145721453Y-98824466D01*
X145729372Y-98815671D01*
X145844821Y-98687452D01*
X145844822Y-98687451D01*
X145849240Y-98682544D01*
X145910856Y-98575823D01*
X145941423Y-98522879D01*
X145941424Y-98522878D01*
X145944727Y-98517156D01*
X146003742Y-98335528D01*
X146012291Y-98254194D01*
X146023014Y-98152165D01*
X146023704Y-98145600D01*
X146003742Y-97955672D01*
X145944727Y-97774044D01*
X145849240Y-97608656D01*
X145771127Y-97521902D01*
X145725875Y-97471645D01*
X145725874Y-97471644D01*
X145721453Y-97466734D01*
X145566952Y-97354482D01*
X145560924Y-97351798D01*
X145560922Y-97351797D01*
X145428876Y-97293007D01*
X145374781Y-97247027D01*
X145354131Y-97179100D01*
X145373483Y-97110792D01*
X145426694Y-97063790D01*
X145480125Y-97051900D01*
X147574448Y-97051900D01*
X147642569Y-97071902D01*
X147689062Y-97125558D01*
X147699166Y-97195832D01*
X147669672Y-97260412D01*
X147648509Y-97279836D01*
X147496147Y-97390534D01*
X147491726Y-97395444D01*
X147491725Y-97395445D01*
X147380125Y-97519390D01*
X147368360Y-97532456D01*
X147272873Y-97697844D01*
X147213858Y-97879472D01*
X147193896Y-98069400D01*
X147194586Y-98075965D01*
X147208050Y-98204064D01*
X147213858Y-98259328D01*
X147272873Y-98440956D01*
X147276176Y-98446678D01*
X147276177Y-98446679D01*
X147282116Y-98456965D01*
X147368360Y-98606344D01*
X147372778Y-98611251D01*
X147372779Y-98611252D01*
X147474835Y-98724597D01*
X147496147Y-98748266D01*
X147595243Y-98820264D01*
X147618166Y-98836918D01*
X147650648Y-98860518D01*
X147656676Y-98863202D01*
X147656678Y-98863203D01*
X147813080Y-98932837D01*
X147825112Y-98938194D01*
X147918512Y-98958047D01*
X148005456Y-98976528D01*
X148005461Y-98976528D01*
X148011913Y-98977900D01*
X148202887Y-98977900D01*
X148209339Y-98976528D01*
X148209344Y-98976528D01*
X148296287Y-98958047D01*
X148389688Y-98938194D01*
X148401720Y-98932837D01*
X148558122Y-98863203D01*
X148558124Y-98863202D01*
X148564152Y-98860518D01*
X148596635Y-98836918D01*
X148619557Y-98820264D01*
X148718653Y-98748266D01*
X148836484Y-98617402D01*
X148896929Y-98580162D01*
X148967912Y-98581514D01*
X149026897Y-98621027D01*
X149049952Y-98662775D01*
X149101673Y-98821956D01*
X149104976Y-98827678D01*
X149104977Y-98827679D01*
X149121696Y-98856637D01*
X149197160Y-98987344D01*
X149201578Y-98992251D01*
X149201579Y-98992252D01*
X149292627Y-99093371D01*
X149324947Y-99129266D01*
X149424043Y-99201264D01*
X149460248Y-99227568D01*
X149479448Y-99241518D01*
X149485476Y-99244202D01*
X149485478Y-99244203D01*
X149647881Y-99316509D01*
X149653912Y-99319194D01*
X149739663Y-99337421D01*
X149834256Y-99357528D01*
X149834261Y-99357528D01*
X149840713Y-99358900D01*
X150031687Y-99358900D01*
X150038139Y-99357528D01*
X150038144Y-99357528D01*
X150132737Y-99337421D01*
X150218488Y-99319194D01*
X150224519Y-99316509D01*
X150386922Y-99244203D01*
X150386924Y-99244202D01*
X150392952Y-99241518D01*
X150412153Y-99227568D01*
X150448357Y-99201264D01*
X150547453Y-99129266D01*
X150579773Y-99093371D01*
X150670821Y-98992252D01*
X150670822Y-98992251D01*
X150675240Y-98987344D01*
X150750704Y-98856637D01*
X150767423Y-98827679D01*
X150767424Y-98827678D01*
X150770727Y-98821956D01*
X150829742Y-98640328D01*
X150832691Y-98612276D01*
X150849014Y-98456965D01*
X150849704Y-98450400D01*
X150838291Y-98341807D01*
X150830432Y-98267035D01*
X150830432Y-98267033D01*
X150829742Y-98260472D01*
X150770727Y-98078844D01*
X150765275Y-98069400D01*
X150733514Y-98014390D01*
X150675240Y-97913456D01*
X150665284Y-97902398D01*
X150551875Y-97776445D01*
X150551874Y-97776444D01*
X150547453Y-97771534D01*
X150392952Y-97659282D01*
X150386924Y-97656598D01*
X150386922Y-97656597D01*
X150224519Y-97584291D01*
X150224518Y-97584291D01*
X150218488Y-97581606D01*
X150125088Y-97561753D01*
X150038144Y-97543272D01*
X150038139Y-97543272D01*
X150031687Y-97541900D01*
X149840713Y-97541900D01*
X149834261Y-97543272D01*
X149834256Y-97543272D01*
X149747313Y-97561753D01*
X149653912Y-97581606D01*
X149647882Y-97584291D01*
X149647881Y-97584291D01*
X149485478Y-97656597D01*
X149485476Y-97656598D01*
X149479448Y-97659282D01*
X149324947Y-97771534D01*
X149227760Y-97879472D01*
X149207117Y-97902398D01*
X149146671Y-97939638D01*
X149075688Y-97938286D01*
X149016703Y-97898773D01*
X148993648Y-97857024D01*
X148980754Y-97817339D01*
X148941927Y-97697844D01*
X148846440Y-97532456D01*
X148834676Y-97519390D01*
X148723075Y-97395445D01*
X148723074Y-97395444D01*
X148718653Y-97390534D01*
X148566291Y-97279836D01*
X148522937Y-97223614D01*
X148516862Y-97152877D01*
X148549994Y-97090086D01*
X148611814Y-97055174D01*
X148640352Y-97051900D01*
X150117000Y-97051900D01*
X150185121Y-97071902D01*
X150204347Y-97088243D01*
X150204620Y-97087940D01*
X150209532Y-97092363D01*
X150213947Y-97097266D01*
X150232564Y-97110792D01*
X150356182Y-97200606D01*
X150368448Y-97209518D01*
X150374476Y-97212202D01*
X150374478Y-97212203D01*
X150536881Y-97284509D01*
X150542912Y-97287194D01*
X150636313Y-97307047D01*
X150723256Y-97325528D01*
X150723261Y-97325528D01*
X150729713Y-97326900D01*
X150920687Y-97326900D01*
X150927139Y-97325528D01*
X150927144Y-97325528D01*
X151014088Y-97307047D01*
X151107488Y-97287194D01*
X151113519Y-97284509D01*
X151275922Y-97212203D01*
X151275924Y-97212202D01*
X151281952Y-97209518D01*
X151294219Y-97200606D01*
X151359911Y-97152877D01*
X151436453Y-97097266D01*
X151507356Y-97018520D01*
X151559821Y-96960252D01*
X151559822Y-96960251D01*
X151564240Y-96955344D01*
X151648940Y-96808640D01*
X151656423Y-96795679D01*
X151656424Y-96795678D01*
X151659727Y-96789956D01*
X151718742Y-96608328D01*
X151720150Y-96594938D01*
X151738014Y-96424965D01*
X151738704Y-96418400D01*
X151728141Y-96317899D01*
X151719432Y-96235035D01*
X151719432Y-96235033D01*
X151718742Y-96228472D01*
X151659727Y-96046844D01*
X151564240Y-95881456D01*
X151487556Y-95796289D01*
X151440875Y-95744445D01*
X151440874Y-95744444D01*
X151436453Y-95739534D01*
X151281952Y-95627282D01*
X151275924Y-95624598D01*
X151275922Y-95624597D01*
X151113519Y-95552291D01*
X151113518Y-95552291D01*
X151107488Y-95549606D01*
X151003093Y-95527416D01*
X150927144Y-95511272D01*
X150927139Y-95511272D01*
X150920687Y-95509900D01*
X150729713Y-95509900D01*
X150723261Y-95511272D01*
X150723256Y-95511272D01*
X150647307Y-95527416D01*
X150542912Y-95549606D01*
X150536882Y-95552291D01*
X150536881Y-95552291D01*
X150374478Y-95624597D01*
X150374476Y-95624598D01*
X150368448Y-95627282D01*
X150213947Y-95739534D01*
X150209532Y-95744437D01*
X150204620Y-95748860D01*
X150203495Y-95747611D01*
X150150186Y-95780451D01*
X150117000Y-95784900D01*
X134629794Y-95784900D01*
X134561673Y-95764898D01*
X134540699Y-95747995D01*
X130997805Y-92205100D01*
X130963779Y-92142788D01*
X130960900Y-92116005D01*
X130960900Y-92056853D01*
X131929577Y-92056853D01*
X131934858Y-92063907D01*
X132096356Y-92158279D01*
X132105642Y-92162729D01*
X132304601Y-92238703D01*
X132314499Y-92241579D01*
X132523195Y-92284038D01*
X132533423Y-92285257D01*
X132746250Y-92293062D01*
X132756536Y-92292595D01*
X132967785Y-92265534D01*
X132977862Y-92263392D01*
X133181855Y-92202191D01*
X133191442Y-92198433D01*
X133382698Y-92104738D01*
X133389975Y-92100400D01*
X149937096Y-92100400D01*
X149937786Y-92106965D01*
X149947795Y-92202191D01*
X149957058Y-92290328D01*
X150016073Y-92471956D01*
X150111560Y-92637344D01*
X150115978Y-92642251D01*
X150115979Y-92642252D01*
X150183179Y-92716885D01*
X150239347Y-92779266D01*
X150247549Y-92785225D01*
X150370578Y-92874611D01*
X150393848Y-92891518D01*
X150399876Y-92894202D01*
X150399878Y-92894203D01*
X150559314Y-92965188D01*
X150568312Y-92969194D01*
X150654039Y-92987416D01*
X150748656Y-93007528D01*
X150748661Y-93007528D01*
X150755113Y-93008900D01*
X150946087Y-93008900D01*
X150952539Y-93007528D01*
X150952544Y-93007528D01*
X151047161Y-92987416D01*
X151132888Y-92969194D01*
X151141886Y-92965188D01*
X151301322Y-92894203D01*
X151301324Y-92894202D01*
X151307352Y-92891518D01*
X151330623Y-92874611D01*
X151453651Y-92785225D01*
X151461853Y-92779266D01*
X151518021Y-92716885D01*
X151585221Y-92642252D01*
X151585222Y-92642251D01*
X151589640Y-92637344D01*
X151685127Y-92471956D01*
X151744142Y-92290328D01*
X151753406Y-92202191D01*
X151763414Y-92106965D01*
X151764104Y-92100400D01*
X151760459Y-92065723D01*
X151744832Y-91917035D01*
X151744832Y-91917033D01*
X151744142Y-91910472D01*
X151685127Y-91728844D01*
X151678809Y-91717900D01*
X151592941Y-91569174D01*
X151589640Y-91563456D01*
X151569964Y-91541603D01*
X151466275Y-91426445D01*
X151466274Y-91426444D01*
X151461853Y-91421534D01*
X151307352Y-91309282D01*
X151301324Y-91306598D01*
X151301322Y-91306597D01*
X151138919Y-91234291D01*
X151138918Y-91234291D01*
X151132888Y-91231606D01*
X151039488Y-91211753D01*
X150952544Y-91193272D01*
X150952539Y-91193272D01*
X150946087Y-91191900D01*
X150755113Y-91191900D01*
X150748661Y-91193272D01*
X150748656Y-91193272D01*
X150661712Y-91211753D01*
X150568312Y-91231606D01*
X150562282Y-91234291D01*
X150562281Y-91234291D01*
X150399878Y-91306597D01*
X150399876Y-91306598D01*
X150393848Y-91309282D01*
X150239347Y-91421534D01*
X150234926Y-91426444D01*
X150234925Y-91426445D01*
X150131237Y-91541603D01*
X150111560Y-91563456D01*
X150108259Y-91569174D01*
X150022392Y-91717900D01*
X150016073Y-91728844D01*
X149957058Y-91910472D01*
X149956368Y-91917033D01*
X149956368Y-91917035D01*
X149940741Y-92065723D01*
X149937096Y-92100400D01*
X133389975Y-92100400D01*
X133391544Y-92099465D01*
X133438847Y-92065723D01*
X133447248Y-92055023D01*
X133440260Y-92041870D01*
X132702412Y-91304022D01*
X132688468Y-91296408D01*
X132686635Y-91296539D01*
X132680020Y-91300790D01*
X131936337Y-92044473D01*
X131929577Y-92056853D01*
X130960900Y-92056853D01*
X130960900Y-90903863D01*
X131327650Y-90903863D01*
X131339909Y-91116477D01*
X131341345Y-91126697D01*
X131388165Y-91334446D01*
X131391245Y-91344275D01*
X131471370Y-91541603D01*
X131476013Y-91550794D01*
X131556060Y-91681420D01*
X131566516Y-91690880D01*
X131575294Y-91687096D01*
X132317578Y-90944812D01*
X132323956Y-90933132D01*
X133054008Y-90933132D01*
X133054139Y-90934965D01*
X133058390Y-90941580D01*
X133800074Y-91683264D01*
X133812084Y-91689823D01*
X133823823Y-91680855D01*
X133854604Y-91638019D01*
X133859915Y-91629180D01*
X133954270Y-91438267D01*
X133958069Y-91428672D01*
X134019976Y-91224915D01*
X134022155Y-91214834D01*
X134050190Y-91001887D01*
X134050709Y-90995212D01*
X134052172Y-90935364D01*
X134051978Y-90928646D01*
X134034381Y-90714604D01*
X134032696Y-90704424D01*
X133980814Y-90497875D01*
X133977494Y-90488124D01*
X133892572Y-90292814D01*
X133887705Y-90283739D01*
X133822663Y-90183197D01*
X133811977Y-90173995D01*
X133802412Y-90178398D01*
X133061622Y-90919188D01*
X133054008Y-90933132D01*
X132323956Y-90933132D01*
X132325192Y-90930868D01*
X132325061Y-90929035D01*
X132320810Y-90922420D01*
X131579449Y-90181059D01*
X131567913Y-90174759D01*
X131555631Y-90184382D01*
X131507689Y-90254662D01*
X131502604Y-90263613D01*
X131412938Y-90456783D01*
X131409375Y-90466470D01*
X131352464Y-90671681D01*
X131350533Y-90681800D01*
X131327902Y-90893574D01*
X131327650Y-90903863D01*
X130960900Y-90903863D01*
X130960900Y-88358695D01*
X131326851Y-88358695D01*
X131327148Y-88363848D01*
X131327148Y-88363851D01*
X131332802Y-88461908D01*
X131339710Y-88581715D01*
X131340847Y-88586761D01*
X131340848Y-88586767D01*
X131360243Y-88672827D01*
X131388822Y-88799639D01*
X131427061Y-88893811D01*
X131458486Y-88971201D01*
X131472866Y-89006616D01*
X131475565Y-89011020D01*
X131581746Y-89184292D01*
X131589587Y-89197088D01*
X131735850Y-89365938D01*
X131907726Y-89508632D01*
X131981555Y-89551774D01*
X132030279Y-89603412D01*
X132043350Y-89673195D01*
X132016619Y-89738967D01*
X131976162Y-89772327D01*
X131968060Y-89776544D01*
X131959334Y-89782039D01*
X131939277Y-89797099D01*
X131930823Y-89808427D01*
X131937568Y-89820758D01*
X132676788Y-90559978D01*
X132690732Y-90567592D01*
X132692565Y-90567461D01*
X132699180Y-90563210D01*
X133442989Y-89819401D01*
X133450010Y-89806544D01*
X133443211Y-89797213D01*
X133439159Y-89794521D01*
X133402202Y-89774120D01*
X133352231Y-89723687D01*
X133337459Y-89654245D01*
X133362575Y-89587839D01*
X133389927Y-89561232D01*
X133413397Y-89544491D01*
X133569460Y-89433173D01*
X133614035Y-89388754D01*
X133724035Y-89279137D01*
X133727696Y-89275489D01*
X133787194Y-89192689D01*
X133855035Y-89098277D01*
X133858053Y-89094077D01*
X133957030Y-88893811D01*
X134021970Y-88680069D01*
X134051129Y-88458590D01*
X134051283Y-88452276D01*
X134052674Y-88395365D01*
X134052674Y-88395361D01*
X134052756Y-88392000D01*
X134034452Y-88169361D01*
X133980031Y-87952702D01*
X133890954Y-87747840D01*
X133851506Y-87686862D01*
X133772422Y-87564617D01*
X133772420Y-87564614D01*
X133769614Y-87560277D01*
X133619270Y-87395051D01*
X133615219Y-87391852D01*
X133615215Y-87391848D01*
X133448014Y-87259800D01*
X133448010Y-87259798D01*
X133443959Y-87256598D01*
X133402653Y-87233796D01*
X133352684Y-87183364D01*
X133337912Y-87113921D01*
X133363028Y-87047516D01*
X133390380Y-87020909D01*
X133446005Y-86981232D01*
X133569460Y-86893173D01*
X133614035Y-86848754D01*
X133724035Y-86739137D01*
X133727696Y-86735489D01*
X133787194Y-86652689D01*
X133855035Y-86558277D01*
X133858053Y-86554077D01*
X133957030Y-86353811D01*
X134021970Y-86140069D01*
X134051129Y-85918590D01*
X134051283Y-85912276D01*
X134052674Y-85855365D01*
X134052674Y-85855361D01*
X134052756Y-85852000D01*
X134034452Y-85629361D01*
X133980031Y-85412702D01*
X133890954Y-85207840D01*
X133851506Y-85146862D01*
X133772422Y-85024617D01*
X133772420Y-85024614D01*
X133769614Y-85020277D01*
X133619270Y-84855051D01*
X133615219Y-84851852D01*
X133615215Y-84851848D01*
X133448014Y-84719800D01*
X133448010Y-84719798D01*
X133443959Y-84716598D01*
X133402653Y-84693796D01*
X133352684Y-84643364D01*
X133337912Y-84573921D01*
X133363028Y-84507516D01*
X133390380Y-84480909D01*
X133434203Y-84449650D01*
X133569460Y-84353173D01*
X133614035Y-84308754D01*
X133724035Y-84199137D01*
X133727696Y-84195489D01*
X133787194Y-84112689D01*
X133855035Y-84018277D01*
X133858053Y-84014077D01*
X133957030Y-83813811D01*
X134021970Y-83600069D01*
X134051129Y-83378590D01*
X134051283Y-83372276D01*
X134052674Y-83315365D01*
X134052674Y-83315361D01*
X134052756Y-83312000D01*
X134034452Y-83089361D01*
X133980031Y-82872702D01*
X133890954Y-82667840D01*
X133851506Y-82606862D01*
X133772422Y-82484617D01*
X133772420Y-82484614D01*
X133769614Y-82480277D01*
X133619270Y-82315051D01*
X133615219Y-82311852D01*
X133615215Y-82311848D01*
X133448014Y-82179800D01*
X133448010Y-82179798D01*
X133443959Y-82176598D01*
X133248389Y-82068638D01*
X133243520Y-82066914D01*
X133243516Y-82066912D01*
X133042687Y-81995795D01*
X133042683Y-81995794D01*
X133037812Y-81994069D01*
X133032719Y-81993162D01*
X133032716Y-81993161D01*
X132822973Y-81955800D01*
X132822967Y-81955799D01*
X132817884Y-81954894D01*
X132744052Y-81953992D01*
X132599681Y-81952228D01*
X132599679Y-81952228D01*
X132594511Y-81952165D01*
X132373691Y-81985955D01*
X132161356Y-82055357D01*
X131963207Y-82158507D01*
X131959074Y-82161610D01*
X131959071Y-82161612D01*
X131788700Y-82289530D01*
X131784565Y-82292635D01*
X131630229Y-82454138D01*
X131504343Y-82638680D01*
X131488603Y-82672590D01*
X131414691Y-82831820D01*
X131410288Y-82841305D01*
X131350589Y-83056570D01*
X131326851Y-83278695D01*
X131327148Y-83283848D01*
X131327148Y-83283851D01*
X131332802Y-83381908D01*
X131339710Y-83501715D01*
X131340847Y-83506761D01*
X131340848Y-83506767D01*
X131360243Y-83592827D01*
X131388822Y-83719639D01*
X131427061Y-83813811D01*
X131458486Y-83891201D01*
X131472866Y-83926616D01*
X131475565Y-83931020D01*
X131581746Y-84104292D01*
X131589587Y-84117088D01*
X131735850Y-84285938D01*
X131907726Y-84428632D01*
X131978195Y-84469811D01*
X131981045Y-84471476D01*
X132029769Y-84523114D01*
X132042840Y-84592897D01*
X132016109Y-84658669D01*
X131975655Y-84692027D01*
X131963207Y-84698507D01*
X131959074Y-84701610D01*
X131959071Y-84701612D01*
X131788700Y-84829530D01*
X131784565Y-84832635D01*
X131630229Y-84994138D01*
X131504343Y-85178680D01*
X131488603Y-85212590D01*
X131414691Y-85371820D01*
X131410288Y-85381305D01*
X131350589Y-85596570D01*
X131350040Y-85601707D01*
X131349592Y-85605902D01*
X131326851Y-85818695D01*
X131327148Y-85823848D01*
X131327148Y-85823851D01*
X131332802Y-85921908D01*
X131339710Y-86041715D01*
X131340847Y-86046761D01*
X131340848Y-86046767D01*
X131360243Y-86132827D01*
X131388822Y-86259639D01*
X131427061Y-86353811D01*
X131458486Y-86431201D01*
X131472866Y-86466616D01*
X131475565Y-86471020D01*
X131581746Y-86644292D01*
X131589587Y-86657088D01*
X131735850Y-86825938D01*
X131907726Y-86968632D01*
X131955353Y-86996463D01*
X131981045Y-87011476D01*
X132029769Y-87063114D01*
X132042840Y-87132897D01*
X132016109Y-87198669D01*
X131975655Y-87232027D01*
X131963207Y-87238507D01*
X131959074Y-87241610D01*
X131959071Y-87241612D01*
X131788700Y-87369530D01*
X131784565Y-87372635D01*
X131724765Y-87435212D01*
X131699171Y-87461995D01*
X131630229Y-87534138D01*
X131504343Y-87718680D01*
X131488603Y-87752590D01*
X131414691Y-87911820D01*
X131410288Y-87921305D01*
X131350589Y-88136570D01*
X131326851Y-88358695D01*
X130960900Y-88358695D01*
X130960900Y-87226167D01*
X130961427Y-87214984D01*
X130963102Y-87207491D01*
X130960962Y-87139414D01*
X130960900Y-87135455D01*
X130960900Y-87107544D01*
X130960395Y-87103544D01*
X130959462Y-87091701D01*
X130958322Y-87055429D01*
X130958073Y-87047510D01*
X130952422Y-87028058D01*
X130948414Y-87008706D01*
X130946867Y-86996463D01*
X130945874Y-86988603D01*
X130942956Y-86981232D01*
X130929600Y-86947497D01*
X130925755Y-86936270D01*
X130925121Y-86934087D01*
X130913418Y-86893807D01*
X130903107Y-86876372D01*
X130894412Y-86858624D01*
X130886952Y-86839783D01*
X130860964Y-86804013D01*
X130854448Y-86794093D01*
X130835980Y-86762865D01*
X130835978Y-86762862D01*
X130831942Y-86756038D01*
X130817621Y-86741717D01*
X130804780Y-86726683D01*
X130797531Y-86716706D01*
X130792872Y-86710293D01*
X130758795Y-86682102D01*
X130750016Y-86674112D01*
X129688052Y-85612147D01*
X129680512Y-85603861D01*
X129676400Y-85597382D01*
X129626748Y-85550756D01*
X129623907Y-85548002D01*
X129604170Y-85528265D01*
X129600973Y-85525785D01*
X129591951Y-85518080D01*
X129565500Y-85493241D01*
X129559721Y-85487814D01*
X129552775Y-85483995D01*
X129552772Y-85483993D01*
X129541966Y-85478052D01*
X129525447Y-85467201D01*
X129524983Y-85466841D01*
X129509441Y-85454786D01*
X129502172Y-85451641D01*
X129502168Y-85451638D01*
X129468863Y-85437226D01*
X129458213Y-85432009D01*
X129419460Y-85410705D01*
X129399837Y-85405667D01*
X129381134Y-85399263D01*
X129369820Y-85394367D01*
X129369819Y-85394367D01*
X129362545Y-85391219D01*
X129354722Y-85389980D01*
X129354712Y-85389977D01*
X129318876Y-85384301D01*
X129307256Y-85381895D01*
X129272111Y-85372872D01*
X129272110Y-85372872D01*
X129264430Y-85370900D01*
X129246867Y-85370900D01*
X129178746Y-85350898D01*
X129132253Y-85297242D01*
X129122149Y-85226968D01*
X129126309Y-85208271D01*
X129175665Y-85045823D01*
X129175665Y-85045821D01*
X129177170Y-85040869D01*
X129206329Y-84819390D01*
X129207956Y-84752800D01*
X129189652Y-84530161D01*
X129135231Y-84313502D01*
X129046154Y-84108640D01*
X128987696Y-84018277D01*
X128927622Y-83925417D01*
X128927620Y-83925414D01*
X128924814Y-83921077D01*
X128774470Y-83755851D01*
X128770419Y-83752652D01*
X128770415Y-83752648D01*
X128603214Y-83620600D01*
X128603210Y-83620598D01*
X128599159Y-83617398D01*
X128557853Y-83594596D01*
X128507884Y-83544164D01*
X128493112Y-83474721D01*
X128518228Y-83408316D01*
X128545580Y-83381709D01*
X128589403Y-83350450D01*
X128724660Y-83253973D01*
X128882896Y-83096289D01*
X128942394Y-83013489D01*
X129010235Y-82919077D01*
X129013253Y-82914877D01*
X129034120Y-82872657D01*
X129109936Y-82719253D01*
X129109937Y-82719251D01*
X129112230Y-82714611D01*
X129177170Y-82500869D01*
X129206329Y-82279390D01*
X129207956Y-82212800D01*
X129189652Y-81990161D01*
X129135231Y-81773502D01*
X129046154Y-81568640D01*
X128924814Y-81381077D01*
X128774470Y-81215851D01*
X128770419Y-81212652D01*
X128770415Y-81212648D01*
X128603214Y-81080600D01*
X128603210Y-81080598D01*
X128599159Y-81077398D01*
X128403589Y-80969438D01*
X128398720Y-80967714D01*
X128398716Y-80967712D01*
X128197887Y-80896595D01*
X128197883Y-80896594D01*
X128193012Y-80894869D01*
X128187919Y-80893962D01*
X128187916Y-80893961D01*
X127978173Y-80856600D01*
X127978167Y-80856599D01*
X127973084Y-80855694D01*
X127899252Y-80854792D01*
X127754881Y-80853028D01*
X127754879Y-80853028D01*
X127749711Y-80852965D01*
X127528891Y-80886755D01*
X127316556Y-80956157D01*
X127118407Y-81059307D01*
X127114274Y-81062410D01*
X127114271Y-81062412D01*
X127090047Y-81080600D01*
X126939765Y-81193435D01*
X126785429Y-81354938D01*
X126678001Y-81512421D01*
X126623093Y-81557421D01*
X126552568Y-81565592D01*
X126488821Y-81534338D01*
X126468124Y-81509854D01*
X126387622Y-81385417D01*
X126387620Y-81385414D01*
X126384814Y-81381077D01*
X126234470Y-81215851D01*
X126230419Y-81212652D01*
X126230415Y-81212648D01*
X126063214Y-81080600D01*
X126063210Y-81080598D01*
X126059159Y-81077398D01*
X125863589Y-80969438D01*
X125858720Y-80967714D01*
X125858716Y-80967712D01*
X125657887Y-80896595D01*
X125657883Y-80896594D01*
X125653012Y-80894869D01*
X125647919Y-80893962D01*
X125647916Y-80893961D01*
X125438173Y-80856600D01*
X125438167Y-80856599D01*
X125433084Y-80855694D01*
X125359252Y-80854792D01*
X125214881Y-80853028D01*
X125214879Y-80853028D01*
X125209711Y-80852965D01*
X124988891Y-80886755D01*
X124776556Y-80956157D01*
X124578407Y-81059307D01*
X124574274Y-81062410D01*
X124574271Y-81062412D01*
X124550047Y-81080600D01*
X124399765Y-81193435D01*
X124245429Y-81354938D01*
X124119543Y-81539480D01*
X124025488Y-81742105D01*
X123965789Y-81957370D01*
X123942051Y-82179495D01*
X123942348Y-82184648D01*
X123942348Y-82184651D01*
X123947811Y-82279390D01*
X123954910Y-82402515D01*
X123956047Y-82407561D01*
X123956048Y-82407567D01*
X123966544Y-82454138D01*
X124004022Y-82620439D01*
X124088066Y-82827416D01*
X124138819Y-82910238D01*
X124202091Y-83013488D01*
X124204787Y-83017888D01*
X124351050Y-83186738D01*
X124522926Y-83329432D01*
X124593395Y-83370611D01*
X124596245Y-83372276D01*
X124644969Y-83423914D01*
X124658040Y-83493697D01*
X124631309Y-83559469D01*
X124590855Y-83592827D01*
X124578407Y-83599307D01*
X124574274Y-83602410D01*
X124574271Y-83602412D01*
X124411765Y-83724425D01*
X124399765Y-83733435D01*
X124245429Y-83894938D01*
X124242520Y-83899203D01*
X124242514Y-83899211D01*
X124167322Y-84009438D01*
X124119543Y-84079480D01*
X124025488Y-84282105D01*
X123965789Y-84497370D01*
X123942051Y-84719495D01*
X123942348Y-84724648D01*
X123942348Y-84724651D01*
X123947811Y-84819390D01*
X123954910Y-84942515D01*
X123956047Y-84947561D01*
X123956048Y-84947567D01*
X123966544Y-84994138D01*
X124004022Y-85160439D01*
X124088066Y-85367416D01*
X124138819Y-85450238D01*
X124202091Y-85553488D01*
X124204787Y-85557888D01*
X124351050Y-85726738D01*
X124522926Y-85869432D01*
X124593395Y-85910611D01*
X124596245Y-85912276D01*
X124644969Y-85963914D01*
X124658040Y-86033697D01*
X124631309Y-86099469D01*
X124590855Y-86132827D01*
X124578407Y-86139307D01*
X124574274Y-86142410D01*
X124574271Y-86142412D01*
X124411765Y-86264425D01*
X124399765Y-86273435D01*
X124245429Y-86434938D01*
X124242520Y-86439203D01*
X124242514Y-86439211D01*
X124167322Y-86549438D01*
X124119543Y-86619480D01*
X124104128Y-86652689D01*
X124038491Y-86794093D01*
X124025488Y-86822105D01*
X123965789Y-87037370D01*
X123942051Y-87259495D01*
X123942348Y-87264648D01*
X123942348Y-87264651D01*
X123947811Y-87359390D01*
X123954910Y-87482515D01*
X123956047Y-87487561D01*
X123956048Y-87487567D01*
X123966544Y-87534138D01*
X124004022Y-87700439D01*
X124088066Y-87907416D01*
X124138819Y-87990238D01*
X124202091Y-88093488D01*
X124204787Y-88097888D01*
X124351050Y-88266738D01*
X124522926Y-88409432D01*
X124593395Y-88450611D01*
X124596245Y-88452276D01*
X124644969Y-88503914D01*
X124658040Y-88573697D01*
X124631309Y-88639469D01*
X124590855Y-88672827D01*
X124578407Y-88679307D01*
X124574274Y-88682410D01*
X124574271Y-88682412D01*
X124411765Y-88804425D01*
X124399765Y-88813435D01*
X124245429Y-88974938D01*
X124242520Y-88979203D01*
X124242514Y-88979211D01*
X124167322Y-89089438D01*
X124119543Y-89159480D01*
X124025488Y-89362105D01*
X123965789Y-89577370D01*
X123942051Y-89799495D01*
X123942348Y-89804648D01*
X123942348Y-89804651D01*
X123947811Y-89899390D01*
X123954910Y-90022515D01*
X123956047Y-90027561D01*
X123956048Y-90027567D01*
X123975919Y-90115739D01*
X124004022Y-90240439D01*
X124088066Y-90447416D01*
X124129400Y-90514867D01*
X124202091Y-90633488D01*
X124204787Y-90637888D01*
X124351050Y-90806738D01*
X124522926Y-90949432D01*
X124593395Y-90990611D01*
X124596245Y-90992276D01*
X124644969Y-91043914D01*
X124658040Y-91113697D01*
X124631309Y-91179469D01*
X124590855Y-91212827D01*
X124587000Y-91214834D01*
X124578407Y-91219307D01*
X124574274Y-91222410D01*
X124574271Y-91222412D01*
X124465577Y-91304022D01*
X124399765Y-91353435D01*
X124245429Y-91514938D01*
X124119543Y-91699480D01*
X124025488Y-91902105D01*
X123965789Y-92117370D01*
X123942051Y-92339495D01*
X123942348Y-92344648D01*
X123942348Y-92344651D01*
X123950018Y-92477679D01*
X123954910Y-92562515D01*
X123956047Y-92567561D01*
X123956048Y-92567567D01*
X123969432Y-92626954D01*
X124004022Y-92780439D01*
X124051173Y-92896559D01*
X124079577Y-92966509D01*
X124088066Y-92987416D01*
X124138819Y-93070238D01*
X124202091Y-93173488D01*
X124204787Y-93177888D01*
X124351050Y-93346738D01*
X124522926Y-93489432D01*
X124593395Y-93530611D01*
X124596245Y-93532276D01*
X124644969Y-93583914D01*
X124658040Y-93653697D01*
X124631309Y-93719469D01*
X124590855Y-93752827D01*
X124578407Y-93759307D01*
X124574274Y-93762410D01*
X124574271Y-93762412D01*
X124550047Y-93780600D01*
X124399765Y-93893435D01*
X124245429Y-94054938D01*
X124119543Y-94239480D01*
X124103803Y-94273390D01*
X124040268Y-94410265D01*
X124025488Y-94442105D01*
X123965789Y-94657370D01*
X123942051Y-94879495D01*
X123942348Y-94884648D01*
X123942348Y-94884651D01*
X123947811Y-94979390D01*
X123954910Y-95102515D01*
X123956047Y-95107561D01*
X123956048Y-95107567D01*
X123975919Y-95195739D01*
X124004022Y-95320439D01*
X124041350Y-95412368D01*
X124081511Y-95511272D01*
X124088066Y-95527416D01*
X124138819Y-95610238D01*
X124202091Y-95713488D01*
X124204787Y-95717888D01*
X124351050Y-95886738D01*
X124522926Y-96029432D01*
X124552723Y-96046844D01*
X124596245Y-96072276D01*
X124644969Y-96123914D01*
X124658040Y-96193697D01*
X124631309Y-96259469D01*
X124590855Y-96292827D01*
X124578407Y-96299307D01*
X124574274Y-96302410D01*
X124574271Y-96302412D01*
X124411046Y-96424965D01*
X124399765Y-96433435D01*
X124245429Y-96594938D01*
X124119543Y-96779480D01*
X124025488Y-96982105D01*
X123965789Y-97197370D01*
X123942051Y-97419495D01*
X123942348Y-97424648D01*
X123942348Y-97424651D01*
X123948001Y-97522687D01*
X123954910Y-97642515D01*
X123956047Y-97647561D01*
X123956048Y-97647567D01*
X123975919Y-97735739D01*
X124004022Y-97860439D01*
X124088066Y-98067416D01*
X124131954Y-98139035D01*
X124202091Y-98253488D01*
X124204787Y-98257888D01*
X124351050Y-98426738D01*
X124522926Y-98569432D01*
X124543602Y-98581514D01*
X124596245Y-98612276D01*
X124644969Y-98663914D01*
X124658040Y-98733697D01*
X124631309Y-98799469D01*
X124590855Y-98832827D01*
X124578407Y-98839307D01*
X124574274Y-98842410D01*
X124574271Y-98842412D01*
X124445091Y-98939403D01*
X124399765Y-98973435D01*
X124360850Y-99014157D01*
X124249187Y-99131006D01*
X124245429Y-99134938D01*
X124242520Y-99139203D01*
X124242514Y-99139211D01*
X124172725Y-99241518D01*
X124119543Y-99319480D01*
X124101245Y-99358900D01*
X124048127Y-99473334D01*
X124025488Y-99522105D01*
X123965789Y-99737370D01*
X123942051Y-99959495D01*
X123307900Y-99959495D01*
X123307900Y-80314300D01*
X123327902Y-80246179D01*
X123381558Y-80199686D01*
X123433900Y-80188300D01*
X159664900Y-80188300D01*
X159733021Y-80208302D01*
G37*
%TD.AperFunction*%
%TD*%
M02*
