%TF.GenerationSoftware,KiCad,Pcbnew,(6.0.8-1)-1*%
%TF.CreationDate,2024-02-06T23:44:39-06:00*%
%TF.ProjectId,openmv_can_shield,6f70656e-6d76-45f6-9361-6e5f73686965,rev?*%
%TF.SameCoordinates,Original*%
%TF.FileFunction,Soldermask,Bot*%
%TF.FilePolarity,Negative*%
%FSLAX46Y46*%
G04 Gerber Fmt 4.6, Leading zero omitted, Abs format (unit mm)*
G04 Created by KiCad (PCBNEW (6.0.8-1)-1) date 2024-02-06 23:44:39*
%MOMM*%
%LPD*%
G01*
G04 APERTURE LIST*
%ADD10C,1.700000*%
%ADD11C,1.650000*%
G04 APERTURE END LIST*
D10*
%TO.C,RT1*%
X125304800Y-82212800D03*
X125304800Y-84752800D03*
X125304800Y-87292800D03*
X125304800Y-89832800D03*
X125304800Y-92372800D03*
X125304800Y-94912800D03*
X125304800Y-97452800D03*
X125304800Y-99992800D03*
X127844800Y-82212800D03*
X127844800Y-84752800D03*
X127844800Y-87292800D03*
X127844800Y-89832800D03*
X127844800Y-92372800D03*
X127844800Y-94912800D03*
X127844800Y-97452800D03*
X127844800Y-99992800D03*
X155164800Y-82212800D03*
X155164800Y-84752800D03*
X155164800Y-87292800D03*
X155164800Y-89832800D03*
X155164800Y-92372800D03*
X155164800Y-94912800D03*
X155164800Y-97452800D03*
X155164800Y-99992800D03*
X157704800Y-82212800D03*
X157704800Y-84752800D03*
X157704800Y-87292800D03*
X157704800Y-89832800D03*
X157704800Y-92372800D03*
X157704800Y-94912800D03*
X157704800Y-97452800D03*
X157704800Y-99992800D03*
%TD*%
D11*
%TO.C,J1*%
X131907400Y-105286800D03*
X135407400Y-110286800D03*
%TD*%
%TO.C,J3*%
X145852000Y-105337600D03*
X149352000Y-110337600D03*
%TD*%
D10*
%TO.C,U1*%
X132689600Y-83312000D03*
X132689600Y-85852000D03*
X132689600Y-88392000D03*
X132689600Y-90932000D03*
%TD*%
M02*
