%TF.GenerationSoftware,KiCad,Pcbnew,(6.0.8-1)-1*%
%TF.CreationDate,2024-02-06T23:44:47-06:00*%
%TF.ProjectId,openmv_can_shield,6f70656e-6d76-45f6-9361-6e5f73686965,rev?*%
%TF.SameCoordinates,Original*%
%TF.FileFunction,Drillmap*%
%TF.FilePolarity,Positive*%
%FSLAX45Y45*%
G04 Gerber Fmt 4.5, Leading zero omitted, Abs format (unit mm)*
G04 Created by KiCad (PCBNEW (6.0.8-1)-1) date 2024-02-06 23:44:47*
%MOMM*%
%LPD*%
G01*
G04 APERTURE LIST*
%ADD10C,0.100000*%
%ADD11C,0.200000*%
%ADD12C,0.040000*%
%ADD13C,0.110000*%
G04 APERTURE END LIST*
D10*
X12279940Y-7967980D02*
X16029940Y-7967980D01*
X16029940Y-7967980D02*
X16029940Y-11717980D01*
X16029940Y-11717980D02*
X12279940Y-11717980D01*
X12279940Y-11717980D02*
X12279940Y-7967980D01*
D11*
D12*
X12377740Y-10960420D02*
X12417740Y-11000420D01*
X12417740Y-10960420D02*
X12377740Y-11000420D01*
X12377740Y-11062020D02*
X12417740Y-11102020D01*
X12417740Y-11062020D02*
X12377740Y-11102020D01*
X12423460Y-10703880D02*
X12463460Y-10743880D01*
X12463460Y-10703880D02*
X12423460Y-10743880D01*
X12423460Y-10805480D02*
X12463460Y-10845480D01*
X12463460Y-10805480D02*
X12423460Y-10845480D01*
X12593640Y-10267000D02*
X12633640Y-10307000D01*
X12633640Y-10267000D02*
X12593640Y-10307000D01*
X12616500Y-11407460D02*
X12656500Y-11447460D01*
X12656500Y-11407460D02*
X12616500Y-11447460D01*
X13149900Y-9979980D02*
X13189900Y-10019980D01*
X13189900Y-9979980D02*
X13149900Y-10019980D01*
X13259120Y-9979980D02*
X13299120Y-10019980D01*
X13299120Y-9979980D02*
X13259120Y-10019980D01*
X13368340Y-9979980D02*
X13408340Y-10019980D01*
X13408340Y-9979980D02*
X13368340Y-10019980D01*
X13723940Y-9995220D02*
X13763940Y-10035220D01*
X13763940Y-9995220D02*
X13723940Y-10035220D01*
X13876340Y-9995220D02*
X13916340Y-10035220D01*
X13916340Y-9995220D02*
X13876340Y-10035220D01*
X14028740Y-9995220D02*
X14068740Y-10035220D01*
X14068740Y-9995220D02*
X14028740Y-10035220D01*
X14491020Y-9794560D02*
X14531020Y-9834560D01*
X14531020Y-9794560D02*
X14491020Y-9834560D01*
X14790740Y-9786940D02*
X14830740Y-9826940D01*
X14830740Y-9786940D02*
X14790740Y-9826940D01*
X14973620Y-9825040D02*
X15013620Y-9865040D01*
X15013620Y-9825040D02*
X14973620Y-9865040D01*
X15062520Y-9621840D02*
X15102520Y-9661840D01*
X15102520Y-9621840D02*
X15062520Y-9661840D01*
X15065060Y-9190040D02*
X15105060Y-9230040D01*
X15105060Y-9190040D02*
X15065060Y-9230040D01*
X15212380Y-11122090D02*
X15252380Y-11162090D01*
X15252380Y-11122090D02*
X15212380Y-11162090D01*
X15212380Y-11222040D02*
X15252380Y-11262040D01*
X15252380Y-11222040D02*
X15212380Y-11262040D01*
X15624480Y-10995360D02*
X15664480Y-11035360D01*
X15664480Y-10995360D02*
X15624480Y-11035360D01*
X15624480Y-11165540D02*
X15664480Y-11205540D01*
X15664480Y-11165540D02*
X15624480Y-11205540D01*
D10*
X12580480Y-8221280D02*
G75*
G03*
X12580480Y-8221280I-50000J0D01*
G01*
X12580480Y-8475280D02*
G75*
G03*
X12580480Y-8475280I-50000J0D01*
G01*
X12580480Y-8729280D02*
G75*
G03*
X12580480Y-8729280I-50000J0D01*
G01*
X12580480Y-8983280D02*
G75*
G03*
X12580480Y-8983280I-50000J0D01*
G01*
X12580480Y-9237280D02*
G75*
G03*
X12580480Y-9237280I-50000J0D01*
G01*
X12580480Y-9491280D02*
G75*
G03*
X12580480Y-9491280I-50000J0D01*
G01*
X12580480Y-9745280D02*
G75*
G03*
X12580480Y-9745280I-50000J0D01*
G01*
X12580480Y-9999280D02*
G75*
G03*
X12580480Y-9999280I-50000J0D01*
G01*
X12834480Y-8221280D02*
G75*
G03*
X12834480Y-8221280I-50000J0D01*
G01*
X12834480Y-8475280D02*
G75*
G03*
X12834480Y-8475280I-50000J0D01*
G01*
X12834480Y-8729280D02*
G75*
G03*
X12834480Y-8729280I-50000J0D01*
G01*
X12834480Y-8983280D02*
G75*
G03*
X12834480Y-8983280I-50000J0D01*
G01*
X12834480Y-9237280D02*
G75*
G03*
X12834480Y-9237280I-50000J0D01*
G01*
X12834480Y-9491280D02*
G75*
G03*
X12834480Y-9491280I-50000J0D01*
G01*
X12834480Y-9745280D02*
G75*
G03*
X12834480Y-9745280I-50000J0D01*
G01*
X12834480Y-9999280D02*
G75*
G03*
X12834480Y-9999280I-50000J0D01*
G01*
X13318960Y-8331200D02*
G75*
G03*
X13318960Y-8331200I-50000J0D01*
G01*
X13318960Y-8585200D02*
G75*
G03*
X13318960Y-8585200I-50000J0D01*
G01*
X13318960Y-8839200D02*
G75*
G03*
X13318960Y-8839200I-50000J0D01*
G01*
X13318960Y-9093200D02*
G75*
G03*
X13318960Y-9093200I-50000J0D01*
G01*
X15566480Y-8221280D02*
G75*
G03*
X15566480Y-8221280I-50000J0D01*
G01*
X15566480Y-8475280D02*
G75*
G03*
X15566480Y-8475280I-50000J0D01*
G01*
X15566480Y-8729280D02*
G75*
G03*
X15566480Y-8729280I-50000J0D01*
G01*
X15566480Y-8983280D02*
G75*
G03*
X15566480Y-8983280I-50000J0D01*
G01*
X15566480Y-9237280D02*
G75*
G03*
X15566480Y-9237280I-50000J0D01*
G01*
X15566480Y-9491280D02*
G75*
G03*
X15566480Y-9491280I-50000J0D01*
G01*
X15566480Y-9745280D02*
G75*
G03*
X15566480Y-9745280I-50000J0D01*
G01*
X15566480Y-9999280D02*
G75*
G03*
X15566480Y-9999280I-50000J0D01*
G01*
X15820480Y-8221280D02*
G75*
G03*
X15820480Y-8221280I-50000J0D01*
G01*
X15820480Y-8475280D02*
G75*
G03*
X15820480Y-8475280I-50000J0D01*
G01*
X15820480Y-8729280D02*
G75*
G03*
X15820480Y-8729280I-50000J0D01*
G01*
X15820480Y-8983280D02*
G75*
G03*
X15820480Y-8983280I-50000J0D01*
G01*
X15820480Y-9237280D02*
G75*
G03*
X15820480Y-9237280I-50000J0D01*
G01*
X15820480Y-9491280D02*
G75*
G03*
X15820480Y-9491280I-50000J0D01*
G01*
X15820480Y-9745280D02*
G75*
G03*
X15820480Y-9745280I-50000J0D01*
G01*
X15820480Y-9999280D02*
G75*
G03*
X15820480Y-9999280I-50000J0D01*
G01*
D13*
X13190740Y-10473680D02*
X13190740Y-10583680D01*
X13135740Y-10528680D02*
X13245740Y-10528680D01*
X13540740Y-10973680D02*
X13540740Y-11083680D01*
X13485740Y-11028680D02*
X13595740Y-11028680D01*
X14585200Y-10478760D02*
X14585200Y-10588760D01*
X14530200Y-10533760D02*
X14640200Y-10533760D01*
X14935200Y-10978760D02*
X14935200Y-11088760D01*
X14880200Y-11033760D02*
X14990200Y-11033760D01*
D11*
X12532559Y-12033456D02*
X12532559Y-11833456D01*
X12580178Y-11833456D01*
X12608749Y-11842980D01*
X12627797Y-11862028D01*
X12637321Y-11881075D01*
X12646845Y-11919170D01*
X12646845Y-11947742D01*
X12637321Y-11985837D01*
X12627797Y-12004885D01*
X12608749Y-12023932D01*
X12580178Y-12033456D01*
X12532559Y-12033456D01*
X12732559Y-12033456D02*
X12732559Y-11900123D01*
X12732559Y-11938218D02*
X12742083Y-11919170D01*
X12751607Y-11909647D01*
X12770654Y-11900123D01*
X12789702Y-11900123D01*
X12856368Y-12033456D02*
X12856368Y-11900123D01*
X12856368Y-11833456D02*
X12846845Y-11842980D01*
X12856368Y-11852504D01*
X12865892Y-11842980D01*
X12856368Y-11833456D01*
X12856368Y-11852504D01*
X12980178Y-12033456D02*
X12961130Y-12023932D01*
X12951607Y-12004885D01*
X12951607Y-11833456D01*
X13084940Y-12033456D02*
X13065892Y-12023932D01*
X13056368Y-12004885D01*
X13056368Y-11833456D01*
X13313511Y-12033456D02*
X13313511Y-11833456D01*
X13380178Y-11976313D01*
X13446845Y-11833456D01*
X13446845Y-12033456D01*
X13627797Y-12033456D02*
X13627797Y-11928694D01*
X13618273Y-11909647D01*
X13599226Y-11900123D01*
X13561130Y-11900123D01*
X13542083Y-11909647D01*
X13627797Y-12023932D02*
X13608749Y-12033456D01*
X13561130Y-12033456D01*
X13542083Y-12023932D01*
X13532559Y-12004885D01*
X13532559Y-11985837D01*
X13542083Y-11966789D01*
X13561130Y-11957266D01*
X13608749Y-11957266D01*
X13627797Y-11947742D01*
X13723035Y-11900123D02*
X13723035Y-12100123D01*
X13723035Y-11909647D02*
X13742083Y-11900123D01*
X13780178Y-11900123D01*
X13799226Y-11909647D01*
X13808749Y-11919170D01*
X13818273Y-11938218D01*
X13818273Y-11995361D01*
X13808749Y-12014408D01*
X13799226Y-12023932D01*
X13780178Y-12033456D01*
X13742083Y-12033456D01*
X13723035Y-12023932D01*
X13903988Y-12014408D02*
X13913511Y-12023932D01*
X13903988Y-12033456D01*
X13894464Y-12023932D01*
X13903988Y-12014408D01*
X13903988Y-12033456D01*
X13903988Y-11909647D02*
X13913511Y-11919170D01*
X13903988Y-11928694D01*
X13894464Y-11919170D01*
X13903988Y-11909647D01*
X13903988Y-11928694D01*
D12*
X12234940Y-12342980D02*
X12274940Y-12382980D01*
X12274940Y-12342980D02*
X12234940Y-12382980D01*
D11*
X12570654Y-12253456D02*
X12589702Y-12253456D01*
X12608749Y-12262980D01*
X12618273Y-12272504D01*
X12627797Y-12291551D01*
X12637321Y-12329647D01*
X12637321Y-12377266D01*
X12627797Y-12415361D01*
X12618273Y-12434408D01*
X12608749Y-12443932D01*
X12589702Y-12453456D01*
X12570654Y-12453456D01*
X12551607Y-12443932D01*
X12542083Y-12434408D01*
X12532559Y-12415361D01*
X12523035Y-12377266D01*
X12523035Y-12329647D01*
X12532559Y-12291551D01*
X12542083Y-12272504D01*
X12551607Y-12262980D01*
X12570654Y-12253456D01*
X12723035Y-12434408D02*
X12732559Y-12443932D01*
X12723035Y-12453456D01*
X12713511Y-12443932D01*
X12723035Y-12434408D01*
X12723035Y-12453456D01*
X12903988Y-12320123D02*
X12903988Y-12453456D01*
X12856368Y-12243932D02*
X12808749Y-12386789D01*
X12932559Y-12386789D01*
X13046845Y-12253456D02*
X13065892Y-12253456D01*
X13084940Y-12262980D01*
X13094464Y-12272504D01*
X13103988Y-12291551D01*
X13113511Y-12329647D01*
X13113511Y-12377266D01*
X13103988Y-12415361D01*
X13094464Y-12434408D01*
X13084940Y-12443932D01*
X13065892Y-12453456D01*
X13046845Y-12453456D01*
X13027797Y-12443932D01*
X13018273Y-12434408D01*
X13008749Y-12415361D01*
X12999226Y-12377266D01*
X12999226Y-12329647D01*
X13008749Y-12291551D01*
X13018273Y-12272504D01*
X13027797Y-12262980D01*
X13046845Y-12253456D01*
X13237321Y-12253456D02*
X13256368Y-12253456D01*
X13275416Y-12262980D01*
X13284940Y-12272504D01*
X13294464Y-12291551D01*
X13303988Y-12329647D01*
X13303988Y-12377266D01*
X13294464Y-12415361D01*
X13284940Y-12434408D01*
X13275416Y-12443932D01*
X13256368Y-12453456D01*
X13237321Y-12453456D01*
X13218273Y-12443932D01*
X13208749Y-12434408D01*
X13199226Y-12415361D01*
X13189702Y-12377266D01*
X13189702Y-12329647D01*
X13199226Y-12291551D01*
X13208749Y-12272504D01*
X13218273Y-12262980D01*
X13237321Y-12253456D01*
X13389702Y-12453456D02*
X13389702Y-12320123D01*
X13389702Y-12339170D02*
X13399226Y-12329647D01*
X13418273Y-12320123D01*
X13446845Y-12320123D01*
X13465892Y-12329647D01*
X13475416Y-12348694D01*
X13475416Y-12453456D01*
X13475416Y-12348694D02*
X13484940Y-12329647D01*
X13503988Y-12320123D01*
X13532559Y-12320123D01*
X13551607Y-12329647D01*
X13561130Y-12348694D01*
X13561130Y-12453456D01*
X13656368Y-12453456D02*
X13656368Y-12320123D01*
X13656368Y-12339170D02*
X13665892Y-12329647D01*
X13684940Y-12320123D01*
X13713511Y-12320123D01*
X13732559Y-12329647D01*
X13742083Y-12348694D01*
X13742083Y-12453456D01*
X13742083Y-12348694D02*
X13751607Y-12329647D01*
X13770654Y-12320123D01*
X13799226Y-12320123D01*
X13818273Y-12329647D01*
X13827797Y-12348694D01*
X13827797Y-12453456D01*
X14218273Y-12243932D02*
X14046845Y-12501075D01*
X14475416Y-12253456D02*
X14494464Y-12253456D01*
X14513511Y-12262980D01*
X14523035Y-12272504D01*
X14532559Y-12291551D01*
X14542083Y-12329647D01*
X14542083Y-12377266D01*
X14532559Y-12415361D01*
X14523035Y-12434408D01*
X14513511Y-12443932D01*
X14494464Y-12453456D01*
X14475416Y-12453456D01*
X14456368Y-12443932D01*
X14446845Y-12434408D01*
X14437321Y-12415361D01*
X14427797Y-12377266D01*
X14427797Y-12329647D01*
X14437321Y-12291551D01*
X14446845Y-12272504D01*
X14456368Y-12262980D01*
X14475416Y-12253456D01*
X14627797Y-12434408D02*
X14637321Y-12443932D01*
X14627797Y-12453456D01*
X14618273Y-12443932D01*
X14627797Y-12434408D01*
X14627797Y-12453456D01*
X14761130Y-12253456D02*
X14780178Y-12253456D01*
X14799226Y-12262980D01*
X14808749Y-12272504D01*
X14818273Y-12291551D01*
X14827797Y-12329647D01*
X14827797Y-12377266D01*
X14818273Y-12415361D01*
X14808749Y-12434408D01*
X14799226Y-12443932D01*
X14780178Y-12453456D01*
X14761130Y-12453456D01*
X14742083Y-12443932D01*
X14732559Y-12434408D01*
X14723035Y-12415361D01*
X14713511Y-12377266D01*
X14713511Y-12329647D01*
X14723035Y-12291551D01*
X14732559Y-12272504D01*
X14742083Y-12262980D01*
X14761130Y-12253456D01*
X15018273Y-12453456D02*
X14903988Y-12453456D01*
X14961130Y-12453456D02*
X14961130Y-12253456D01*
X14942083Y-12282028D01*
X14923035Y-12301075D01*
X14903988Y-12310599D01*
X15199226Y-12253456D02*
X15103988Y-12253456D01*
X15094464Y-12348694D01*
X15103988Y-12339170D01*
X15123035Y-12329647D01*
X15170654Y-12329647D01*
X15189702Y-12339170D01*
X15199226Y-12348694D01*
X15208749Y-12367742D01*
X15208749Y-12415361D01*
X15199226Y-12434408D01*
X15189702Y-12443932D01*
X15170654Y-12453456D01*
X15123035Y-12453456D01*
X15103988Y-12443932D01*
X15094464Y-12434408D01*
X15275416Y-12253456D02*
X15408749Y-12253456D01*
X15323035Y-12453456D01*
X15475416Y-12253456D02*
X15475416Y-12291551D01*
X15551607Y-12253456D02*
X15551607Y-12291551D01*
X15846845Y-12529647D02*
X15837321Y-12520123D01*
X15818273Y-12491551D01*
X15808749Y-12472504D01*
X15799226Y-12443932D01*
X15789702Y-12396313D01*
X15789702Y-12358218D01*
X15799226Y-12310599D01*
X15808749Y-12282028D01*
X15818273Y-12262980D01*
X15837321Y-12234408D01*
X15846845Y-12224885D01*
X15913511Y-12272504D02*
X15923035Y-12262980D01*
X15942083Y-12253456D01*
X15989702Y-12253456D01*
X16008749Y-12262980D01*
X16018273Y-12272504D01*
X16027797Y-12291551D01*
X16027797Y-12310599D01*
X16018273Y-12339170D01*
X15903988Y-12453456D01*
X16027797Y-12453456D01*
X16218273Y-12453456D02*
X16103988Y-12453456D01*
X16161130Y-12453456D02*
X16161130Y-12253456D01*
X16142083Y-12282028D01*
X16123035Y-12301075D01*
X16103988Y-12310599D01*
X16456368Y-12453456D02*
X16456368Y-12253456D01*
X16542083Y-12453456D02*
X16542083Y-12348694D01*
X16532559Y-12329647D01*
X16513511Y-12320123D01*
X16484940Y-12320123D01*
X16465892Y-12329647D01*
X16456368Y-12339170D01*
X16665892Y-12453456D02*
X16646845Y-12443932D01*
X16637321Y-12434408D01*
X16627797Y-12415361D01*
X16627797Y-12358218D01*
X16637321Y-12339170D01*
X16646845Y-12329647D01*
X16665892Y-12320123D01*
X16694464Y-12320123D01*
X16713511Y-12329647D01*
X16723035Y-12339170D01*
X16732559Y-12358218D01*
X16732559Y-12415361D01*
X16723035Y-12434408D01*
X16713511Y-12443932D01*
X16694464Y-12453456D01*
X16665892Y-12453456D01*
X16846845Y-12453456D02*
X16827797Y-12443932D01*
X16818273Y-12424885D01*
X16818273Y-12253456D01*
X16999226Y-12443932D02*
X16980178Y-12453456D01*
X16942083Y-12453456D01*
X16923035Y-12443932D01*
X16913511Y-12424885D01*
X16913511Y-12348694D01*
X16923035Y-12329647D01*
X16942083Y-12320123D01*
X16980178Y-12320123D01*
X16999226Y-12329647D01*
X17008750Y-12348694D01*
X17008750Y-12367742D01*
X16913511Y-12386789D01*
X17084940Y-12443932D02*
X17103988Y-12453456D01*
X17142083Y-12453456D01*
X17161130Y-12443932D01*
X17170654Y-12424885D01*
X17170654Y-12415361D01*
X17161130Y-12396313D01*
X17142083Y-12386789D01*
X17113511Y-12386789D01*
X17094464Y-12377266D01*
X17084940Y-12358218D01*
X17084940Y-12348694D01*
X17094464Y-12329647D01*
X17113511Y-12320123D01*
X17142083Y-12320123D01*
X17161130Y-12329647D01*
X17237321Y-12529647D02*
X17246845Y-12520123D01*
X17265892Y-12491551D01*
X17275416Y-12472504D01*
X17284940Y-12443932D01*
X17294464Y-12396313D01*
X17294464Y-12358218D01*
X17284940Y-12310599D01*
X17275416Y-12282028D01*
X17265892Y-12262980D01*
X17246845Y-12234408D01*
X17237321Y-12224885D01*
D10*
X12274940Y-12626980D02*
G75*
G03*
X12274940Y-12626980I-50000J0D01*
G01*
D11*
X12637321Y-12717456D02*
X12523035Y-12717456D01*
X12580178Y-12717456D02*
X12580178Y-12517456D01*
X12561130Y-12546028D01*
X12542083Y-12565075D01*
X12523035Y-12574599D01*
X12723035Y-12698408D02*
X12732559Y-12707932D01*
X12723035Y-12717456D01*
X12713511Y-12707932D01*
X12723035Y-12698408D01*
X12723035Y-12717456D01*
X12856368Y-12517456D02*
X12875416Y-12517456D01*
X12894464Y-12526980D01*
X12903988Y-12536504D01*
X12913511Y-12555551D01*
X12923035Y-12593647D01*
X12923035Y-12641266D01*
X12913511Y-12679361D01*
X12903988Y-12698408D01*
X12894464Y-12707932D01*
X12875416Y-12717456D01*
X12856368Y-12717456D01*
X12837321Y-12707932D01*
X12827797Y-12698408D01*
X12818273Y-12679361D01*
X12808749Y-12641266D01*
X12808749Y-12593647D01*
X12818273Y-12555551D01*
X12827797Y-12536504D01*
X12837321Y-12526980D01*
X12856368Y-12517456D01*
X13046845Y-12517456D02*
X13065892Y-12517456D01*
X13084940Y-12526980D01*
X13094464Y-12536504D01*
X13103988Y-12555551D01*
X13113511Y-12593647D01*
X13113511Y-12641266D01*
X13103988Y-12679361D01*
X13094464Y-12698408D01*
X13084940Y-12707932D01*
X13065892Y-12717456D01*
X13046845Y-12717456D01*
X13027797Y-12707932D01*
X13018273Y-12698408D01*
X13008749Y-12679361D01*
X12999226Y-12641266D01*
X12999226Y-12593647D01*
X13008749Y-12555551D01*
X13018273Y-12536504D01*
X13027797Y-12526980D01*
X13046845Y-12517456D01*
X13237321Y-12517456D02*
X13256368Y-12517456D01*
X13275416Y-12526980D01*
X13284940Y-12536504D01*
X13294464Y-12555551D01*
X13303988Y-12593647D01*
X13303988Y-12641266D01*
X13294464Y-12679361D01*
X13284940Y-12698408D01*
X13275416Y-12707932D01*
X13256368Y-12717456D01*
X13237321Y-12717456D01*
X13218273Y-12707932D01*
X13208749Y-12698408D01*
X13199226Y-12679361D01*
X13189702Y-12641266D01*
X13189702Y-12593647D01*
X13199226Y-12555551D01*
X13208749Y-12536504D01*
X13218273Y-12526980D01*
X13237321Y-12517456D01*
X13389702Y-12717456D02*
X13389702Y-12584123D01*
X13389702Y-12603170D02*
X13399226Y-12593647D01*
X13418273Y-12584123D01*
X13446845Y-12584123D01*
X13465892Y-12593647D01*
X13475416Y-12612694D01*
X13475416Y-12717456D01*
X13475416Y-12612694D02*
X13484940Y-12593647D01*
X13503988Y-12584123D01*
X13532559Y-12584123D01*
X13551607Y-12593647D01*
X13561130Y-12612694D01*
X13561130Y-12717456D01*
X13656368Y-12717456D02*
X13656368Y-12584123D01*
X13656368Y-12603170D02*
X13665892Y-12593647D01*
X13684940Y-12584123D01*
X13713511Y-12584123D01*
X13732559Y-12593647D01*
X13742083Y-12612694D01*
X13742083Y-12717456D01*
X13742083Y-12612694D02*
X13751607Y-12593647D01*
X13770654Y-12584123D01*
X13799226Y-12584123D01*
X13818273Y-12593647D01*
X13827797Y-12612694D01*
X13827797Y-12717456D01*
X14218273Y-12507932D02*
X14046845Y-12765075D01*
X14475416Y-12517456D02*
X14494464Y-12517456D01*
X14513511Y-12526980D01*
X14523035Y-12536504D01*
X14532559Y-12555551D01*
X14542083Y-12593647D01*
X14542083Y-12641266D01*
X14532559Y-12679361D01*
X14523035Y-12698408D01*
X14513511Y-12707932D01*
X14494464Y-12717456D01*
X14475416Y-12717456D01*
X14456368Y-12707932D01*
X14446845Y-12698408D01*
X14437321Y-12679361D01*
X14427797Y-12641266D01*
X14427797Y-12593647D01*
X14437321Y-12555551D01*
X14446845Y-12536504D01*
X14456368Y-12526980D01*
X14475416Y-12517456D01*
X14627797Y-12698408D02*
X14637321Y-12707932D01*
X14627797Y-12717456D01*
X14618273Y-12707932D01*
X14627797Y-12698408D01*
X14627797Y-12717456D01*
X14761130Y-12517456D02*
X14780178Y-12517456D01*
X14799226Y-12526980D01*
X14808749Y-12536504D01*
X14818273Y-12555551D01*
X14827797Y-12593647D01*
X14827797Y-12641266D01*
X14818273Y-12679361D01*
X14808749Y-12698408D01*
X14799226Y-12707932D01*
X14780178Y-12717456D01*
X14761130Y-12717456D01*
X14742083Y-12707932D01*
X14732559Y-12698408D01*
X14723035Y-12679361D01*
X14713511Y-12641266D01*
X14713511Y-12593647D01*
X14723035Y-12555551D01*
X14732559Y-12536504D01*
X14742083Y-12526980D01*
X14761130Y-12517456D01*
X14894464Y-12517456D02*
X15018273Y-12517456D01*
X14951607Y-12593647D01*
X14980178Y-12593647D01*
X14999226Y-12603170D01*
X15008749Y-12612694D01*
X15018273Y-12631742D01*
X15018273Y-12679361D01*
X15008749Y-12698408D01*
X14999226Y-12707932D01*
X14980178Y-12717456D01*
X14923035Y-12717456D01*
X14903988Y-12707932D01*
X14894464Y-12698408D01*
X15113511Y-12717456D02*
X15151607Y-12717456D01*
X15170654Y-12707932D01*
X15180178Y-12698408D01*
X15199226Y-12669837D01*
X15208749Y-12631742D01*
X15208749Y-12555551D01*
X15199226Y-12536504D01*
X15189702Y-12526980D01*
X15170654Y-12517456D01*
X15132559Y-12517456D01*
X15113511Y-12526980D01*
X15103988Y-12536504D01*
X15094464Y-12555551D01*
X15094464Y-12603170D01*
X15103988Y-12622218D01*
X15113511Y-12631742D01*
X15132559Y-12641266D01*
X15170654Y-12641266D01*
X15189702Y-12631742D01*
X15199226Y-12622218D01*
X15208749Y-12603170D01*
X15380178Y-12584123D02*
X15380178Y-12717456D01*
X15332559Y-12507932D02*
X15284940Y-12650789D01*
X15408749Y-12650789D01*
X15475416Y-12517456D02*
X15475416Y-12555551D01*
X15551607Y-12517456D02*
X15551607Y-12555551D01*
X15846845Y-12793647D02*
X15837321Y-12784123D01*
X15818273Y-12755551D01*
X15808749Y-12736504D01*
X15799226Y-12707932D01*
X15789702Y-12660313D01*
X15789702Y-12622218D01*
X15799226Y-12574599D01*
X15808749Y-12546028D01*
X15818273Y-12526980D01*
X15837321Y-12498408D01*
X15846845Y-12488885D01*
X15903988Y-12517456D02*
X16027797Y-12517456D01*
X15961130Y-12593647D01*
X15989702Y-12593647D01*
X16008749Y-12603170D01*
X16018273Y-12612694D01*
X16027797Y-12631742D01*
X16027797Y-12679361D01*
X16018273Y-12698408D01*
X16008749Y-12707932D01*
X15989702Y-12717456D01*
X15932559Y-12717456D01*
X15913511Y-12707932D01*
X15903988Y-12698408D01*
X16199226Y-12517456D02*
X16161130Y-12517456D01*
X16142083Y-12526980D01*
X16132559Y-12536504D01*
X16113511Y-12565075D01*
X16103988Y-12603170D01*
X16103988Y-12679361D01*
X16113511Y-12698408D01*
X16123035Y-12707932D01*
X16142083Y-12717456D01*
X16180178Y-12717456D01*
X16199226Y-12707932D01*
X16208749Y-12698408D01*
X16218273Y-12679361D01*
X16218273Y-12631742D01*
X16208749Y-12612694D01*
X16199226Y-12603170D01*
X16180178Y-12593647D01*
X16142083Y-12593647D01*
X16123035Y-12603170D01*
X16113511Y-12612694D01*
X16103988Y-12631742D01*
X16456368Y-12717456D02*
X16456368Y-12517456D01*
X16542083Y-12717456D02*
X16542083Y-12612694D01*
X16532559Y-12593647D01*
X16513511Y-12584123D01*
X16484940Y-12584123D01*
X16465892Y-12593647D01*
X16456368Y-12603170D01*
X16665892Y-12717456D02*
X16646845Y-12707932D01*
X16637321Y-12698408D01*
X16627797Y-12679361D01*
X16627797Y-12622218D01*
X16637321Y-12603170D01*
X16646845Y-12593647D01*
X16665892Y-12584123D01*
X16694464Y-12584123D01*
X16713511Y-12593647D01*
X16723035Y-12603170D01*
X16732559Y-12622218D01*
X16732559Y-12679361D01*
X16723035Y-12698408D01*
X16713511Y-12707932D01*
X16694464Y-12717456D01*
X16665892Y-12717456D01*
X16846845Y-12717456D02*
X16827797Y-12707932D01*
X16818273Y-12688885D01*
X16818273Y-12517456D01*
X16999226Y-12707932D02*
X16980178Y-12717456D01*
X16942083Y-12717456D01*
X16923035Y-12707932D01*
X16913511Y-12688885D01*
X16913511Y-12612694D01*
X16923035Y-12593647D01*
X16942083Y-12584123D01*
X16980178Y-12584123D01*
X16999226Y-12593647D01*
X17008750Y-12612694D01*
X17008750Y-12631742D01*
X16913511Y-12650789D01*
X17084940Y-12707932D02*
X17103988Y-12717456D01*
X17142083Y-12717456D01*
X17161130Y-12707932D01*
X17170654Y-12688885D01*
X17170654Y-12679361D01*
X17161130Y-12660313D01*
X17142083Y-12650789D01*
X17113511Y-12650789D01*
X17094464Y-12641266D01*
X17084940Y-12622218D01*
X17084940Y-12612694D01*
X17094464Y-12593647D01*
X17113511Y-12584123D01*
X17142083Y-12584123D01*
X17161130Y-12593647D01*
X17237321Y-12793647D02*
X17246845Y-12784123D01*
X17265892Y-12755551D01*
X17275416Y-12736504D01*
X17284940Y-12707932D01*
X17294464Y-12660313D01*
X17294464Y-12622218D01*
X17284940Y-12574599D01*
X17275416Y-12546028D01*
X17265892Y-12526980D01*
X17246845Y-12498408D01*
X17237321Y-12488885D01*
D13*
X12219940Y-12835980D02*
X12219940Y-12945980D01*
X12164940Y-12890980D02*
X12274940Y-12890980D01*
D11*
X12637321Y-12981456D02*
X12523035Y-12981456D01*
X12580178Y-12981456D02*
X12580178Y-12781456D01*
X12561130Y-12810028D01*
X12542083Y-12829075D01*
X12523035Y-12838599D01*
X12723035Y-12962408D02*
X12732559Y-12971932D01*
X12723035Y-12981456D01*
X12713511Y-12971932D01*
X12723035Y-12962408D01*
X12723035Y-12981456D01*
X12923035Y-12981456D02*
X12808749Y-12981456D01*
X12865892Y-12981456D02*
X12865892Y-12781456D01*
X12846845Y-12810028D01*
X12827797Y-12829075D01*
X12808749Y-12838599D01*
X13046845Y-12781456D02*
X13065892Y-12781456D01*
X13084940Y-12790980D01*
X13094464Y-12800504D01*
X13103988Y-12819551D01*
X13113511Y-12857647D01*
X13113511Y-12905266D01*
X13103988Y-12943361D01*
X13094464Y-12962408D01*
X13084940Y-12971932D01*
X13065892Y-12981456D01*
X13046845Y-12981456D01*
X13027797Y-12971932D01*
X13018273Y-12962408D01*
X13008749Y-12943361D01*
X12999226Y-12905266D01*
X12999226Y-12857647D01*
X13008749Y-12819551D01*
X13018273Y-12800504D01*
X13027797Y-12790980D01*
X13046845Y-12781456D01*
X13237321Y-12781456D02*
X13256368Y-12781456D01*
X13275416Y-12790980D01*
X13284940Y-12800504D01*
X13294464Y-12819551D01*
X13303988Y-12857647D01*
X13303988Y-12905266D01*
X13294464Y-12943361D01*
X13284940Y-12962408D01*
X13275416Y-12971932D01*
X13256368Y-12981456D01*
X13237321Y-12981456D01*
X13218273Y-12971932D01*
X13208749Y-12962408D01*
X13199226Y-12943361D01*
X13189702Y-12905266D01*
X13189702Y-12857647D01*
X13199226Y-12819551D01*
X13208749Y-12800504D01*
X13218273Y-12790980D01*
X13237321Y-12781456D01*
X13389702Y-12981456D02*
X13389702Y-12848123D01*
X13389702Y-12867170D02*
X13399226Y-12857647D01*
X13418273Y-12848123D01*
X13446845Y-12848123D01*
X13465892Y-12857647D01*
X13475416Y-12876694D01*
X13475416Y-12981456D01*
X13475416Y-12876694D02*
X13484940Y-12857647D01*
X13503988Y-12848123D01*
X13532559Y-12848123D01*
X13551607Y-12857647D01*
X13561130Y-12876694D01*
X13561130Y-12981456D01*
X13656368Y-12981456D02*
X13656368Y-12848123D01*
X13656368Y-12867170D02*
X13665892Y-12857647D01*
X13684940Y-12848123D01*
X13713511Y-12848123D01*
X13732559Y-12857647D01*
X13742083Y-12876694D01*
X13742083Y-12981456D01*
X13742083Y-12876694D02*
X13751607Y-12857647D01*
X13770654Y-12848123D01*
X13799226Y-12848123D01*
X13818273Y-12857647D01*
X13827797Y-12876694D01*
X13827797Y-12981456D01*
X14218273Y-12771932D02*
X14046845Y-13029075D01*
X14475416Y-12781456D02*
X14494464Y-12781456D01*
X14513511Y-12790980D01*
X14523035Y-12800504D01*
X14532559Y-12819551D01*
X14542083Y-12857647D01*
X14542083Y-12905266D01*
X14532559Y-12943361D01*
X14523035Y-12962408D01*
X14513511Y-12971932D01*
X14494464Y-12981456D01*
X14475416Y-12981456D01*
X14456368Y-12971932D01*
X14446845Y-12962408D01*
X14437321Y-12943361D01*
X14427797Y-12905266D01*
X14427797Y-12857647D01*
X14437321Y-12819551D01*
X14446845Y-12800504D01*
X14456368Y-12790980D01*
X14475416Y-12781456D01*
X14627797Y-12962408D02*
X14637321Y-12971932D01*
X14627797Y-12981456D01*
X14618273Y-12971932D01*
X14627797Y-12962408D01*
X14627797Y-12981456D01*
X14761130Y-12781456D02*
X14780178Y-12781456D01*
X14799226Y-12790980D01*
X14808749Y-12800504D01*
X14818273Y-12819551D01*
X14827797Y-12857647D01*
X14827797Y-12905266D01*
X14818273Y-12943361D01*
X14808749Y-12962408D01*
X14799226Y-12971932D01*
X14780178Y-12981456D01*
X14761130Y-12981456D01*
X14742083Y-12971932D01*
X14732559Y-12962408D01*
X14723035Y-12943361D01*
X14713511Y-12905266D01*
X14713511Y-12857647D01*
X14723035Y-12819551D01*
X14732559Y-12800504D01*
X14742083Y-12790980D01*
X14761130Y-12781456D01*
X14999226Y-12848123D02*
X14999226Y-12981456D01*
X14951607Y-12771932D02*
X14903988Y-12914789D01*
X15027797Y-12914789D01*
X15084940Y-12781456D02*
X15208749Y-12781456D01*
X15142083Y-12857647D01*
X15170654Y-12857647D01*
X15189702Y-12867170D01*
X15199226Y-12876694D01*
X15208749Y-12895742D01*
X15208749Y-12943361D01*
X15199226Y-12962408D01*
X15189702Y-12971932D01*
X15170654Y-12981456D01*
X15113511Y-12981456D01*
X15094464Y-12971932D01*
X15084940Y-12962408D01*
X15275416Y-12781456D02*
X15399226Y-12781456D01*
X15332559Y-12857647D01*
X15361130Y-12857647D01*
X15380178Y-12867170D01*
X15389702Y-12876694D01*
X15399226Y-12895742D01*
X15399226Y-12943361D01*
X15389702Y-12962408D01*
X15380178Y-12971932D01*
X15361130Y-12981456D01*
X15303988Y-12981456D01*
X15284940Y-12971932D01*
X15275416Y-12962408D01*
X15475416Y-12781456D02*
X15475416Y-12819551D01*
X15551607Y-12781456D02*
X15551607Y-12819551D01*
X15846845Y-13057647D02*
X15837321Y-13048123D01*
X15818273Y-13019551D01*
X15808749Y-13000504D01*
X15799226Y-12971932D01*
X15789702Y-12924313D01*
X15789702Y-12886218D01*
X15799226Y-12838599D01*
X15808749Y-12810028D01*
X15818273Y-12790980D01*
X15837321Y-12762408D01*
X15846845Y-12752885D01*
X16008749Y-12848123D02*
X16008749Y-12981456D01*
X15961130Y-12771932D02*
X15913511Y-12914789D01*
X16037321Y-12914789D01*
X16265892Y-12981456D02*
X16265892Y-12781456D01*
X16351607Y-12981456D02*
X16351607Y-12876694D01*
X16342083Y-12857647D01*
X16323035Y-12848123D01*
X16294464Y-12848123D01*
X16275416Y-12857647D01*
X16265892Y-12867170D01*
X16475416Y-12981456D02*
X16456368Y-12971932D01*
X16446845Y-12962408D01*
X16437321Y-12943361D01*
X16437321Y-12886218D01*
X16446845Y-12867170D01*
X16456368Y-12857647D01*
X16475416Y-12848123D01*
X16503988Y-12848123D01*
X16523035Y-12857647D01*
X16532559Y-12867170D01*
X16542083Y-12886218D01*
X16542083Y-12943361D01*
X16532559Y-12962408D01*
X16523035Y-12971932D01*
X16503988Y-12981456D01*
X16475416Y-12981456D01*
X16656368Y-12981456D02*
X16637321Y-12971932D01*
X16627797Y-12952885D01*
X16627797Y-12781456D01*
X16808750Y-12971932D02*
X16789702Y-12981456D01*
X16751607Y-12981456D01*
X16732559Y-12971932D01*
X16723035Y-12952885D01*
X16723035Y-12876694D01*
X16732559Y-12857647D01*
X16751607Y-12848123D01*
X16789702Y-12848123D01*
X16808750Y-12857647D01*
X16818273Y-12876694D01*
X16818273Y-12895742D01*
X16723035Y-12914789D01*
X16894464Y-12971932D02*
X16913511Y-12981456D01*
X16951607Y-12981456D01*
X16970654Y-12971932D01*
X16980178Y-12952885D01*
X16980178Y-12943361D01*
X16970654Y-12924313D01*
X16951607Y-12914789D01*
X16923035Y-12914789D01*
X16903988Y-12905266D01*
X16894464Y-12886218D01*
X16894464Y-12876694D01*
X16903988Y-12857647D01*
X16923035Y-12848123D01*
X16951607Y-12848123D01*
X16970654Y-12857647D01*
X17046845Y-13057647D02*
X17056369Y-13048123D01*
X17075416Y-13019551D01*
X17084940Y-13000504D01*
X17094464Y-12971932D01*
X17103988Y-12924313D01*
X17103988Y-12886218D01*
X17094464Y-12838599D01*
X17084940Y-12810028D01*
X17075416Y-12790980D01*
X17056369Y-12762408D01*
X17046845Y-12752885D01*
M02*
