M48
; DRILL file {KiCad (6.0.8-1)-1} date 
; FORMAT={-:-/ absolute / metric / decimal}
; #@! TF.CreationDate,2024-02-06T23:44:46-06:00
; #@! TF.GenerationSoftware,Kicad,Pcbnew,(6.0.8-1)-1
; #@! TF.FileFunction,Plated,1,4,PTH
FMAT,2
METRIC
; #@! TA.AperFunction,Plated,PTH,ViaDrill
T1C0.400
; #@! TA.AperFunction,Plated,PTH,ComponentDrill
T2C1.000
; #@! TA.AperFunction,Plated,PTH,ComponentDrill
T3C1.100
%
G90
G05
T1
X123.977Y-109.804
X123.977Y-110.82
X124.435Y-107.239
X124.435Y-108.255
X126.136Y-102.87
X126.365Y-114.275
X131.699Y-100.0
X132.791Y-100.0
X133.883Y-100.0
X137.439Y-100.152
X138.963Y-100.152
X140.487Y-100.152
X145.11Y-98.146
X148.107Y-98.069
X149.936Y-98.45
X150.825Y-96.418
X150.851Y-92.1
X152.324Y-111.421
X152.324Y-112.42
X156.445Y-110.154
X156.445Y-111.855
T2
X125.305Y-82.213
X125.305Y-84.753
X125.305Y-87.293
X125.305Y-89.833
X125.305Y-92.373
X125.305Y-94.913
X125.305Y-97.453
X125.305Y-99.993
X127.845Y-82.213
X127.845Y-84.753
X127.845Y-87.293
X127.845Y-89.833
X127.845Y-92.373
X127.845Y-94.913
X127.845Y-97.453
X127.845Y-99.993
X132.69Y-83.312
X132.69Y-85.852
X132.69Y-88.392
X132.69Y-90.932
X155.165Y-82.213
X155.165Y-84.753
X155.165Y-87.293
X155.165Y-89.833
X155.165Y-92.373
X155.165Y-94.913
X155.165Y-97.453
X155.165Y-99.993
X157.705Y-82.213
X157.705Y-84.753
X157.705Y-87.293
X157.705Y-89.833
X157.705Y-92.373
X157.705Y-94.913
X157.705Y-97.453
X157.705Y-99.993
T3
X131.907Y-105.287
X135.407Y-110.287
X145.852Y-105.338
X149.352Y-110.338
T0
M30
