%TF.GenerationSoftware,KiCad,Pcbnew,(6.0.8-1)-1*%
%TF.CreationDate,2024-02-06T23:44:39-06:00*%
%TF.ProjectId,openmv_can_shield,6f70656e-6d76-45f6-9361-6e5f73686965,rev?*%
%TF.SameCoordinates,Original*%
%TF.FileFunction,Soldermask,Top*%
%TF.FilePolarity,Negative*%
%FSLAX46Y46*%
G04 Gerber Fmt 4.6, Leading zero omitted, Abs format (unit mm)*
G04 Created by KiCad (PCBNEW (6.0.8-1)-1) date 2024-02-06 23:44:39*
%MOMM*%
%LPD*%
G01*
G04 APERTURE LIST*
G04 Aperture macros list*
%AMRoundRect*
0 Rectangle with rounded corners*
0 $1 Rounding radius*
0 $2 $3 $4 $5 $6 $7 $8 $9 X,Y pos of 4 corners*
0 Add a 4 corners polygon primitive as box body*
4,1,4,$2,$3,$4,$5,$6,$7,$8,$9,$2,$3,0*
0 Add four circle primitives for the rounded corners*
1,1,$1+$1,$2,$3*
1,1,$1+$1,$4,$5*
1,1,$1+$1,$6,$7*
1,1,$1+$1,$8,$9*
0 Add four rect primitives between the rounded corners*
20,1,$1+$1,$2,$3,$4,$5,0*
20,1,$1+$1,$4,$5,$6,$7,0*
20,1,$1+$1,$6,$7,$8,$9,0*
20,1,$1+$1,$8,$9,$2,$3,0*%
G04 Aperture macros list end*
%ADD10RoundRect,0.150000X-0.150000X0.825000X-0.150000X-0.825000X0.150000X-0.825000X0.150000X0.825000X0*%
%ADD11RoundRect,0.250000X0.625000X-0.312500X0.625000X0.312500X-0.625000X0.312500X-0.625000X-0.312500X0*%
%ADD12RoundRect,0.250000X0.650000X-0.325000X0.650000X0.325000X-0.650000X0.325000X-0.650000X-0.325000X0*%
%ADD13RoundRect,0.250000X-0.325000X-0.650000X0.325000X-0.650000X0.325000X0.650000X-0.325000X0.650000X0*%
%ADD14C,1.700000*%
%ADD15RoundRect,0.150000X-0.625000X0.150000X-0.625000X-0.150000X0.625000X-0.150000X0.625000X0.150000X0*%
%ADD16RoundRect,0.250000X-0.650000X0.350000X-0.650000X-0.350000X0.650000X-0.350000X0.650000X0.350000X0*%
%ADD17C,1.650000*%
%ADD18RoundRect,0.250000X-1.500000X-0.550000X1.500000X-0.550000X1.500000X0.550000X-1.500000X0.550000X0*%
%ADD19R,2.540000X2.670000*%
%ADD20R,1.270000X0.760000*%
G04 APERTURE END LIST*
D10*
%TO.C,U2*%
X149402800Y-96458000D03*
X148132800Y-96458000D03*
X146862800Y-96458000D03*
X145592800Y-96458000D03*
X145592800Y-101408000D03*
X146862800Y-101408000D03*
X148132800Y-101408000D03*
X149402800Y-101408000D03*
%TD*%
D11*
%TO.C,R1*%
X135864600Y-86019100D03*
X135864600Y-83094100D03*
%TD*%
D12*
%TO.C,C4*%
X135864600Y-91236800D03*
X135864600Y-88286800D03*
%TD*%
D13*
%TO.C,C3*%
X124382000Y-102870000D03*
X127332000Y-102870000D03*
%TD*%
D11*
%TO.C,R2*%
X151434800Y-101386100D03*
X151434800Y-98461100D03*
%TD*%
D12*
%TO.C,C2*%
X126746000Y-107951800D03*
X126746000Y-105001800D03*
%TD*%
D14*
%TO.C,RT1*%
X125304800Y-82212800D03*
X125304800Y-84752800D03*
X125304800Y-87292800D03*
X125304800Y-89832800D03*
X125304800Y-92372800D03*
X125304800Y-94912800D03*
X125304800Y-97452800D03*
X125304800Y-99992800D03*
X127844800Y-82212800D03*
X127844800Y-84752800D03*
X127844800Y-87292800D03*
X127844800Y-89832800D03*
X127844800Y-92372800D03*
X127844800Y-94912800D03*
X127844800Y-97452800D03*
X127844800Y-99992800D03*
X155164800Y-82212800D03*
X155164800Y-84752800D03*
X155164800Y-87292800D03*
X155164800Y-89832800D03*
X155164800Y-92372800D03*
X155164800Y-94912800D03*
X155164800Y-97452800D03*
X155164800Y-99992800D03*
X157704800Y-82212800D03*
X157704800Y-84752800D03*
X157704800Y-87292800D03*
X157704800Y-89832800D03*
X157704800Y-92372800D03*
X157704800Y-94912800D03*
X157704800Y-97452800D03*
X157704800Y-99992800D03*
%TD*%
D15*
%TO.C,X1*%
X153919800Y-109421800D03*
X153919800Y-110421800D03*
X153919800Y-111421800D03*
X153919800Y-112421800D03*
D16*
X156444800Y-113721800D03*
X156444800Y-108121800D03*
%TD*%
D17*
%TO.C,J1*%
X131907400Y-105286800D03*
X135407400Y-110286800D03*
%TD*%
D18*
%TO.C,C1*%
X133596400Y-97840800D03*
X138996400Y-97840800D03*
%TD*%
D17*
%TO.C,J3*%
X145852000Y-105337600D03*
X149352000Y-110337600D03*
%TD*%
D13*
%TO.C,C6*%
X147902400Y-93954600D03*
X150852400Y-93954600D03*
%TD*%
D14*
%TO.C,U1*%
X132689600Y-83312000D03*
X132689600Y-85852000D03*
X132689600Y-88392000D03*
X132689600Y-90932000D03*
%TD*%
D19*
%TO.C,D1*%
X126365000Y-110638400D03*
D20*
X126365000Y-112993400D03*
%TD*%
M02*
