%TF.GenerationSoftware,KiCad,Pcbnew,(6.0.8-1)-1*%
%TF.CreationDate,2024-02-06T23:44:39-06:00*%
%TF.ProjectId,openmv_can_shield,6f70656e-6d76-45f6-9361-6e5f73686965,rev?*%
%TF.SameCoordinates,Original*%
%TF.FileFunction,Legend,Top*%
%TF.FilePolarity,Positive*%
%FSLAX46Y46*%
G04 Gerber Fmt 4.6, Leading zero omitted, Abs format (unit mm)*
G04 Created by KiCad (PCBNEW (6.0.8-1)-1) date 2024-02-06 23:44:39*
%MOMM*%
%LPD*%
G01*
G04 APERTURE LIST*
%ADD10C,0.180000*%
%ADD11C,0.150000*%
%ADD12C,0.254000*%
%ADD13C,0.120000*%
%ADD14C,0.100000*%
G04 APERTURE END LIST*
D10*
X130098857Y-116062114D02*
X131013142Y-116062114D01*
X130556000Y-116519257D02*
X130556000Y-115604971D01*
X142262457Y-116404971D02*
X142205314Y-116462114D01*
X142033885Y-116519257D01*
X141919600Y-116519257D01*
X141748171Y-116462114D01*
X141633885Y-116347828D01*
X141576742Y-116233542D01*
X141519600Y-116004971D01*
X141519600Y-115833542D01*
X141576742Y-115604971D01*
X141633885Y-115490685D01*
X141748171Y-115376400D01*
X141919600Y-115319257D01*
X142033885Y-115319257D01*
X142205314Y-115376400D01*
X142262457Y-115433542D01*
X142719600Y-116176400D02*
X143291028Y-116176400D01*
X142605314Y-116519257D02*
X143005314Y-115319257D01*
X143405314Y-116519257D01*
X143805314Y-116519257D02*
X143805314Y-115319257D01*
X144491028Y-116519257D01*
X144491028Y-115319257D01*
X144776742Y-116633542D02*
X145691028Y-116633542D01*
X145976742Y-116519257D02*
X145976742Y-115319257D01*
X145976742Y-115890685D02*
X146662457Y-115890685D01*
X146662457Y-116519257D02*
X146662457Y-115319257D01*
X134569257Y-116062114D02*
X135483542Y-116062114D01*
X159470657Y-112093228D02*
X158270657Y-112093228D01*
X158384942Y-111578942D02*
X158327800Y-111521800D01*
X158270657Y-111407514D01*
X158270657Y-111121800D01*
X158327800Y-111007514D01*
X158384942Y-110950371D01*
X158499228Y-110893228D01*
X158613514Y-110893228D01*
X158784942Y-110950371D01*
X159470657Y-111636085D01*
X159470657Y-110893228D01*
X159356371Y-109693228D02*
X159413514Y-109750371D01*
X159470657Y-109921800D01*
X159470657Y-110036085D01*
X159413514Y-110207514D01*
X159299228Y-110321800D01*
X159184942Y-110378942D01*
X158956371Y-110436085D01*
X158784942Y-110436085D01*
X158556371Y-110378942D01*
X158442085Y-110321800D01*
X158327800Y-110207514D01*
X158270657Y-110036085D01*
X158270657Y-109921800D01*
X158327800Y-109750371D01*
X158384942Y-109693228D01*
X148450514Y-116404971D02*
X148393371Y-116462114D01*
X148221942Y-116519257D01*
X148107657Y-116519257D01*
X147936228Y-116462114D01*
X147821942Y-116347828D01*
X147764800Y-116233542D01*
X147707657Y-116004971D01*
X147707657Y-115833542D01*
X147764800Y-115604971D01*
X147821942Y-115490685D01*
X147936228Y-115376400D01*
X148107657Y-115319257D01*
X148221942Y-115319257D01*
X148393371Y-115376400D01*
X148450514Y-115433542D01*
X148907657Y-116176400D02*
X149479085Y-116176400D01*
X148793371Y-116519257D02*
X149193371Y-115319257D01*
X149593371Y-116519257D01*
X149993371Y-116519257D02*
X149993371Y-115319257D01*
X150679085Y-116519257D01*
X150679085Y-115319257D01*
X150964800Y-116633542D02*
X151879085Y-116633542D01*
X152736228Y-116519257D02*
X152164800Y-116519257D01*
X152164800Y-115319257D01*
D11*
%TO.C,U2*%
X143027495Y-101179380D02*
X143027495Y-101988904D01*
X143075114Y-102084142D01*
X143122733Y-102131761D01*
X143217971Y-102179380D01*
X143408447Y-102179380D01*
X143503685Y-102131761D01*
X143551304Y-102084142D01*
X143598923Y-101988904D01*
X143598923Y-101179380D01*
X144027495Y-101274619D02*
X144075114Y-101227000D01*
X144170352Y-101179380D01*
X144408447Y-101179380D01*
X144503685Y-101227000D01*
X144551304Y-101274619D01*
X144598923Y-101369857D01*
X144598923Y-101465095D01*
X144551304Y-101607952D01*
X143979876Y-102179380D01*
X144598923Y-102179380D01*
%TO.C,R1*%
X138247380Y-86044066D02*
X137771190Y-86377400D01*
X138247380Y-86615495D02*
X137247380Y-86615495D01*
X137247380Y-86234542D01*
X137295000Y-86139304D01*
X137342619Y-86091685D01*
X137437857Y-86044066D01*
X137580714Y-86044066D01*
X137675952Y-86091685D01*
X137723571Y-86139304D01*
X137771190Y-86234542D01*
X137771190Y-86615495D01*
X138247380Y-85091685D02*
X138247380Y-85663114D01*
X138247380Y-85377400D02*
X137247380Y-85377400D01*
X137390238Y-85472638D01*
X137485476Y-85567876D01*
X137533095Y-85663114D01*
%TO.C,C4*%
X138228342Y-91174866D02*
X138275961Y-91222485D01*
X138323580Y-91365342D01*
X138323580Y-91460580D01*
X138275961Y-91603438D01*
X138180723Y-91698676D01*
X138085485Y-91746295D01*
X137895009Y-91793914D01*
X137752152Y-91793914D01*
X137561676Y-91746295D01*
X137466438Y-91698676D01*
X137371200Y-91603438D01*
X137323580Y-91460580D01*
X137323580Y-91365342D01*
X137371200Y-91222485D01*
X137418819Y-91174866D01*
X137656914Y-90317723D02*
X138323580Y-90317723D01*
X137275961Y-90555819D02*
X137990247Y-90793914D01*
X137990247Y-90174866D01*
%TO.C,C3*%
X128916133Y-102693742D02*
X128868514Y-102741361D01*
X128725657Y-102788980D01*
X128630419Y-102788980D01*
X128487561Y-102741361D01*
X128392323Y-102646123D01*
X128344704Y-102550885D01*
X128297085Y-102360409D01*
X128297085Y-102217552D01*
X128344704Y-102027076D01*
X128392323Y-101931838D01*
X128487561Y-101836600D01*
X128630419Y-101788980D01*
X128725657Y-101788980D01*
X128868514Y-101836600D01*
X128916133Y-101884219D01*
X129249466Y-101788980D02*
X129868514Y-101788980D01*
X129535180Y-102169933D01*
X129678038Y-102169933D01*
X129773276Y-102217552D01*
X129820895Y-102265171D01*
X129868514Y-102360409D01*
X129868514Y-102598504D01*
X129820895Y-102693742D01*
X129773276Y-102741361D01*
X129678038Y-102788980D01*
X129392323Y-102788980D01*
X129297085Y-102741361D01*
X129249466Y-102693742D01*
%TO.C,R2*%
X152436533Y-103322380D02*
X152103200Y-102846190D01*
X151865104Y-103322380D02*
X151865104Y-102322380D01*
X152246057Y-102322380D01*
X152341295Y-102370000D01*
X152388914Y-102417619D01*
X152436533Y-102512857D01*
X152436533Y-102655714D01*
X152388914Y-102750952D01*
X152341295Y-102798571D01*
X152246057Y-102846190D01*
X151865104Y-102846190D01*
X152817485Y-102417619D02*
X152865104Y-102370000D01*
X152960342Y-102322380D01*
X153198438Y-102322380D01*
X153293676Y-102370000D01*
X153341295Y-102417619D01*
X153388914Y-102512857D01*
X153388914Y-102608095D01*
X153341295Y-102750952D01*
X152769866Y-103322380D01*
X153388914Y-103322380D01*
%TO.C,C2*%
X125253142Y-106643466D02*
X125300761Y-106691085D01*
X125348380Y-106833942D01*
X125348380Y-106929180D01*
X125300761Y-107072038D01*
X125205523Y-107167276D01*
X125110285Y-107214895D01*
X124919809Y-107262514D01*
X124776952Y-107262514D01*
X124586476Y-107214895D01*
X124491238Y-107167276D01*
X124396000Y-107072038D01*
X124348380Y-106929180D01*
X124348380Y-106833942D01*
X124396000Y-106691085D01*
X124443619Y-106643466D01*
X124443619Y-106262514D02*
X124396000Y-106214895D01*
X124348380Y-106119657D01*
X124348380Y-105881561D01*
X124396000Y-105786323D01*
X124443619Y-105738704D01*
X124538857Y-105691085D01*
X124634095Y-105691085D01*
X124776952Y-105738704D01*
X125348380Y-106310133D01*
X125348380Y-105691085D01*
%TO.C,RT1*%
X156627580Y-102331780D02*
X156294247Y-101855590D01*
X156056152Y-102331780D02*
X156056152Y-101331780D01*
X156437104Y-101331780D01*
X156532342Y-101379400D01*
X156579961Y-101427019D01*
X156627580Y-101522257D01*
X156627580Y-101665114D01*
X156579961Y-101760352D01*
X156532342Y-101807971D01*
X156437104Y-101855590D01*
X156056152Y-101855590D01*
X156913295Y-101331780D02*
X157484723Y-101331780D01*
X157199009Y-102331780D02*
X157199009Y-101331780D01*
X158341866Y-102331780D02*
X157770438Y-102331780D01*
X158056152Y-102331780D02*
X158056152Y-101331780D01*
X157960914Y-101474638D01*
X157865676Y-101569876D01*
X157770438Y-101617495D01*
%TO.C,X1*%
X156576780Y-106625923D02*
X157576780Y-105959257D01*
X156576780Y-105959257D02*
X157576780Y-106625923D01*
X157576780Y-105054495D02*
X157576780Y-105625923D01*
X157576780Y-105340209D02*
X156576780Y-105340209D01*
X156719638Y-105435447D01*
X156814876Y-105530685D01*
X156862495Y-105625923D01*
D12*
%TO.C,J1*%
X138235266Y-113477523D02*
X138235266Y-114384666D01*
X138174790Y-114566095D01*
X138053838Y-114687047D01*
X137872409Y-114747523D01*
X137751457Y-114747523D01*
X139505266Y-114747523D02*
X138779552Y-114747523D01*
X139142409Y-114747523D02*
X139142409Y-113477523D01*
X139021457Y-113658952D01*
X138900504Y-113779904D01*
X138779552Y-113840380D01*
D11*
%TO.C,C1*%
X136129733Y-93847942D02*
X136082114Y-93895561D01*
X135939257Y-93943180D01*
X135844019Y-93943180D01*
X135701161Y-93895561D01*
X135605923Y-93800323D01*
X135558304Y-93705085D01*
X135510685Y-93514609D01*
X135510685Y-93371752D01*
X135558304Y-93181276D01*
X135605923Y-93086038D01*
X135701161Y-92990800D01*
X135844019Y-92943180D01*
X135939257Y-92943180D01*
X136082114Y-92990800D01*
X136129733Y-93038419D01*
X137082114Y-93943180D02*
X136510685Y-93943180D01*
X136796400Y-93943180D02*
X136796400Y-92943180D01*
X136701161Y-93086038D01*
X136605923Y-93181276D01*
X136510685Y-93228895D01*
D12*
%TO.C,J3*%
X140800666Y-113477523D02*
X140800666Y-114384666D01*
X140740190Y-114566095D01*
X140619238Y-114687047D01*
X140437809Y-114747523D01*
X140316857Y-114747523D01*
X141284476Y-113477523D02*
X142070666Y-113477523D01*
X141647333Y-113961333D01*
X141828761Y-113961333D01*
X141949714Y-114021809D01*
X142010190Y-114082285D01*
X142070666Y-114203238D01*
X142070666Y-114505619D01*
X142010190Y-114626571D01*
X141949714Y-114687047D01*
X141828761Y-114747523D01*
X141465904Y-114747523D01*
X141344952Y-114687047D01*
X141284476Y-114626571D01*
D11*
%TO.C,C6*%
X151928533Y-96165942D02*
X151880914Y-96213561D01*
X151738057Y-96261180D01*
X151642819Y-96261180D01*
X151499961Y-96213561D01*
X151404723Y-96118323D01*
X151357104Y-96023085D01*
X151309485Y-95832609D01*
X151309485Y-95689752D01*
X151357104Y-95499276D01*
X151404723Y-95404038D01*
X151499961Y-95308800D01*
X151642819Y-95261180D01*
X151738057Y-95261180D01*
X151880914Y-95308800D01*
X151928533Y-95356419D01*
X152785676Y-95261180D02*
X152595200Y-95261180D01*
X152499961Y-95308800D01*
X152452342Y-95356419D01*
X152357104Y-95499276D01*
X152309485Y-95689752D01*
X152309485Y-96070704D01*
X152357104Y-96165942D01*
X152404723Y-96213561D01*
X152499961Y-96261180D01*
X152690438Y-96261180D01*
X152785676Y-96213561D01*
X152833295Y-96165942D01*
X152880914Y-96070704D01*
X152880914Y-95832609D01*
X152833295Y-95737371D01*
X152785676Y-95689752D01*
X152690438Y-95642133D01*
X152499961Y-95642133D01*
X152404723Y-95689752D01*
X152357104Y-95737371D01*
X152309485Y-95832609D01*
%TO.C,U1*%
X151892095Y-91628980D02*
X151892095Y-92438504D01*
X151939714Y-92533742D01*
X151987333Y-92581361D01*
X152082571Y-92628980D01*
X152273047Y-92628980D01*
X152368285Y-92581361D01*
X152415904Y-92533742D01*
X152463523Y-92438504D01*
X152463523Y-91628980D01*
X153463523Y-92628980D02*
X152892095Y-92628980D01*
X153177809Y-92628980D02*
X153177809Y-91628980D01*
X153082571Y-91771838D01*
X152987333Y-91867076D01*
X152892095Y-91914695D01*
%TO.C,D1*%
X123721904Y-114980980D02*
X123721904Y-113980980D01*
X123960000Y-113980980D01*
X124102857Y-114028600D01*
X124198095Y-114123838D01*
X124245714Y-114219076D01*
X124293333Y-114409552D01*
X124293333Y-114552409D01*
X124245714Y-114742885D01*
X124198095Y-114838123D01*
X124102857Y-114933361D01*
X123960000Y-114980980D01*
X123721904Y-114980980D01*
X125245714Y-114980980D02*
X124674285Y-114980980D01*
X124960000Y-114980980D02*
X124960000Y-113980980D01*
X124864761Y-114123838D01*
X124769523Y-114219076D01*
X124674285Y-114266695D01*
D13*
%TO.C,U2*%
X144937800Y-98933000D02*
X144937800Y-96983000D01*
X150057800Y-98933000D02*
X150057800Y-100883000D01*
X150057800Y-98933000D02*
X150057800Y-95483000D01*
X144937800Y-98933000D02*
X144937800Y-100883000D01*
%TO.C,R1*%
X134954600Y-85283664D02*
X134954600Y-83829536D01*
X136774600Y-85283664D02*
X136774600Y-83829536D01*
%TO.C,C4*%
X134954600Y-90473052D02*
X134954600Y-89050548D01*
X136774600Y-90473052D02*
X136774600Y-89050548D01*
%TO.C,C3*%
X125145748Y-101960000D02*
X126568252Y-101960000D01*
X125145748Y-103780000D02*
X126568252Y-103780000D01*
%TO.C,R2*%
X150524800Y-100650664D02*
X150524800Y-99196536D01*
X152344800Y-100650664D02*
X152344800Y-99196536D01*
%TO.C,C2*%
X125836000Y-107188052D02*
X125836000Y-105765548D01*
X127656000Y-107188052D02*
X127656000Y-105765548D01*
%TO.C,X1*%
X155284800Y-107811800D02*
X154134800Y-107811800D01*
X155284800Y-114031800D02*
X154134800Y-114031800D01*
X154134800Y-108861800D02*
X153144800Y-108861800D01*
X157254800Y-108981800D02*
X157254800Y-112861800D01*
X154134800Y-107811800D02*
X154134800Y-108861800D01*
X154134800Y-114031800D02*
X154134800Y-112981800D01*
D14*
%TO.C,J1*%
X128549400Y-114986800D02*
X137439400Y-114986800D01*
X128549400Y-102986800D02*
X128549400Y-114986800D01*
X137439400Y-114986800D02*
X137439400Y-102986800D01*
X137439400Y-102986800D02*
X128549400Y-102986800D01*
%TO.C,G\u002A\u002A\u002A*%
G36*
X145702929Y-85128044D02*
G01*
X145817394Y-85132972D01*
X145884637Y-85142824D01*
X145898140Y-85155482D01*
X145857915Y-85173057D01*
X145775246Y-85184572D01*
X145704573Y-85187192D01*
X145573059Y-85193761D01*
X145393259Y-85212233D01*
X145178796Y-85240756D01*
X144943294Y-85277481D01*
X144700378Y-85320556D01*
X144644856Y-85331173D01*
X144510632Y-85356901D01*
X144422859Y-85370074D01*
X144365574Y-85369417D01*
X144322819Y-85353651D01*
X144278633Y-85321499D01*
X144252068Y-85299740D01*
X144159805Y-85224306D01*
X144299634Y-85207828D01*
X144504592Y-85186151D01*
X144722345Y-85167433D01*
X144944317Y-85151953D01*
X145161935Y-85139994D01*
X145366625Y-85131835D01*
X145549814Y-85127758D01*
X145702929Y-85128044D01*
G37*
G36*
X141331847Y-87393201D02*
G01*
X141402309Y-87404295D01*
X141518445Y-87416428D01*
X141662568Y-87427940D01*
X141780195Y-87435266D01*
X141936351Y-87444776D01*
X142043019Y-87455330D01*
X142114093Y-87470251D01*
X142163467Y-87492860D01*
X142205032Y-87526478D01*
X142219021Y-87540171D01*
X142269176Y-87603010D01*
X142286402Y-87651599D01*
X142284095Y-87659085D01*
X142241790Y-87677206D01*
X142154436Y-87686402D01*
X142039850Y-87686105D01*
X141915850Y-87675750D01*
X141886779Y-87671722D01*
X141710609Y-87633148D01*
X141542422Y-87575097D01*
X141403844Y-87505848D01*
X141347029Y-87465087D01*
X141236716Y-87370352D01*
X141331847Y-87393201D01*
G37*
G36*
X144962633Y-85488067D02*
G01*
X145100130Y-85493404D01*
X145221021Y-85502349D01*
X145309347Y-85514534D01*
X145347921Y-85528079D01*
X145358423Y-85550359D01*
X145327599Y-85562695D01*
X145246256Y-85567547D01*
X145198926Y-85567942D01*
X145058546Y-85571427D01*
X144898584Y-85580148D01*
X144800653Y-85587967D01*
X144670032Y-85595394D01*
X144593717Y-85587030D01*
X144567578Y-85569777D01*
X144558940Y-85522402D01*
X144565755Y-85510114D01*
X144610091Y-85497359D01*
X144701654Y-85489678D01*
X144824488Y-85486702D01*
X144962633Y-85488067D01*
G37*
G36*
X142269519Y-85747077D02*
G01*
X142455995Y-85531763D01*
X142685213Y-85357639D01*
X142811925Y-85289529D01*
X143067294Y-85200910D01*
X143339212Y-85163431D01*
X143615071Y-85175375D01*
X143882265Y-85235023D01*
X144128188Y-85340657D01*
X144340234Y-85490562D01*
X144349558Y-85499038D01*
X144559232Y-85731438D01*
X144711060Y-85987625D01*
X144803815Y-86263625D01*
X144836271Y-86555464D01*
X144807202Y-86859168D01*
X144791447Y-86931262D01*
X144698248Y-87188122D01*
X144554251Y-87417312D01*
X144367824Y-87613996D01*
X144147336Y-87773337D01*
X143901158Y-87890496D01*
X143637659Y-87960637D01*
X143365207Y-87978923D01*
X143092173Y-87940516D01*
X143060062Y-87931950D01*
X142764824Y-87820540D01*
X142515584Y-87666399D01*
X142314249Y-87472020D01*
X142162728Y-87239897D01*
X142062929Y-86972521D01*
X142016762Y-86672387D01*
X142013620Y-86564931D01*
X142043623Y-86271183D01*
X142047042Y-86260356D01*
X142817344Y-86260356D01*
X142824241Y-86324793D01*
X142835884Y-86341963D01*
X142896146Y-86384031D01*
X142933221Y-86392186D01*
X142998823Y-86369312D01*
X143030558Y-86341963D01*
X143052394Y-86277574D01*
X143023832Y-86219892D01*
X142956703Y-86187861D01*
X142933221Y-86186069D01*
X142857614Y-86207798D01*
X142817344Y-86260356D01*
X142047042Y-86260356D01*
X142130492Y-85996058D01*
X142269519Y-85747077D01*
G37*
G36*
X145417034Y-84716160D02*
G01*
X145738754Y-84736246D01*
X146018038Y-84772218D01*
X146157560Y-84796652D01*
X146272138Y-84818497D01*
X146348429Y-84835096D01*
X146373077Y-84842946D01*
X146350792Y-84847648D01*
X146279818Y-84847924D01*
X146174732Y-84843779D01*
X146158048Y-84842842D01*
X145915891Y-84839711D01*
X145630113Y-84854015D01*
X145317484Y-84883829D01*
X144994776Y-84927227D01*
X144678761Y-84982283D01*
X144391897Y-85045649D01*
X144277944Y-85073387D01*
X144176395Y-85096968D01*
X144133233Y-85106324D01*
X144053635Y-85125041D01*
X144006391Y-85139159D01*
X143945079Y-85137049D01*
X143916242Y-85123924D01*
X143848882Y-85100025D01*
X143783344Y-85092547D01*
X143704288Y-85084397D01*
X143680575Y-85062951D01*
X143706164Y-85030856D01*
X143775016Y-84990762D01*
X143881090Y-84945316D01*
X144018345Y-84897167D01*
X144180741Y-84848963D01*
X144362238Y-84803354D01*
X144518403Y-84770266D01*
X144785695Y-84733142D01*
X145092293Y-84715116D01*
X145417034Y-84716160D01*
G37*
G36*
X144676670Y-87494121D02*
G01*
X144697475Y-87545896D01*
X144732784Y-87591559D01*
X144819179Y-87685312D01*
X144903421Y-87785918D01*
X144993688Y-87904249D01*
X145098160Y-88051174D01*
X145225017Y-88237563D01*
X145273906Y-88310663D01*
X145373650Y-88458382D01*
X145462612Y-88586563D01*
X145534381Y-88686253D01*
X145582545Y-88748493D01*
X145599233Y-88765178D01*
X145626690Y-88801575D01*
X145628601Y-88816789D01*
X145650861Y-88869970D01*
X145676167Y-88897305D01*
X145716030Y-88943080D01*
X145723733Y-88964608D01*
X145693970Y-88974803D01*
X145612457Y-88983178D01*
X145490853Y-88988988D01*
X145340818Y-88991484D01*
X145303570Y-88991512D01*
X144883408Y-88990587D01*
X144740711Y-88795533D01*
X144669961Y-88697296D01*
X144614138Y-88616959D01*
X144583865Y-88569861D01*
X144582159Y-88566557D01*
X144556578Y-88521665D01*
X144509205Y-88445357D01*
X144479101Y-88398497D01*
X144429085Y-88318327D01*
X144397541Y-88261543D01*
X144391897Y-88246589D01*
X144375315Y-88212465D01*
X144335465Y-88149532D01*
X144287188Y-88079676D01*
X144245329Y-88024778D01*
X144231032Y-88009415D01*
X144205451Y-87968929D01*
X144193151Y-87940050D01*
X144197325Y-87895888D01*
X144247998Y-87846243D01*
X144311417Y-87805680D01*
X144416000Y-87730783D01*
X144522159Y-87634130D01*
X144562723Y-87589651D01*
X144623604Y-87523378D01*
X144664988Y-87490448D01*
X144676670Y-87494121D01*
G37*
G36*
X141883243Y-86642334D02*
G01*
X141904151Y-86712814D01*
X141916630Y-86804709D01*
X141918056Y-86842983D01*
X141930937Y-86933614D01*
X141961369Y-87031934D01*
X141961913Y-87033245D01*
X142003474Y-87140236D01*
X142038434Y-87240438D01*
X142071532Y-87343497D01*
X141780966Y-87339086D01*
X141612906Y-87332105D01*
X141433089Y-87317657D01*
X141275969Y-87298623D01*
X141252571Y-87294901D01*
X141060075Y-87259702D01*
X140898461Y-87224219D01*
X140776136Y-87190697D01*
X140701504Y-87161384D01*
X140681785Y-87142338D01*
X140704996Y-87127211D01*
X140727301Y-87132205D01*
X140809467Y-87141820D01*
X140929452Y-87128959D01*
X141072648Y-87098283D01*
X141224448Y-87054450D01*
X141370243Y-87002120D01*
X141495426Y-86945953D01*
X141585387Y-86890606D01*
X141623828Y-86846254D01*
X141660342Y-86807853D01*
X141676126Y-86804330D01*
X141716304Y-86780155D01*
X141767752Y-86720920D01*
X141775792Y-86709290D01*
X141822653Y-86646630D01*
X141856013Y-86615127D01*
X141859298Y-86614250D01*
X141883243Y-86642334D01*
G37*
G36*
X147023857Y-88961721D02*
G01*
X146998158Y-88988976D01*
X146976292Y-88992436D01*
X146933984Y-88985651D01*
X146928726Y-88979973D01*
X146953522Y-88959526D01*
X146976292Y-88949258D01*
X147017124Y-88948599D01*
X147023857Y-88961721D01*
G37*
D13*
%TO.C,C1*%
X132886400Y-100186363D02*
X132886400Y-98900800D01*
X133950837Y-101250800D02*
X139706400Y-101250800D01*
X131858900Y-95993300D02*
X132646400Y-95993300D01*
X132886400Y-95495237D02*
X133950837Y-94430800D01*
X139706400Y-94430800D02*
X139706400Y-96780800D01*
X132252650Y-95599550D02*
X132252650Y-96387050D01*
X132886400Y-95495237D02*
X132886400Y-96780800D01*
X133950837Y-94430800D02*
X139706400Y-94430800D01*
X132886400Y-100186363D02*
X133950837Y-101250800D01*
X139706400Y-101250800D02*
X139706400Y-98900800D01*
D14*
%TO.C,J3*%
X142494000Y-103037600D02*
X142494000Y-115037600D01*
X151384000Y-115037600D02*
X151384000Y-103037600D01*
X142494000Y-115037600D02*
X151384000Y-115037600D01*
X151384000Y-103037600D02*
X142494000Y-103037600D01*
D13*
%TO.C,C6*%
X148666148Y-94864600D02*
X150088652Y-94864600D01*
X148666148Y-93044600D02*
X150088652Y-93044600D01*
%TO.C,U1*%
X131579600Y-81710000D02*
X151579600Y-81710000D01*
X151579600Y-81710000D02*
X151579600Y-92710000D01*
X151579600Y-92710000D02*
X131579600Y-92710000D01*
X131579600Y-92710000D02*
X131579600Y-81710000D01*
%TO.C,D1*%
X127889000Y-108991400D02*
X124841000Y-108991400D01*
X124841000Y-108991400D02*
X124841000Y-113563400D01*
X124841000Y-113563400D02*
X127889000Y-113563400D01*
X127889000Y-113563400D02*
X127889000Y-108991400D01*
%TD*%
M02*
